<svg xmlns="http://www.w3.org/2000/svg" viewBox="0 0 800 600" width="800" height="600"><g transform="translate(178.0 62.0) rotate(0.0 218.0 96.5) scale(1.033175355450237 1.031203248557384)"><svg width="422" height="187.16" viewBox="0 0 422 187.16"><path d="M.5.5h130.87v186.16H.5z" fill="#fff"/><path d="M131.37 187.16H.5a.5.5 0 0 1-.5-.5V.5C0 .223.223 0 .5 0h130.87a.5.5 0 0 1 .5.5v186.16a.5.5 0 0 1-.5.5zM1 186.16h129.87V1H1z" fill="#60657C"/><path d="M145.57.5h130.86v186.16H145.57z" fill="#fff"/><path d="M276.43 187.16H145.57a.5.5 0 0 1-.5-.5V.5a.5.5 0 0 1 .5-.5h130.86a.5.5 0 0 1 .5.5v186.16a.5.5 0 0 1-.5.5zm-130.36-1h129.86V1H146.07z" fill="#60657C"/><path d="M290.64.5H421.5v186.16H290.64z" fill="#fff"/><path d="M421.5 187.16H290.64a.5.5 0 0 1-.5-.5V.5a.5.5 0 0 1 .5-.5H421.5a.5.5 0 0 1 .5.5v186.16a.5.5 0 0 1-.5.5zm-130.36-1H421V1H291.14z" fill="#60657C"/><path d="M.5 139.21v16.57l1.46.02h.03l12.11.15 117.27 1.49V23.2l-74.06 26L.5 37.93v100.85z" fill="#fff"/><path d="M131.37 157.94h-.006L.493 156.28a.5.5 0 0 1-.493-.5V37.93a.503.503 0 0 1 .598-.491l56.676 11.243 73.931-25.955a.497.497 0 0 1 .666.471v134.24a.497.497 0 0 1-.149.355.495.495 0 0 1-.352.147zM1 155.287l129.87 1.646V23.905L57.475 49.672a.51.51 0 0 1-.263.019L1 38.54z" fill="#60657C"/><path d="M276.43 39.16v120.12l-130.86-1.66V18.21l7.1-2.49 35.51 14.2 18.76-12.17 40.07 14.71 15.22-6.59 13.8 12.91z" fill="#fff"/><path d="M276.43 159.78h-.006l-130.86-1.66a.502.502 0 0 1-.494-.5V18.21c0-.212.134-.401.334-.472l7.1-2.489a.494.494 0 0 1 .351.008l35.27 14.103 18.543-12.029a.498.498 0 0 1 .444-.05l39.882 14.642 15.036-6.511a.506.506 0 0 1 .541.094l14.203 13.293c.1.094.156.226.156.362v120.12a.497.497 0 0 1-.5.499zm-130.36-2.654 129.86 1.647V39.375l-.244-.232-13.558-12.684-14.919 6.46a.501.501 0 0 1-.371.011l-39.835-14.624-18.551 12.034a.506.506 0 0 1-.458.044l-35.336-14.129-6.588 2.31z" fill="#60657C"/><path d="M421.5 58.59v102.53l-23.59-.3-1.06-.01-8.55-.11-25.65-.33-72.01-.91V52.47l3.55 3.32 4.5-7.34 5.13-8.38 48.7 13.69z" fill="#fff"/><path d="M421.5 161.62h-.006l-130.86-1.66a.502.502 0 0 1-.494-.5V52.471a.501.501 0 0 1 .842-.365l3.103 2.901 9.31-15.197a.5.5 0 0 1 .562-.221l48.65 13.676 68.929 4.826a.5.5 0 0 1 .465.499v102.53a.501.501 0 0 1-.501.5zm-130.36-2.654L421 160.613V59.055l-68.515-4.797a.567.567 0 0 1-.1-.018L304.05 40.653l-9.433 15.397a.5.5 0 0 1-.767.103l-2.709-2.532v105.345z" fill="#60657C"/><path d="M382.46 90.86h-.01l-55.8-20.36-9.96 7.11-7.79 5.57-18.26-6.6v100.2l16.6-.04h.11l88.28-.23 1.1-14.24.08-.94.04-.52 2.11-27.25 1.61-20.88 1.15-14.79zm-116.89-22.1h-.01l-23.11-6.88-8.62-4.06s-8.12 1.52-9.64 2.03-9.64-10.14-9.64-10.14l-18.77 13.18-28.24-6.59-17.41-4.06-4.56 1.18v123.74l34.58-.09 2.37-.01h.22l66.14-.17 25.62-.06.04-.01h1.89V71.99zm-165.12-3.63L42.6 80.14l-28.99-5.67L.5 71.9v63.02l.27 3.85.06.84.01.01v.01l1.13 15.9v.01l.02.26.43 6.01.76 10.66.36 5.06 127.83-.33V57.11z" fill="#fff"/><path d="M3.54 178.03a.501.501 0 0 1-.499-.465L.346 139.732a.43.43 0 0 1-.015-.086L0 134.955V71.9a.502.502 0 0 1 .596-.49l41.988 8.218 88.66-23.002a.502.502 0 0 1 .626.485V177.2a.5.5 0 0 1-.499.5l-127.83.33zm-2.217-38.533c.011.04.017.082.017.123l2.666 37.409 126.864-.328V57.757L42.725 80.625a.486.486 0 0 1-.221.006L1 72.508v62.412zM145.57 177.66a.503.503 0 0 1-.5-.5V53.42a.5.5 0 0 1 .375-.484l4.56-1.18a.509.509 0 0 1 .239-.003l45.432 10.6 18.587-13.052a.501.501 0 0 1 .685.106c3.633 4.765 8.155 9.928 9.125 9.961 1.493-.508 9.332-1.977 9.665-2.039a.51.51 0 0 1 .305.039l8.62 4.06 23.001 6.842a.569.569 0 0 1 .048.011l10.86 3.23a.5.5 0 0 1 .357.479v104.83a.5.5 0 0 1-.5.5h-1.842a.527.527 0 0 1-.087.01l-128.929.33h-.001zm.5-123.854v122.853l128.381-.329a.55.55 0 0 1 .088-.01h1.39V72.363l-10.465-3.113a.569.569 0 0 1-.048-.011l-23.11-6.88-8.544-4.018c-1.14.215-8.06 1.527-9.414 1.982a.863.863 0 0 1-.276.044c-1.791.001-7.491-7.19-9.629-9.974L196.067 63.3a.496.496 0 0 1-.401.078l-45.53-10.623zM290.64 177.28a.503.503 0 0 1-.5-.5V76.58a.501.501 0 0 1 .67-.471l18.013 6.511 17.537-12.527a.502.502 0 0 1 .462-.063l55.758 20.346a.38.38 0 0 1 .051.015l19.26 7.03a.5.5 0 0 1 .327.509l-6.09 78.618a.5.5 0 0 1-.497.462zm.5-99.988v98.987l104.027-.269 6.025-77.78-18.863-6.886a.38.38 0 0 1-.051-.015l-55.552-20.271-17.535 12.526a.499.499 0 0 1-.461.064z" fill="#60657C"/><path d="M131.37 87.56v74.4l-75.02-.09h-5.13l-32.34-.04-16.46-.02H1.8l-1.3-.01V84.96l3.32 1.24 10.88 4.08 25.87-4.05 42.61 8.11 34.49-8.62z" fill="#fff"/><path d="M131.37 162.46.496 162.3a.5.5 0 0 1-.496-.5V84.96a.5.5 0 0 1 .675-.469l14.078 5.274 25.74-4.029a.463.463 0 0 1 .17.003l42.502 8.089 34.383-8.593a.495.495 0 0 1 .188-.01l13.7 1.84a.5.5 0 0 1 .434.495v74.399a.504.504 0 0 1-.5.501zM2.42 161.31l128.45.148v-73.46l-13.172-1.77-34.397 8.597a.484.484 0 0 1-.214.006l-42.525-8.093-25.785 4.036a.488.488 0 0 1-.253-.026L1 85.68v75.623z" fill="#60657C"/><path d="M276.43 65.83v96.3l-130.86-.15V89.46l28.91 3.87 91.08-24.57h.01z" fill="#fff"/><path d="m276.43 162.63-130.86-.149a.5.5 0 0 1-.5-.5V89.46c0-.145.062-.281.171-.376a.48.48 0 0 1 .396-.119l28.81 3.856 90.983-24.544a.31.31 0 0 1 .051-.011l10.819-2.919a.496.496 0 0 1 .435.086.497.497 0 0 1 .196.396v96.3a.504.504 0 0 1-.501.501zm-130.36-1.149 129.86.147V66.482l-10.229 2.76a.31.31 0 0 1-.051.011l-91.04 24.56a.467.467 0 0 1-.197.013l-28.343-3.794z" fill="#60657C"/><path d="M421.5 92.52v69.78l-24.77-.03h-4.51l-31.83-.04-69.75-.08v-95.3l26.05 10.76 28.22 11.66 37.54 1.59h.01z" fill="#fff"/><path d="m421.5 162.8-130.86-.149a.5.5 0 0 1-.5-.5v-95.3a.5.5 0 0 1 .691-.462l54.188 22.386 76.501 3.246a.5.5 0 0 1 .479.5V162.3a.497.497 0 0 1-.499.5zm-130.36-1.149 129.86.148V93l-76.111-3.229a.519.519 0 0 1-.17-.038L291.14 67.597z" fill="#60657C"/><path d="m97.89 136.95-95.47 1.79-1.65.03-.27.01v47.88h130.87v-57.91c-18.26 4.47-33.48 8.2-33.48 8.2zm301.07-3.39-71.3-2.7-37.02-10.28v66.08H421.5v-52.24zm-153.47-25.52-31.45 13.18s-19.78-8.11-21.3-7.6c-.75.25-23.92 5.94-47.17 11.65v61.39h130.86v-70.03z" fill="#fff"/><path d="M421.5 187.16H290.64a.5.5 0 0 1-.5-.5v-66.08a.5.5 0 0 1 .634-.481l36.964 10.265 93.781 3.557a.5.5 0 0 1 .481.5v52.24a.5.5 0 0 1-.5.499zm-130.36-1H421v-51.259l-93.359-3.541a.503.503 0 0 1-.115-.019l-36.386-10.104zm-14.71 1H145.57a.5.5 0 0 1-.5-.5v-61.39c0-.23.157-.431.381-.485 22.807-5.602 46.391-11.394 47.131-11.64.098-.032.211-.049.347-.049 2.475 0 18.47 6.503 21.109 7.583l31.259-13.101a.484.484 0 0 1 .327-.021l30.94 8.59a.5.5 0 0 1 .366.481v70.03a.5.5 0 0 1-.5.502zm-130.36-1h129.86v-69.15l-30.407-8.441-31.29 13.113a.499.499 0 0 1-.383.002c-5.146-2.11-18.936-7.587-20.922-7.587-.797.254-23.119 5.735-46.858 11.565zm-14.7 1H.5a.5.5 0 0 1-.5-.5v-47.88a.5.5 0 0 1 .482-.5l1.929-.04 95.415-1.789 33.426-8.187a.498.498 0 0 1 .619.486v57.91a.502.502 0 0 1-.501.5zM1 186.16h129.87v-56.773l-32.861 8.049a.511.511 0 0 1-.11.015L1 139.266z" fill="#60657C"/></svg></g><g transform="translate(381.0 337.0) rotate(0.0 -40.0 89.0) scale(-1.0056441779487373 1.0162543604734147)"><svg width="79.551" height="175.153" viewBox="0 0 79.551 175.153"><g fill="#bbbdc7"><path d="m16.295 15.943 1.99.204-16.32 159.009-1.99-.204z"/><path d="M9.759 91.417h59.35v2H9.759z"/><path d="m62.088 15.938 16.271 159.01-1.99.203L60.099 16.14z"/><path d="M24.188 18.81h43.728a8.298 8.298 0 0 0 8.298-8.298V.267H40.916a3 3 0 0 0-3 3v2.336c0 5.097-3.242 9.629-8.066 11.275z"/><path d="m4.277 26.751 15.055-.095 9-12.659H10.759c-4.473.578-7.348 4.338-9.256 8.566-.891 1.973.609 4.202 2.774 4.188z"/></g><path d="M18.848 27.065a3 3 0 0 1-2.424-4.765l2.566-3.527a11.471 11.471 0 0 1 9.248-4.708h4.571c3.592 0 7.211.295 10.757.876l16.547 2.712A11.498 11.498 0 0 0 73.462 6.679l.089-3.75c.039-1.657 1.418-2.98 3.07-2.928a3 3 0 0 1 2.928 3.07l-.09 3.776a17.51 17.51 0 0 1-6.377 12.977 17.51 17.51 0 0 1-13.94 3.75l-16.547-2.712a60.653 60.653 0 0 0-9.786-.797h-4.571a5.45 5.45 0 0 0-4.396 2.238l-2.566 3.527a2.996 2.996 0 0 1-2.428 1.235z" fill="#d2d3da"/></svg></g><g transform="translate(291.0 196.0) rotate(0.0 55.5 139.0) scale(0.9986953979036394 0.998021906221841)"><svg width="111.145" height="278.551" viewBox="0 0 111.145 278.551"><path d="m106.084 149.696-3.166 25.925a18.709 18.709 0 0 1-.727 3.357l-21.633 68.668s-16.184-2.021-15.63-1.922l9.068-73.533a18.745 18.745 0 0 1 1.856-6.123l13.367-26.575 5.308-.878c6.583-1.085 12.366 4.457 11.557 11.081z" fill="#99644c"/><path d="m107.098 161.372-48.5-5-3.75-30 19.75.5 27.334 13.561a9 9 0 0 1 4.999 7.926z" fill="#0A192F"/><path d="m106.084 149.696-3.166 25.925a18.709 18.709 0 0 1-.727 3.357l-21.633 68.668s-16.184-2.021-15.63-1.922l9.068-73.533a18.745 18.745 0 0 1 1.856-6.123l13.367-26.575 5.308-.878c6.583-1.085 12.366 4.457 11.557 11.081z" fill="#002652" opacity=".07"/><path d="m82.831 241.259-6.47-.79 2.246-7.35a4.272 4.272 0 0 1 4.602-2.991l2.914.356z" fill="#64FFDA"/><path d="m80.776 244.37-15.48-1.89.687-5.629 15.48 1.89z" fill="#99644c"/><path d="m82.404 254.307-21.597-2.637.246-2.178a24.924 24.924 0 0 1 2.567-8.536l2.647-5.187 17.317 8.874z" fill="#112240"/><path d="m66.03 234.265-1.013 8.299c.493.06 12.564 8.711 12.87 9.102l1.806 2.309 23.466 3.11-.533-2.46a3.743 3.743 0 0 0-2.345-2.714l-10.946-4.854a11.213 11.213 0 0 1-5.805-4.948l-2.564-4.499a3.744 3.744 0 0 0-2.801-1.864z" fill="#112240"/><path d="m103.347 259.887-42.757-5.22.406-3.32 42.756 5.221z" fill="#64FFDA"/><circle cx="70.088" cy="245.488" fill="#64FFDA" r="3.995"/><path d="M90.463 274.772a7.63 7.63 0 0 0 6.623 3.779l9.789-.049c3.157-.123 5.178-3.41 3.862-6.282l-11.42-24.916-15.665 4.527.463 12.074z" fill="#64FFDA"/><path d="M57.471 136.759c4.427-2.699 10.213-1.122 12.658 3.451l13.251 24.784a19.048 19.048 0 0 1 1.956 5.643l12.573 70.511s-16.06 4.132-15.523 3.933l-26.114-68.502a19.11 19.11 0 0 1-.952-3.426l-5.67-31.627z" fill="#99644c"/><path d="M90.283 271.704a7.63 7.63 0 0 0 6.623 3.779l9.789-.049c3.157-.123 5.178-3.41 3.862-6.282l-11.42-24.916-15.665 4.527.463 12.074z" fill="#112240"/><path d="m97.824 248.377-11.081 3.044-3.043-11.078a3.763 3.763 0 0 1 2.632-4.625l3.826-1.051a3.763 3.763 0 0 1 4.625 2.632z" fill="#64FFDA"/><path d="m94.067 253.32 7.159-2.083-3.369-11.578-2.642.769a3.815 3.815 0 0 0-2.688 4.336z" fill="#112240"/><path d="m85.1 255.929 9.624-2.801-3.652-8.084a3.815 3.815 0 0 0-4.54-2.092l-4.801 1.398z" fill="#112240"/><path d="m48.656 141.461 6.3 29.654L82.8 163.91l-17.173-32.122z" fill="#0A192F"/><path d="m20.563 115.691 43.871-4 15.302 48.046H38.611c-9.023 0-16.693-6.592-18.048-15.513z" fill="#0A192F"/><path d="M32.333 38.276h32.535V14.162C64.868 6.341 58.527 0 50.706 0h-4.21c-7.822 0-14.162 6.341-14.162 14.162v24.114z" fill="#1d2445"/><g fill="#233554"><path d="M75.438 127.202H26.115l-8.398-51.854h59.174l3.697 10.807-4.402 14.345z"/><path d="m81.153 56.554 25.807 50.293-11.166 5.148-2.145.096-29.585-52.129zm-60.59 12.943h12.022v57.705H20.563z"/><path d="m91.536 79.895-80.77 11.381v-23.58c0-9.535 7.729-17.264 17.264-17.264h41.201a15 15 0 0 1 13.839 9.214z"/><path d="M11.434 62.914.946 104.142l-.889 5.244 15.141-4.72 13.47-44.722-13.933.339a3.494 3.494 0 0 0-3.301 2.631z"/></g><path d="m56.687 109.031 1.47 7.846 39.885 1.569a9.687 9.687 0 0 0 9.934-8.069l.093-.548a5.129 5.129 0 0 0-4.972-5.982l-9.133-.152a36.895 36.895 0 0 0-6.068.398z" fill="#99644c"/><path d="M52.908 116.68c.406.161.84.244 1.278.244h16.818l.268-.157v-7.431h-7.253a3.443 3.443 0 0 1-.78.099l-2.158-.005-7.9-.794a3.706 3.706 0 0 0-2.577.695l-2.138 1.555-4.215-.495a6.505 6.505 0 0 0-2.86.277l-8.55 2.795a.492.492 0 0 0-.318.619c.003.003.003.007.003.007l.01.028a1.941 1.941 0 0 0 2.131 1.188l8.125-1.42 8.002 1.956z" fill="#99644c"/><g fill="#1d2445" opacity=".1"><path d="m56.687 109.031 1.47 7.846 39.885 1.569a9.687 9.687 0 0 0 9.934-8.069l.093-.548a5.129 5.129 0 0 0-4.972-5.982l-9.133-.152a36.895 36.895 0 0 0-6.068.398z"/><path d="M52.908 116.68c.406.161.84.244 1.278.244h16.818l.268-.157v-7.431h-7.253a3.443 3.443 0 0 1-.78.099l-2.158-.005-7.9-.794a3.706 3.706 0 0 0-2.577.695l-2.138 1.555-4.215-.495a6.505 6.505 0 0 0-2.86.277l-8.55 2.795a.492.492 0 0 0-.318.619c.003.003.003.007.003.007l.01.028a1.941 1.941 0 0 0 2.131 1.188l8.125-1.42 8.002 1.956z"/></g><path d="m51.455 110.031-1.47 7.846-39.885 1.568a9.687 9.687 0 0 1-9.934-8.069l-.093-.548a5.129 5.129 0 0 1 4.972-5.982l9.133-.152c2.03-.035 4.059.099 6.068.398z" fill="#99644c"/><path d="M55.233 117.68c-.406.161-.84.244-1.278.244H37.137l-.268-.157v-7.431h7.253c.254.059.514.099.78.099l2.158-.005 7.9-.794a3.706 3.706 0 0 1 2.577.695l2.138 1.555 4.215-.495a6.505 6.505 0 0 1 2.86.277l8.55 2.795c.259.083.401.36.318.619-.003.003-.003.007-.003.007l-.01.028a1.941 1.941 0 0 1-2.131 1.188l-8.125-1.42-8.002 1.956z" fill="#99644c"/><circle cx="46.429" cy="37.011" fill="#1d2445" r="14.276"/><circle cx="50.615" cy="37.011" fill="#1d2445" r="14.276"/><path d="m46.738 68.374-7.601-19.19v-14.51h17.869v17.879L48.78 68.476c-.443.857-1.687.794-2.042-.102z" fill="#99644c"/><path d="M48.826 42.072v8.236l3.744-7.862z" fill="#1d2445" opacity=".1"/><path d="M61.174 13.58a7.072 7.072 0 0 0-7.072-7.072H46.2c-6.203 0-11.231 5.028-11.231 11.231v12.74c0 1.915.734 3.758 2.051 5.148l6.457 6.819h9.189l6.457-6.819a7.487 7.487 0 0 0 2.051-5.148v-6.002z" fill="#99644c"/><path d="M42.213 13.964h9.888v12.57h-9.888z" fill="#99644c"/><path d="M35.421 30.092h7.394c.493 0 .893-.4.893-.893v-7.342c0-.493-.4-.893-.893-.893h-7.394a4.564 4.564 0 1 0 0 9.128z" fill="#99644c"/><path d="M52.694 3.931h-8.766l1.958 7.378a10.005 10.005 0 0 0 9.671 7.439h6.341v-5.615c-.002-5.082-4.122-9.202-9.204-9.202z" fill="#1d2445"/><path d="M37.869 21.298h-4.485l-.101-2.499h4.586z" fill="#112240"/><path d="M53.318 29.949h-3.743v-9.734z" fill="#1d2445" opacity=".1"/><path d="M45.339 19.799a.36.36 0 0 1 .36.36v4.272a.36.36 0 0 1-.36.36h-6.745a.36.36 0 0 1-.36-.36v-4.632zm0-1h-8.105v5.632c0 .751.609 1.36 1.36 1.36h6.745a1.36 1.36 0 0 0 1.36-1.36v-4.272a1.36 1.36 0 0 0-1.36-1.36zm12.569 1v4.632a.36.36 0 0 1-.36.36h-6.745a.36.36 0 0 1-.36-.36v-4.272a.36.36 0 0 1 .36-.36zm1-1h-8.105a1.36 1.36 0 0 0-1.36 1.36v4.272c0 .751.609 1.36 1.36 1.36h6.745a1.36 1.36 0 0 0 1.36-1.36z" fill="#112240"/><path d="m52.57 32.356-.722 1.766-3.365.66v-2.466zm-8.173 0 .722 1.766 3.364.66v-2.466z" fill="#1d2445" opacity=".1"/><path d="M54.349 18.718c1.067 0 1.932.865 1.932 1.932v6.647c0 2.837 1.361 5.5 3.659 7.162 2.14 1.546 4.447 3.223 4.576 3.352v-9.733h-1.369V13.851h-8.799v4.867z" fill="#1d2445"/><path d="M50.324 21.298h-4.486l-.101-2.499h4.587z" fill="#112240"/></svg></g><g transform="translate(149.0 328.0) rotate(0.0 235.5 103.0) translate(0.0 6.0) scale(1.1295126548583432 1.1259783987056715)"><svg width="416.994" height="164.302" viewBox="0 5.329 416.994 164.302"><g fill="#f3f4f6"><path d="M.158 0h416.837v17.368H.158z"/><path d="M357.134 12.406h22.331v19.849h-22.331z"/><path d="M408.128 182.952 368.299 34.499 328.47 182.952l-7.726-2.073L368.299 3.626l47.555 177.253zM36.39 12.406h22.331v19.849H36.39z"/><path d="M87.384 182.952 47.556 34.499 7.727 182.952 0 180.879 47.556 3.626l47.555 177.253z"/></g></svg></g><g transform="translate(672.0 343.0) rotate(0.0 40.0 89.0) scale(1.0056441779487373 1.0162543604734147)"><svg width="79.551" height="175.153" viewBox="0 0 79.551 175.153"><g fill="#bbbdc7"><path d="m16.295 15.943 1.99.204-16.32 159.009-1.99-.204z"/><path d="M9.759 91.417h59.35v2H9.759z"/><path d="m62.088 15.938 16.271 159.01-1.99.203L60.099 16.14z"/><path d="M24.188 18.81h43.728a8.298 8.298 0 0 0 8.298-8.298V.267H40.916a3 3 0 0 0-3 3v2.336c0 5.097-3.242 9.629-8.066 11.275z"/><path d="m4.277 26.751 15.055-.095 9-12.659H10.759c-4.473.578-7.348 4.338-9.256 8.566-.891 1.973.609 4.202 2.774 4.188z"/></g><path d="M18.848 27.065a3 3 0 0 1-2.424-4.765l2.566-3.527a11.471 11.471 0 0 1 9.248-4.708h4.571c3.592 0 7.211.295 10.757.876l16.547 2.712A11.498 11.498 0 0 0 73.462 6.679l.089-3.75c.039-1.657 1.418-2.98 3.07-2.928a3 3 0 0 1 2.928 3.07l-.09 3.776a17.51 17.51 0 0 1-6.377 12.977 17.51 17.51 0 0 1-13.94 3.75l-16.547-2.712a60.653 60.653 0 0 0-9.786-.797h-4.571a5.45 5.45 0 0 0-4.396 2.238l-2.566 3.527a2.996 2.996 0 0 1-2.428 1.235z" fill="#d2d3da"/></svg></g><g transform="translate(114.0 339.0) rotate(0.0 -40.0 89.5) scale(-1.0056441779487373 1.0219636546333777)"><svg width="79.551" height="175.153" viewBox="0 0 79.551 175.153"><g fill="#bbbdc7"><path d="m16.295 15.943 1.99.204-16.32 159.009-1.99-.204z"/><path d="M9.759 91.417h59.35v2H9.759z"/><path d="m62.088 15.938 16.271 159.01-1.99.203L60.099 16.14z"/><path d="M24.188 18.81h43.728a8.298 8.298 0 0 0 8.298-8.298V.267H40.916a3 3 0 0 0-3 3v2.336c0 5.097-3.242 9.629-8.066 11.275z"/><path d="m4.277 26.751 15.055-.095 9-12.659H10.759c-4.473.578-7.348 4.338-9.256 8.566-.891 1.973.609 4.202 2.774 4.188z"/></g><path d="M18.848 27.065a3 3 0 0 1-2.424-4.765l2.566-3.527a11.471 11.471 0 0 1 9.248-4.708h4.571c3.592 0 7.211.295 10.757.876l16.547 2.712A11.498 11.498 0 0 0 73.462 6.679l.089-3.75c.039-1.657 1.418-2.98 3.07-2.928a3 3 0 0 1 2.928 3.07l-.09 3.776a17.51 17.51 0 0 1-6.377 12.977 17.51 17.51 0 0 1-13.94 3.75l-16.547-2.712a60.653 60.653 0 0 0-9.786-.797h-4.571a5.45 5.45 0 0 0-4.396 2.238l-2.566 3.527a2.996 2.996 0 0 1-2.428 1.235z" fill="#d2d3da"/></svg></g><g transform="translate(533.0 204.0) rotate(0.0 102.0 153.0) scale(0.9998529627995882 0.9979551702883307)"><svg width="204.03" height="306.627" viewBox="0 0 204.03 306.627"><path d="m130.099 166.703 34.008 41.361-13.705 1.304 1.467 15.418-55.866-45.4c-.94-.764-.642-2.268.518-2.615z" fill="#0A192F"/><path d="m164.108 208.064-13.707 1.304 1.468 15.418-24.129-19.609 26.816-8.729z" fill="#64FFDA"/><path d="m132.471 239.817-4.407-1.18a3.715 3.715 0 0 1-.677-6.926l7.324-3.598a17.772 17.772 0 0 0 9.352-11.433l1.569-5.971 3.646.868a1.776 1.776 0 0 1 1.352 1.941l-.31 2.568 4.857.385a8.627 8.627 0 0 0 8.115-4.221l2.586-4.39a1.066 1.066 0 0 1 1.914.159l5.448 14.189.237 3.68z" fill="#112240"/><path d="m174.661 222.796-.208 1.647a7.715 7.715 0 0 1-5.267 6.37l-30.202 9.831c-.581.189-1.2.225-1.799.105l-7.911-1.586 24.868-8.095c.44-.143.807-.453 1.023-.863a8.924 8.924 0 0 1 5.138-4.334l12.97-4.222a1.066 1.066 0 0 1 1.388 1.147zm-77.79-66.435 74.423-36.872 12.236 37.591-75.476 24.569c-6.708 2.183-13.915-1.484-16.099-8.192l-.992-3.047a11.656 11.656 0 0 1 5.908-14.049z" fill="#0A192F"/><path d="m196.113 113.339 6.751 16.106a15 15 0 0 1-1.146 13.799l-33.637 53.346-5.631 31.301a26.474 26.474 0 0 1-6.452 13.105l-21.887 38.01-18.988-8.297 25.815-68.191-2.891-15.744 39.751-80.804 4.481-.586a13.15 13.15 0 0 1 13.834 7.955z" fill="#0A192F"/><path d="m128.332 289.307 11.171-19.519-19.809-11.123-8.155 21.28z" fill="#64FFDA"/><path d="m94.108 305.626-4.407-1.18a3.715 3.715 0 0 1-.677-6.926l10.549-5.182a15.006 15.006 0 0 0 6.344-5.906l8.011-13.735.996.193 3.283 1.671a1.777 1.777 0 0 1 .778 2.39l-1.14 2.24 6.224.602a9.925 9.925 0 0 0 8.809-3.81l1.533-1.983c.645-.835 1.982-.325 1.907.728l-1.203 16.971z" fill="#112240"/><path d="m136.298 288.605-.208 1.647a7.715 7.715 0 0 1-5.267 6.37l-30.202 9.831c-.581.189-1.2.225-1.799.105l-7.911-1.586 24.868-8.095c.44-.143.807-.453 1.023-.863a8.93 8.93 0 0 1 5.138-4.335l12.97-4.222a1.066 1.066 0 0 1 1.388 1.148z" fill="#0A192F"/><path d="m142.885 134.178 53.926-19.088s-6.504-15.556-9.082-20.545c-4.405-8.525-13.601-18.584-21.162-24.491l-25.386-19.832a7.2 7.2 0 0 0-8.625-.178l-42.035 30.13z" fill="#112240"/><path d="m80.794 94.216-.439-11.074a36.316 36.316 0 0 1 14.122-30.203l3.358-2.587c12.869-9.916 30.851-9.744 43.527.417l15.424 12.363-35.575 18.722z" fill="#112240"/><path d="M64.903 119.745c7.809 3.868 17.274.672 21.142-7.136l14.464-29.205c3.027-6.112.526-13.521-5.586-16.548l-1.666-.825a7.704 7.704 0 0 0-10.323 3.485l-23.528 47.506z" fill="#112240"/><g fill="#c78982"><path d="m160.521 148.534-1.341-38.652 16.319-6.541 4.361 16.557-7.463 25.424zm11.434 30.886c.92-.425 1.462-1.569 1.231-2.795l-4.976-18.286-6.147-1.12 9.061 21.796a.647.647 0 0 0 .831.405z"/><path d="M173.325 176.073c.974-.284 1.678-1.334 1.631-2.581l-2.211-18.822-5.913-2.019 5.731 22.9a.646.646 0 0 0 .747.527l.015-.005z"/><path d="M174.539 172.475c.999-.174 1.815-1.141 1.906-2.385l-.117-18.951-5.654-2.661 3.165 23.392a.647.647 0 0 0 .684.607l.016-.002z"/><path d="M175.784 167.394c.963-.099 1.777-.995 1.905-2.217l.374-13.831c.081-2.998-1.515-5.847-4.103-7.324l-1.097-.626 2.269 23.349a.662.662 0 0 0 .635.65c.006-.002.012-.001.017-.001z"/><path d="m177.153 149.831-7.583 4.825c-3.286.979-6.775-.91-7.753-4.195l-1.488-4.997c-.979-3.286.657-11.559 3.943-12.538l9.002 7.648a9.001 9.001 0 0 1 2.476 3.389l1.852 4.438a1.165 1.165 0 0 1-.449 1.43z"/><path d="m160.324 141.327 4.774 16.03-.427-1.202a2.317 2.317 0 0 0-3.293-1.249l-.043.008a2.773 2.773 0 0 0-1.365 1.843l-.786 3.748a5.346 5.346 0 0 1-1.282 2.549c-.459.476-.991.86-1.54 1.023a1.85 1.85 0 0 1-.882.058c-.039-.009-.079-.018-.116-.031a.916.916 0 0 1-.557-1.168l2.852-11.426.064-2.808a10.847 10.847 0 0 1 1.288-4.932l1.234-2.282c.03-.052.055-.104.079-.161z"/><path d="M177.19 148.374c1.617 5.087-.992 10.3-5.827 11.645s-7.89.768-11.684-6.775c-2.398-4.769.992-10.3 5.827-11.645s10.067 1.688 11.684 6.775z"/></g><path d="m178.322 126.421 5.383-23.063c-.191-6.818-9.647-27.622-16.464-27.431l-1.858.052a7.704 7.704 0 0 0-7.486 7.917l1.276 39.975z" fill="#112240"/><path d="M98.562 17.846c-.529-5.562-8.204-9.382-17.143-8.531-7.626.725-13.708 4.615-15.001 9.195-.335 1.186.663 2.331 1.89 2.214z" fill="#002652"/><path d="M96.589 10.098c-.45-4.735-6.985-7.987-14.595-7.263-6.492.618-11.67 3.929-12.771 7.828-.285 1.01.565 1.984 1.609 1.885z" fill="#002652"/><path d="m77.001 23.369 1.867 20.91c.297 2.465 2.911 3.926 5.166 2.886l20.915-9.638z" fill="#c78982"/><path d="m79.913 35.905-3.709.263c-1.546.11-2.481-1.673-1.513-2.883l4.236-5.292zm8.084-26.724.475-.057a3.66 3.66 0 0 1 4.072 3.196l1.521 12.62-16.828 2.028-.426-3.535c-.846-7.025 4.162-13.406 11.186-14.252zm15.651 19.429-17.983 8.274 16.376 35.594c.397.864 1.641.815 1.969-.078l8.788-23.901z" fill="#c78982"/><path d="m76.913 24.572 10.549-1.27 1.615 13.41-10.548 1.27z" fill="#c78982"/><path d="m92.243 6.133 5.006-.476c5.471-.52 10.328 3.493 10.849 8.964l2.356 24.766-31.842 3.029-1.688-17.743c-.889-9.35 5.97-17.651 15.319-18.54z" fill="#c78982"/><path d="m91.16 43.729 2.27-1.198c1.001-.528 2.096.529 1.602 1.548l-3.146 6.494M77.395 27.219l2.423-.231c.281-.027.562.059.78.239l1.104.913c.732.605.367 1.793-.578 1.883l-3.516.334" fill="#1d2445" opacity=".1"/><path d="m90.893 29.666.357 3.752a8.699 8.699 0 0 1-4.479 8.452 4.936 4.936 0 0 0-5.38-4.446l-3.224.307.651 6.839c.237 2.493 2.91 3.966 5.144 2.834l8.855-4.486a3.554 3.554 0 0 0 1.932-3.507L93.52 26.488a2.915 2.915 0 0 0-2.627 3.178z" fill="#002652"/><path d="m82.403 42.977-2.383.794a1.038 1.038 0 0 1-1.362-.887l-.28-2.946 2.335-.222a2.274 2.274 0 0 1 2.48 2.049 1.163 1.163 0 0 1-.79 1.212z" fill="#c78982"/><path d="m107.436 37.23-7.532 4.243-3.167-33.295a3.553 3.553 0 0 1 3.201-3.874l1.592-.151c7.582-.721 14.026 5.479 13.597 13.083l-.474 8.409a14.215 14.215 0 0 1-7.217 11.585z" fill="#002652"/><path d="m95.554 25.087-15.685 1.492-.6-2.561 16.038-1.525z" fill="#64FFDA"/><path d="M104.09 8.414 91.708 9.592l2.438 25.63a7.108 7.108 0 0 0 7.749 6.403l5.306-.505z" fill="#002652"/><path d="M95.744 6.87 81.165 8.256l.791 8.313a7.108 7.108 0 0 0 7.749 6.403l7.503-.714z" fill="#002652"/><path d="M79.18 25.032a.066.066 0 0 1 .072.059l.489 5.138a.066.066 0 0 1-.06.072l-3.43.326a.066.066 0 0 1-.072-.06l-.489-5.137a.067.067 0 0 1 .06-.072zm-.095-.996-3.43.326a1.066 1.066 0 0 0-.96 1.162l.489 5.138a1.067 1.067 0 0 0 1.162.961l3.43-.326a1.066 1.066 0 0 0 .96-1.163l-.489-5.138a1.065 1.065 0 0 0-1.162-.96z" fill="#64FFDA"/><path d="M103.615 25.933c-.529-5.562 6.288-10.76 15.227-11.61 7.626-.725 14.332 1.948 16.466 6.202.553 1.102-.212 2.414-1.439 2.53z" fill="#002652"/><path d="M98.273 33.581c-.492-5.171 5.847-10.004 14.157-10.795 7.09-.674 13.325 1.811 15.309 5.766.514 1.024-.197 2.244-1.338 2.353z" fill="#002652"/><path d="M102.579 37.456c-4.314.41-6.191-5.273-2.503-7.548 2.008-1.239 4.503-2.09 7.255-2.351 6.164-.586 11.622 1.973 13.398 5.948.46 1.029-.144 2.239-1.135 2.333z" fill="#002652"/><path d="M100.751 41.763c-3.178.302-4.561-3.885-1.844-5.561 1.479-.913 3.318-1.54 5.345-1.732 4.541-.432 8.562 1.454 9.87 4.382.339.758-.106 1.65-.837 1.719zm-2.257-24.625c-.529-5.562 6.288-10.76 15.227-11.61 7.626-.725 14.332 1.948 16.466 6.202.553 1.102-.212 2.414-1.439 2.53z" fill="#002652"/><path d="M84.057 11.729C83.528 6.167 90.345.969 99.284.119c7.626-.725 14.332 1.948 16.466 6.202.553 1.102-.212 2.414-1.439 2.53z" fill="#002652"/><path d="m13.283 112.899 6.726 4.867c3.866 1.847 8.308 1.355 11.69-.998a11.465 11.465 0 0 0 2.015-1.744c.077-.142.131-.287.188-.418l.201-.471 9.168-9.107-4.813.5-14.397 1.681-1.15-.562a3.825 3.825 0 0 1-.645.08l-8.678.542c-.931.061-.305 5.63-.305 5.63z" fill="#c78982"/><path d="M3.699 114.977c.025-.051.072-.282.072-.282s.832-2.879.843-2.87c.083-.272.33-1.081.449-1.443.095-.334.219-.591.417-.876a89.708 89.708 0 0 1 2.33-3.44c.497-.648 1.05-1.143 1.731-1.514 1.024-.733 5.106-3.157 5.106-3.157l4.026 4.477-3.986.875 1.056 5.619s.474.731 1.318 2.143-.359 3.809-1.274 2.679l-1.541-1.806.025-.009a14.793 14.793 0 0 0-.575-.694 2.918 2.918 0 0 1-.45-.783c-.183-.515-.535-1.351-.86-2.132l-.128 1.157s.223.99.718 2.742c.494 1.751-1.555 3.935-2.197 2.493l-.965-2.356c-.136-.38-.268-.633-.43-1.089a3.034 3.034 0 0 1-.276-1.016 142.59 142.59 0 0 1-.263-2.722l-.64.903-.803 1.955c-.221.463-.493.903-.895 1.217-1.231.995-2.817.746-2.808-.071z" fill="#c78982"/><path d="M3.699 114.977c.025-.051.072-.282.072-.282s.832-2.879.843-2.87c.083-.272.33-1.081.449-1.443.095-.334.219-.591.417-.876a89.708 89.708 0 0 1 2.33-3.44c.497-.648 1.05-1.143 1.731-1.514 1.024-.733 5.106-3.157 5.106-3.157l4.026 4.477-3.986.875 1.056 5.619s.474.731 1.318 2.143-.359 3.809-1.274 2.679l-1.541-1.806.025-.009a14.793 14.793 0 0 0-.575-.694 2.918 2.918 0 0 1-.45-.783c-.183-.515-.535-1.351-.86-2.132l-.128 1.157s.223.99.718 2.742c.494 1.751-1.555 3.935-2.197 2.493l-.965-2.356c-.136-.38-.268-.633-.43-1.089a3.034 3.034 0 0 1-.276-1.016 142.59 142.59 0 0 1-.263-2.722l-.64.903-.803 1.955c-.221.463-.493.903-.895 1.217-1.231.995-2.817.746-2.808-.071z" fill="#1d2445" opacity=".1"/><path d="M12.511 111.566s-3.66-.54-7.064-1.085c-3.405-.545-2.369-3.653.309-3.706l7.142-.141z" fill="#c78982"/><path d="m.026 108.62.024-.052.025-.051.023-.026 1.337-2.17c.446-.672.816-1.317 1.088-1.757.199-.284.373-.518.674-.754.753-.652 2.435-2.064 3.163-2.665.603-.471 1.284-.842 2.047-.985l9.096-1.992c1.474-.31 3.065.194 4.008 1.4l5.204 6.328c1.414 1.809 1.99 2.208 4.139 2.472l13.085-.294 1.269 11.313c-.164.014-15.765-.528-15.921-.515.326-.006-1.277.085-1.277.085-3.089.073-3.072-.103-5.244-.382l-.886-.147c-4.198-.541-5.184-6.144-9.371-6.858l.34-4.94 1.734-.06c1.734-.06 2.837-2.378 1.765-2.382s-8.012-.02-8.012-.02l-3.138 2.614-1.294 1.658a3.104 3.104 0 0 1-1.206.943c-1.469.693-2.912.007-2.672-.763z" fill="#c78982"/><path d="m38.56 119.491 31.298 1.816c6.461.375 11.857-4.863 11.674-11.332l-.248-8.775-16.997.685-26.511 3.64z" fill="#112240"/></svg></g><g transform="translate(78.0 211.0) rotate(0.0 89.5 153.0) scale(0.9994583940546184 0.9991575730266639)"><svg width="179.097" height="306.258" viewBox="0 0 179.097 306.258"><path d="m78.822 266.031 8.983 23.992.542.338 13.979-4.676-19.435-94.065-.102-.016c-9.627-1.554-18.253 6.125-17.827 15.866.181 4.126.384 8.258.446 12.388.06 4.041.037 8.134.927 12.098 1.271 5.661 3.839 10.975 5.865 16.388l6.611 17.657.011.03z" fill="#ed956e"/><path d="M85.098 283.412 81.92 290.5c-1.603 3.575 1.013 7.615 4.931 7.615h6.358s16.649 8.061 18.252 8.112c2.202.07 21.801 0 21.801 0v-.771a5.404 5.404 0 0 0-4.773-5.367l-12.465-1.466-15.21-17.238z" fill="#ed956e"/><path d="M85.098 283.412 81.92 290.5c-1.603 3.575 1.013 7.615 4.931 7.615h6.358s16.65 8.051 18.252 8.112c1.841.07 21.801 0 21.801 0v-.771a5.404 5.404 0 0 0-4.773-5.367l-12.465-1.466-22.354-5.514z" fill="#0A192F"/><path d="M94.437 295.817H82.389l1.479 10.186h10.569zM8.824 144.478l50.347 57.135c3.523 3.998 9.621 4.383 13.619.86l7.68-6.767a7.492 7.492 0 0 0 1.337-9.69l-10.675-16.497-40.192-62.114c-3.77-5.167-11.164-5.977-15.962-1.749l-3.919 3.454C.674 118.259-.326 134.094 8.824 144.478z" fill="#0A192F"/><path d="m66.858 162.48-29.04-51.752-15.175-15.104-15.294 13.477c-8.986 7.918-9.851 21.622-1.933 30.607l38.151 43.295z" fill="#0A192F"/><path d="m79.063 38.62 15.864 5.828 9.051-24.638-25.807-9.48-5.398 14.695c-2.017 5.491.799 11.577 6.29 13.595z" fill="#ed956e"/><path d="M77.886 66.478 66.444 52.364l9.034-22.933 7.992 3.253 7.011 2.854z" fill="#ed956e"/><path d="m107.447 22.031-2.305 6.275c-.084.228-.21.438-.373.618l-1.592 1.763a1.898 1.898 0 0 0-.269 2.16l.334.631-4.458 12.135a3.798 3.798 0 0 1-4.889 2.25L71.411 39.5l2.91-7.635z" fill="#ed956e"/><path d="m97.454 39.559 5.868-.748a1.898 1.898 0 0 0 1.426-2.794l-3.584-6.557z" fill="#ed956e"/><path d="m86.459 44.87-1.07-.441a2 2 0 0 0-2.76 1.928l.281 7.118m21.493-24.949-3.155-1.159a1.143 1.143 0 0 0-.871.035l-1.389.643c-.921.426-.867 1.753.086 2.103l3.668 1.347m-5.235 7.782.115.944c.063.517.335.986.754 1.296l1.438 1.066.811-2.209z" fill="#0A192F" opacity=".07"/><path d="m101.196 4.936-.533-.196a4.35 4.35 0 0 0-5.583 2.583l-1.788 4.868-.502 1.365-2.919 7.947 18.908 6.946 1.459-3.972c2.899-7.893-1.149-16.642-9.042-19.541z" fill="#0A192F"/><path d="m92.126 22.102-21.247-7.805 1.739-4.735C75.397 1.999 83.78-1.88 91.344.899l4.474 1.643a3.281 3.281 0 0 1 1.948 4.21z" fill="#0A192F"/><path d="m42.113 118.65-37.874-.291H1.153c.389-7.879 6.916-15.295 12.68-20.679l14.465-13.507a44.558 44.558 0 0 0 10.388-14.651l14.817-22.875a13.864 13.864 0 0 1 11.636-6.327h.573c7.575 0 13.716 6.141 13.716 13.716v21.241c0 5.098-2.92 9.746-7.513 11.958L60.48 92.741z" fill="#233554"/><path d="m80.895 36.927-5.061-1.859a7.784 7.784 0 0 1-4.622-9.99l2.428-6.608a4.05 4.05 0 0 0-2.405-5.199l-.947-.348 1.442-3.925 26.281 9.654z" fill="#0A192F"/><path d="m86.542 32.398 3.169 1.164 2.136-6.747a4.279 4.279 0 0 0-2.604-5.308l-.23-.084c-2.207-.811-4.556.789-4.611 3.139l-.107 4.536a3.434 3.434 0 0 0 2.247 3.3zm19.29 67.96 46.449.692.154-9.442-31.591-5.21c-1.661-.247-6.167-.723-7.845-.748l-11.165-.867-.188 11.72c-.031 2.099 2.088 3.824 4.186 3.855z" fill="#ed956e"/><path d="M102.55 99.009 69.066 66c-3.558-3.507-7.627-14.219-4.161-17.817l.151-.284c3.729-3.871 9.83-3.41 13.333.667l31.781 36.723 3.144.314-5.345 13.676c-1.045 2.059-3.775 1.351-5.419-.27z" fill="#233554"/><path d="m158.807 94.215 6.257 3.427c.677.37 4.7 4.841 4.7 4.841l-10.346 1.083c-.81.036-9.078-.58-8.97-3.329l-3.108-4.752c-1.631-1.903.012-4.804 2.483-4.383l3.692.629c2.656.538 3.746 1.636 5.292 2.484z" fill="#ed956e"/><path d="M179.022 108.156c-.47.626-1.42.85-2.309.478l-13.004-6.71.147-4.823 14.995 10.361a.498.498 0 0 1 .178.683z" fill="#ed956e"/><path d="M179.022 108.156c-.47.626-1.42.85-2.309.478l-13.004-6.71.147-4.823 14.995 10.361a.498.498 0 0 1 .178.683z" fill="#64FFDA" opacity=".1"/><g fill="#ed956e"><path d="M167.955 101.01c.368.755.452 1.618.234 2.429l-.927 3.465-.356 1.336a.485.485 0 0 1-.568.398c-.002-.01-.002-.01-.012-.008-.732-.222-1.244-1.023-1.202-1.966l.912-6.887c.084-.634.94-.773 1.22-.198z"/><path d="M166.474 108.787a1.03 1.03 0 0 1-.693.211l-4.494-.278-1.38-.085a.485.485 0 0 1-.503-.478c.009-.004.009-.004.006-.013.073-.761.757-1.422 1.689-1.568l4.428-.301c1.385-.093 2.049 1.669.947 2.512z"/><path d="m164.485 108.058-4.88-.302-1.38-.085a.485.485 0 0 1-.503-.478c.009-.004.009-.004.006-.013.073-.761.757-1.422 1.689-1.568l5.757-.391c.988-.067 1.462 1.19.675 1.792z"/><path d="m167.024 99.376-1.042 6.979-2.311-.562a.485.485 0 0 1-.568.398c-.002-.01-.002-.01-.012-.008-.732-.222-1.244-1.023-1.202-1.966l.886-6.693c.092-.692 1.947-.483 2.604.402z"/><path d="m162.931 106.576-4.88-.302-1.38-.085a.485.485 0 0 1-.503-.478c.009-.004.009-.004.006-.013.073-.761.757-1.422 1.689-1.568l5.757-.391c.988-.067 1.462 1.19.676 1.792z"/></g><path d="m84.39 189.232 2.666 11.667-30 9.667-27.666-46 35.023-5.713zM57.555 48.958c6.44 0 11.661-5.221 11.661-11.661V20.562A12.713 12.713 0 0 1 77.71 8.569V3.413h-7.577c-6.947 0-12.579 5.632-12.579 12.579v32.966z" fill="#0A192F"/><path d="m77.163 3.026-4.37 11.898" fill="none" stroke="#0A192F" stroke-linecap="round" stroke-miterlimit="10" stroke-width="3"/></svg></g><g transform="translate(552.0 294.0) rotate(0.0 -43.5 19.0) scale(-0.9977178637369695 0.9827501487056146)"><svg width="87.199" height="38.667" viewBox="0 0 87.199 38.667"><path d="M39.878 38.667H3a3 3 0 0 1-3-3h42.878a3 3 0 0 1-3 3z" fill="#0A192F"/><path d="M73.459 38.667h-57c-1.105 0-1.716-.895-1.365-2L26.1 2c.351-1.105 1.53-2 2.635-2h57c1.105 0 1.716.895 1.365 2L76.094 36.667c-.35 1.104-1.53 2-2.635 2z" fill="#0A192F"/><path d="M50.396 24.167h-1.667c-2.209 0-3.431-1.791-2.73-4l.529-1.667c.701-2.209 3.061-4 5.27-4h1.667c2.209 0 3.431 1.791 2.73 4l-.529 1.667c-.702 2.209-3.061 4-5.27 4z" fill="#64FFDA"/></svg></g><g transform="translate(345.0 297.0) rotate(0.0 30.0 19.0) scale(0.9951569030717177 0.9893772130806082)"><svg width="60.292" height="38.408" viewBox="0 0 60.292 38.408"><path d="M3 38.408h54.292a3 3 0 0 0 3-3V3a3 3 0 0 0-3-3H3a3 3 0 0 0-3 3v32.408a3 3 0 0 0 3 3z" fill="#0A192F"/><path d="M31.612 23.67H28.68a3 3 0 0 1-3-3v-2.932a3 3 0 0 1 3-3h2.932a3 3 0 0 1 3 3v2.932a3 3 0 0 1-3 3z" fill="#162438"/></svg></g><g transform="translate(219.0 295.0) rotate(0.0 33.0 19.5) scale(0.9999545475205672 0.9964230965763924)"><svg width="66.003" height="39.14" viewBox="0 0 66.003 39.14"><path d="M36.144 36.415h6.404L64.773 0h-6.404z" fill="#0A192F"/><g fill="#233554"><path d="M39.878 39.14H3a3 3 0 0 1-3-3h42.878a3 3 0 0 1-3 3z"/><path d="M65.557 4.128 46.202 35.519a3 3 0 0 1-4.128.979L64.577 0a3 3 0 0 1 .98 4.128z"/></g></svg></g></svg>