<svg xmlns="http://www.w3.org/2000/svg" xmlns:xlink="http://www.w3.org/1999/xlink" viewBox="0,0,256,256" width="100px" height="100px" fill-rule="nonzero"><g fill="none" fill-rule="nonzero" stroke="none" stroke-width="1" stroke-linecap="butt" stroke-linejoin="miter" stroke-miterlimit="10" stroke-dasharray="" stroke-dashoffset="0" font-family="none" font-weight="none" font-size="none" text-anchor="none" style="mix-blend-mode: normal"><g transform="scale(2.56,2.56)"><path d="M88.724,55.551c0.3,-0.616 0.566,-1.264 0.796,-1.943c2.633,-7.77 -1.349,-17.078 -9.733,-19.325c-0.906,-11.383 -8.906,-19.193 -17.941,-20.525c-10.341,-1.525 -19.814,5.044 -22.966,15.485c-3.799,-1.346 -7.501,-1.182 -10.99,0.857c-1.583,0.732 -3.031,1.812 -4.33,3.233c-1.907,2.086 -3.147,4.719 -3.652,7.495c-0.748,0.118 -1.483,0.236 -2.176,0.484c-4.04,1.449 -6.589,4.431 -7.288,8.923c-0.435,2.797 0.443,5.587 0.933,6.714c1.935,4.455 6.422,6.98 10.981,6.312c0.227,-0.033 0.557,0.069 0.752,0.233c0.241,7.12 3.698,13.417 8.884,17.014c8.321,5.772 19.027,3.994 25.781,-3.921c2.894,2.96 6.338,4.398 10.384,3.876c4.023,-0.519 7.147,-2.739 9.426,-6.349c1.053,0.283 2.051,0.691 3.083,0.804c4.042,0.442 7.324,-1.165 9.732,-4.8c0.922,-1.391 1.794,-3.194 1.793,-6.354c0.001,-3.256 -1.292,-6.224 -3.469,-8.213z" fill="#c7ede6"></path><path d="M70.988,51.72c0,0 11.691,0 11.762,0c2.7,0 4.888,-2.189 4.888,-4.889c0,-2.355 -1.666,-4.321 -3.884,-4.784c0.026,-0.206 0.043,-0.415 0.043,-0.628c0,-2.796 -2.267,-5.063 -5.063,-5.063c-1.651,0 -3.113,0.794 -4.037,2.017c-0.236,-3.113 -3.017,-5.514 -6.27,-5.116c-2.379,0.291 -4.346,2.13 -4.784,4.486c-0.14,0.756 -0.126,1.489 0.014,2.177c-0.638,-0.687 -1.546,-1.119 -2.557,-1.119c-1.85,0 -3.361,1.441 -3.48,3.261c-0.84,-0.186 -1.754,-0.174 -2.717,0.188c-1.84,0.691 -3.15,2.423 -3.227,4.387c-0.109,2.789 2.12,5.085 4.885,5.085c0.21,0 0.948,0 1.118,0h10.151" fill="#fdfcef"></path><path d="M82.75,52.22h-11.762c-0.276,0 -0.5,-0.224 -0.5,-0.5c0,-0.276 0.224,-0.5 0.5,-0.5h11.762c2.419,0 4.388,-1.969 4.388,-4.389c0,-2.067 -1.466,-3.873 -3.486,-4.295c-0.255,-0.053 -0.427,-0.294 -0.394,-0.553c0.023,-0.186 0.039,-0.373 0.039,-0.564c0,-2.517 -2.047,-4.563 -4.562,-4.563c-1.439,0 -2.766,0.663 -3.639,1.818c-0.125,0.165 -0.342,0.237 -0.539,0.178c-0.2,-0.059 -0.342,-0.234 -0.358,-0.441c-0.104,-1.377 -0.778,-2.671 -1.85,-3.549c-1.083,-0.888 -2.457,-1.28 -3.86,-1.109c-2.166,0.266 -3.956,1.943 -4.354,4.081c-0.123,0.669 -0.119,1.338 0.014,1.986c0.045,0.219 -0.062,0.441 -0.262,0.544c-0.197,0.104 -0.442,0.061 -0.595,-0.104c-0.575,-0.618 -1.353,-0.959 -2.19,-0.959c-1.569,0 -2.879,1.227 -2.981,2.793c-0.01,0.146 -0.082,0.28 -0.199,0.367c-0.116,0.088 -0.269,0.119 -0.407,0.089c-0.844,-0.186 -1.639,-0.131 -2.434,0.167c-1.669,0.628 -2.836,2.21 -2.902,3.938c-0.048,1.207 0.386,2.35 1.221,3.218c0.835,0.869 1.959,1.348 3.164,1.348h11.269c0.276,0 0.5,0.224 0.5,0.5c0,0.276 -0.224,0.5 -0.5,0.5h-11.27c-1.479,0 -2.859,-0.588 -3.885,-1.654c-1.025,-1.065 -1.558,-2.469 -1.5,-3.95c0.083,-2.125 1.51,-4.068 3.551,-4.835c0.801,-0.301 1.629,-0.4 2.468,-0.299c0.377,-1.822 1.997,-3.182 3.905,-3.182c0.684,0 1.354,0.18 1.943,0.51c0,-0.385 0.035,-0.771 0.107,-1.159c0.476,-2.562 2.62,-4.573 5.215,-4.891c1.675,-0.204 3.32,0.266 4.615,1.328c1.004,0.823 1.716,1.95 2.038,3.192c1.012,-0.915 2.319,-1.425 3.714,-1.425c3.067,0 5.562,2.496 5.562,5.563c0,0.083 -0.002,0.166 -0.007,0.248c2.255,0.673 3.848,2.776 3.848,5.164c0.001,2.972 -2.416,5.389 -5.387,5.389z" fill="#0a192f"></path><path d="M68.155,40.951c-1.808,-0.119 -3.365,1.13 -3.476,2.789c-0.014,0.206 -0.005,0.409 0.025,0.606c-0.349,-0.394 -0.865,-0.661 -1.458,-0.7c-1.085,-0.071 -2.022,0.645 -2.158,1.62c-0.197,-0.054 -0.403,-0.09 -0.616,-0.104c-1.582,-0.104 -2.944,0.989 -3.042,2.441" fill="#fdfcef"></path><path d="M57.43,47.853c-0.006,0 -0.011,0 -0.017,-0.001c-0.138,-0.009 -0.242,-0.128 -0.232,-0.266c0.106,-1.586 1.562,-2.779 3.308,-2.674c0.136,0.009 0.272,0.026 0.408,0.053c0.274,-0.968 1.248,-1.65 2.366,-1.567c0.425,0.027 0.823,0.159 1.163,0.382c0.001,-0.02 0.002,-0.038 0.004,-0.057c0.119,-1.794 1.788,-3.155 3.741,-3.021c0.138,0.009 0.242,0.128 0.232,0.266c-0.008,0.137 -0.111,0.27 -0.266,0.232c-1.666,-0.113 -3.108,1.037 -3.21,2.557c-0.013,0.183 -0.005,0.368 0.023,0.552c0.017,0.109 -0.04,0.218 -0.141,0.265c-0.102,0.045 -0.221,0.021 -0.294,-0.061c-0.323,-0.365 -0.78,-0.584 -1.286,-0.617c-0.943,-0.036 -1.776,0.556 -1.895,1.404c-0.011,0.071 -0.051,0.135 -0.11,0.175c-0.059,0.04 -0.136,0.051 -0.203,0.032c-0.188,-0.051 -0.378,-0.083 -0.567,-0.097c-1.457,-0.088 -2.688,0.897 -2.776,2.209c-0.008,0.133 -0.117,0.234 -0.248,0.234z" fill="#0a192f"></path><path d="M84.729,42.62c-1.699,-0.801 -3.664,-0.234 -4.389,1.267c-0.09,0.186 -0.157,0.379 -0.201,0.574" fill="#fdfcef"></path><path d="M80.14,44.711c-0.018,0 -0.036,-0.002 -0.055,-0.006c-0.135,-0.03 -0.22,-0.164 -0.189,-0.299c0.049,-0.215 0.122,-0.426 0.219,-0.627c0.784,-1.622 2.904,-2.24 4.722,-1.386c0.125,0.06 0.179,0.208 0.12,0.333c-0.06,0.126 -0.21,0.177 -0.333,0.12c-1.573,-0.743 -3.394,-0.225 -4.059,1.149c-0.08,0.167 -0.141,0.342 -0.181,0.52c-0.026,0.117 -0.13,0.196 -0.244,0.196z" fill="#0a192f"></path><path d="M18.389,47.587h-10.03c-0.276,0 -0.5,-0.224 -0.5,-0.5c0,-0.276 0.224,-0.5 0.5,-0.5h10.03c0.276,0 0.5,0.224 0.5,0.5c0,0.276 -0.224,0.5 -0.5,0.5zM21.27,47.587h-1.445c-0.276,0 -0.5,-0.224 -0.5,-0.5c0,-0.276 0.224,-0.5 0.5,-0.5h1.445c0.276,0 0.5,0.224 0.5,0.5c0,0.276 -0.224,0.5 -0.5,0.5zM25.325,47.587h-2.546c-0.276,0 -0.5,-0.224 -0.5,-0.5c0,-0.276 0.224,-0.5 0.5,-0.5h2.546c0.276,0 0.5,0.224 0.5,0.5c0,0.276 -0.224,0.5 -0.5,0.5zM25.325,49.452h-9.616c-0.276,0 -0.5,-0.224 -0.5,-0.5c0,-0.276 0.224,-0.5 0.5,-0.5h9.616c0.276,0 0.5,0.224 0.5,0.5c0,0.276 -0.224,0.5 -0.5,0.5zM13.977,49.452h-0.58c-0.276,0 -0.5,-0.224 -0.5,-0.5c0,-0.276 0.224,-0.5 0.5,-0.5h0.58c0.276,0 0.5,0.224 0.5,0.5c0,0.276 -0.224,0.5 -0.5,0.5zM11.6,49.452h-1.456c-0.276,0 -0.5,-0.224 -0.5,-0.5c0,-0.276 0.224,-0.5 0.5,-0.5h1.456c0.276,0 0.5,0.224 0.5,0.5c0,0.276 -0.224,0.5 -0.5,0.5zM20.736,45.722h-5.027c-0.276,0 -0.5,-0.224 -0.5,-0.5c0,-0.276 0.224,-0.5 0.5,-0.5h5.027c0.276,0 0.5,0.224 0.5,0.5c0,0.276 -0.224,0.5 -0.5,0.5zM20.736,43.857h-1.257c-0.276,0 -0.5,-0.224 -0.5,-0.5c0,-0.276 0.224,-0.5 0.5,-0.5h1.257c0.276,0 0.5,0.224 0.5,0.5c0,0.276 -0.224,0.5 -0.5,0.5zM17.467,51.316h-1.759c-0.276,0 -0.5,-0.224 -0.5,-0.5c0,-0.276 0.224,-0.5 0.5,-0.5h1.759c0.276,0 0.5,0.224 0.5,0.5c0,0.276 -0.223,0.5 -0.5,0.5zM71.567,21.31h-10.03c-0.276,0 -0.5,-0.224 -0.5,-0.5c0,-0.276 0.224,-0.5 0.5,-0.5h10.03c0.276,0 0.5,0.224 0.5,0.5c0,0.276 -0.224,0.5 -0.5,0.5zM74.448,21.31h-1.445c-0.276,0 -0.5,-0.224 -0.5,-0.5c0,-0.276 0.224,-0.5 0.5,-0.5h1.445c0.276,0 0.5,0.224 0.5,0.5c0,0.276 -0.224,0.5 -0.5,0.5zM78.502,21.31h-2.546c-0.276,0 -0.5,-0.224 -0.5,-0.5c0,-0.276 0.224,-0.5 0.5,-0.5h2.546c0.276,0 0.5,0.224 0.5,0.5c0,0.276 -0.223,0.5 -0.5,0.5zM76.477,17.58h-9.616c-0.276,0 -0.5,-0.224 -0.5,-0.5c0,-0.276 0.224,-0.5 0.5,-0.5h9.616c0.276,0 0.5,0.224 0.5,0.5c0,0.276 -0.224,0.5 -0.5,0.5zM65.129,17.58h-0.58c-0.276,0 -0.5,-0.224 -0.5,-0.5c0,-0.276 0.224,-0.5 0.5,-0.5h0.58c0.276,0 0.5,0.224 0.5,0.5c0,0.276 -0.223,0.5 -0.5,0.5zM62.752,17.58h-1.456c-0.276,0 -0.5,-0.224 -0.5,-0.5c0,-0.276 0.224,-0.5 0.5,-0.5h1.456c0.276,0 0.5,0.224 0.5,0.5c0,0.276 -0.223,0.5 -0.5,0.5zM73.913,19.445h-5.027c-0.276,0 -0.5,-0.224 -0.5,-0.5c0,-0.276 0.224,-0.5 0.5,-0.5h5.027c0.276,0 0.5,0.224 0.5,0.5c0,0.276 -0.223,0.5 -0.5,0.5z" fill="#0a192f"></path><path d="M73.913,17.58h-1.257c-0.276,0 -0.5,-0.224 -0.5,-0.5c0,-0.276 0.224,-0.5 0.5,-0.5h1.257c0.276,0 0.5,0.224 0.5,0.5c0,0.276 -0.223,0.5 -0.5,0.5zM67.431,19.445h-1.759c-0.276,0 -0.5,-0.224 -0.5,-0.5c0,-0.276 0.224,-0.5 0.5,-0.5h1.759c0.276,0 0.5,0.224 0.5,0.5c0,0.276 -0.224,0.5 -0.5,0.5z" fill="#0a192f"></path><path d="M53.445,69.809v4.713l1.885,-1.571l1.885,1.571v-4.713z" fill="#f1bc19"></path><path d="M53.445,75.022c-0.072,0 -0.145,-0.016 -0.212,-0.047c-0.176,-0.083 -0.288,-0.259 -0.288,-0.453v-4.713c0,-0.276 0.224,-0.5 0.5,-0.5h3.771c0.276,0 0.5,0.224 0.5,0.5v4.713c0,0.194 -0.112,0.37 -0.288,0.453c-0.175,0.081 -0.383,0.057 -0.532,-0.069l-1.564,-1.304l-1.565,1.304c-0.094,0.077 -0.208,0.116 -0.322,0.116zM53.945,70.309v3.146l1.065,-0.888c0.186,-0.154 0.455,-0.154 0.641,0l1.064,0.888v-3.146zM38.701,67.042c-0.207,0 -0.375,-0.168 -0.375,-0.375v-1.885c0,-0.207 0.168,-0.375 0.375,-0.375c0.207,0 0.375,0.168 0.375,0.375v1.885c0,0.207 -0.168,0.375 -0.375,0.375zM38.701,68.927c-0.207,0 -0.375,-0.168 -0.375,-0.375v-0.629c0,-0.207 0.168,-0.375 0.375,-0.375c0.207,0 0.375,0.168 0.375,0.375v0.629c0,0.207 -0.168,0.375 -0.375,0.375z" fill="#0a192f"></path><path d="M37.1,31.398c-0.945,0 -1.782,-0.518 -2.36,-1.322v36.823c0,1.838 1.49,3.328 3.328,3.328h24.322c3.111,0 5.656,-2.545 5.656,-5.656v-33.173z" fill="#233554"></path><path d="M62.39,70.926h-24.323c-2.221,0 -4.027,-1.807 -4.027,-4.027v-36.823c0,-0.304 0.196,-0.573 0.485,-0.666c0.293,-0.096 0.606,0.011 0.783,0.258c0.478,0.664 1.114,1.03 1.792,1.03h30.945c0.387,0 0.7,0.313 0.7,0.7v33.173c0,3.504 -2.851,6.355 -6.355,6.355zM35.44,31.647v35.252c0,1.448 1.179,2.627 2.627,2.627h24.323c2.732,0 4.955,-2.223 4.955,-4.955v-32.473h-30.245c-0.581,0 -1.147,-0.157 -1.66,-0.451z" fill="#0a192f"></path><path d="M38.701,69.495h-1.025c-1.26,0 -2.282,-1.022 -2.282,-2.282v-40.451h3.307z" fill="#112240"></path><path d="M38.701,63.9c-0.207,0 -0.375,-0.168 -0.375,-0.375v-36.449c0,-0.207 0.168,-0.375 0.375,-0.375c0.207,0 0.375,0.168 0.375,0.375v36.449c0,0.207 -0.168,0.375 -0.375,0.375z" fill="#0a192f"></path><path d="M37.529,25.457c-1.677,0 -3.037,1.323 -3.037,2.98c0,1.646 1.357,2.98 3.037,2.98h30.517c0,0 -1.017,-1.568 -1.017,-3.032c0,-1.464 1.017,-2.927 1.017,-2.927h-30.517z" fill="#fdfcef"></path><path d="M68.045,32.016h-30.516c-2.005,0 -3.636,-1.605 -3.636,-3.58c0,-1.974 1.631,-3.579 3.636,-3.579h30.517c0.223,0 0.428,0.124 0.531,0.321c0.103,0.197 0.089,0.437 -0.038,0.62c-0.009,0.013 -0.91,1.333 -0.91,2.586c0,1.056 0.665,2.312 0.921,2.706c0.119,0.185 0.128,0.42 0.023,0.612c-0.106,0.194 -0.308,0.314 -0.528,0.314zM37.529,26.056c-1.344,0 -2.437,1.067 -2.437,2.38c0,1.313 1.093,2.381 2.437,2.381h29.516c-0.297,-0.646 -0.615,-1.546 -0.615,-2.433c0,-0.865 0.302,-1.712 0.593,-2.328zM38.701,68.298c-0.207,0 -0.375,-0.168 -0.375,-0.375v-3.142c0,-0.207 0.168,-0.375 0.375,-0.375c0.207,0 0.375,0.168 0.375,0.375v3.142c0,0.208 -0.168,0.375 -0.375,0.375z" fill="#0a192f"></path><path d="M67.088,27.226h-27.77c-0.083,0 -0.15,-0.067 -0.15,-0.15c0,-0.083 0.067,-0.15 0.15,-0.15h27.771c0.083,0 0.15,0.067 0.15,0.15c0,0.083 -0.068,0.15 -0.151,0.15zM67.129,28.577h-30.082c-0.083,0 -0.15,-0.067 -0.15,-0.15c0,-0.083 0.067,-0.15 0.15,-0.15h30.082c0.083,0 0.15,0.067 0.15,0.15c0,0.083 -0.067,0.15 -0.15,0.15zM67.088,29.986h-27.77c-0.083,0 -0.15,-0.067 -0.15,-0.15c0,-0.083 0.067,-0.15 0.15,-0.15h27.771c0.083,0 0.15,0.067 0.15,0.15c0,0.083 -0.068,0.15 -0.151,0.15z" fill="#0a192f"></path><path d="M48.403,41.791h1.403v5.913h-1.379l-0.072,-0.863c-0.336,0.695 -1.259,1.031 -1.919,1.043c-1.751,0.012 -3.046,-1.067 -3.046,-3.142c0,-2.039 1.354,-3.106 3.082,-3.095c0.791,0 1.547,0.372 1.883,0.959zM44.853,44.743c0,1.127 0.779,1.799 1.751,1.799c2.303,0 2.303,-3.586 0,-3.586c-0.971,-0.001 -1.751,0.659 -1.751,1.787zM52.39,39.321v3.274c0.348,-0.611 1.319,-0.947 1.942,-0.947c1.728,0 3.011,1.056 3.011,3.095c0,1.942 -1.308,3.094 -3.047,3.094c-0.72,0 -1.451,-0.24 -1.906,-0.947l-0.097,0.815h-1.367v-8.384zM52.485,44.743c0,1.067 0.791,1.738 1.715,1.738c0.936,0 1.679,-0.707 1.679,-1.738c0,-1.067 -0.743,-1.728 -1.679,-1.728c-0.924,0 -1.715,0.695 -1.715,1.728zM63.499,46.949c-0.684,0.672 -1.403,0.936 -2.278,0.936c-1.715,0 -3.143,-1.031 -3.143,-3.13c0,-2.099 1.428,-3.131 3.143,-3.131c0.839,0 1.487,0.24 2.135,0.876l-0.924,0.972c-0.348,-0.312 -0.779,-0.468 -1.188,-0.468c-0.983,0 -1.703,0.72 -1.703,1.751c0,1.127 0.768,1.727 1.68,1.727c0.468,0 0.936,-0.132 1.295,-0.491z" fill="#64ffda"></path><g><path d="M45.501,54.343l30.569,3.213l-5.35,6.45l1.182,6.069l-6.387,-0.643l-3.545,3.392z" fill="#233554"></path><path d="M61.969,73.374c-0.007,0 -0.015,0 -0.021,0c-0.149,-0.006 -0.29,-0.072 -0.389,-0.184l-16.469,-18.48c-0.151,-0.17 -0.183,-0.415 -0.079,-0.617c0.104,-0.201 0.312,-0.316 0.547,-0.296l30.569,3.213c0.201,0.021 0.375,0.151 0.452,0.34c0.076,0.188 0.043,0.402 -0.087,0.559l-5.183,6.248l1.133,5.813c0.033,0.171 -0.017,0.348 -0.134,0.476c-0.116,0.13 -0.298,0.198 -0.461,0.177l-6.136,-0.617l-3.363,3.217c-0.102,0.096 -0.237,0.151 -0.379,0.151zM46.857,55.039l15.143,16.994l3.135,-2.998c0.115,-0.111 0.283,-0.169 0.435,-0.149l5.651,0.568l-1.041,-5.343c-0.031,-0.162 0.012,-0.33 0.117,-0.457l4.693,-5.658z" fill="#0a192f"></path><path d="M71.413,69.879l-3.523,-3.243l-22.274,-11.966l24.713,9.159z" fill="#112240"></path><path d="M71.412,70.228c-0.085,0 -0.17,-0.03 -0.237,-0.092l-3.489,-3.214l-22.236,-11.943c-0.161,-0.087 -0.229,-0.284 -0.153,-0.451c0.075,-0.169 0.268,-0.252 0.438,-0.187l25.016,9.081c0.182,0.066 0.275,0.267 0.21,0.448c-0.066,0.183 -0.27,0.276 -0.448,0.21l-20.477,-7.434l18.021,9.68c0.025,0.014 0.05,0.031 0.071,0.051l3.522,3.243c0.142,0.131 0.151,0.353 0.021,0.495c-0.07,0.075 -0.164,0.113 -0.259,0.113z" fill="#0a192f"></path><path d="M61.969,73.324c-0.128,0 -0.256,-0.049 -0.354,-0.146c-0.195,-0.195 -0.195,-0.513 0,-0.707l5.962,-5.952c0.195,-0.195 0.512,-0.195 0.707,0c0.195,0.195 0.195,0.513 0,0.707l-5.962,5.952c-0.097,0.097 -0.225,0.146 -0.353,0.146zM84.011,80.866c-0.105,0 -0.211,-0.033 -0.301,-0.101c-1.434,-1.081 -2.458,-2.724 -2.81,-4.508c-0.138,-0.694 -0.149,-1.344 -0.09,-1.927c-0.303,-0.033 -0.609,-0.084 -0.913,-0.15c-0.271,-0.059 -0.441,-0.325 -0.382,-0.595c0.059,-0.27 0.329,-0.44 0.595,-0.382c0.293,0.063 0.586,0.11 0.875,0.14c0.147,-0.58 0.348,-1.05 0.511,-1.376c0.596,-1.187 2.41,-2.858 3.879,-2.757c0.427,0.027 1.199,0.237 1.586,1.339c0.25,0.713 0.147,1.396 -0.296,1.978c-0.958,1.257 -3.351,1.771 -4.853,1.837c-0.059,0.512 -0.053,1.085 0.068,1.7c0.306,1.545 1.191,2.968 2.431,3.902c0.221,0.166 0.265,0.479 0.099,0.7c-0.098,0.132 -0.248,0.2 -0.399,0.2zM85.25,70.207c-0.957,0 -2.421,1.334 -2.859,2.209c-0.117,0.232 -0.255,0.552 -0.371,0.938c1.382,-0.1 3.218,-0.604 3.851,-1.434c0.239,-0.313 0.286,-0.645 0.147,-1.041c-0.202,-0.574 -0.499,-0.658 -0.706,-0.671c-0.021,0 -0.041,-0.001 -0.062,-0.001zM78.696,73.832c-0.042,0 -0.085,-0.005 -0.127,-0.017c-0.209,-0.055 -1.03,-0.284 -1.235,-0.35c-0.264,-0.085 -0.408,-0.366 -0.324,-0.629c0.085,-0.264 0.366,-0.405 0.629,-0.324c0.197,0.063 0.985,0.283 1.185,0.336c0.268,0.07 0.427,0.344 0.356,0.61c-0.06,0.225 -0.263,0.374 -0.484,0.374zM76.338,72.965c-0.073,0 -0.147,-0.016 -0.218,-0.05c-0.456,-0.221 -0.919,-0.479 -1.378,-0.766c-0.234,-0.146 -0.306,-0.455 -0.159,-0.688c0.146,-0.235 0.457,-0.305 0.688,-0.159c0.43,0.268 0.861,0.508 1.284,0.713c0.249,0.121 0.353,0.42 0.232,0.668c-0.085,0.178 -0.263,0.282 -0.449,0.282zM64.026,61.684c0.191,1.087 0.381,2.173 0.572,3.26c0.044,0.253 0.43,0.146 0.386,-0.106c-0.191,-1.087 -0.381,-2.173 -0.572,-3.26c-0.045,-0.253 -0.43,-0.146 -0.386,0.106zM62.036,60.872c0.149,1.005 0.297,2.011 0.446,3.016c0.037,0.254 0.423,0.146 0.386,-0.106c-0.149,-1.005 -0.297,-2.011 -0.446,-3.016c-0.037,-0.254 -0.423,-0.147 -0.386,0.106zM59.857,60.047c0.177,0.905 0.354,1.81 0.53,2.715c0.049,0.252 0.435,0.146 0.386,-0.106c-0.177,-0.905 -0.354,-1.81 -0.53,-2.715c-0.05,-0.253 -0.435,-0.146 -0.386,0.106zM57.551,59.205c0.158,0.743 0.293,1.491 0.451,2.235c0.053,0.252 0.439,0.145 0.386,-0.106c-0.158,-0.743 -0.293,-1.491 -0.451,-2.235c-0.054,-0.252 -0.44,-0.146 -0.386,0.106zM55.415,58.427c0.124,0.585 0.248,1.17 0.371,1.755c0.053,0.252 0.439,0.145 0.386,-0.106c-0.124,-0.585 -0.248,-1.17 -0.371,-1.755c-0.054,-0.253 -0.44,-0.146 -0.386,0.106zM52.946,57.545c0.068,0.428 0.137,0.856 0.205,1.283c0.041,0.253 0.426,0.146 0.386,-0.106c-0.068,-0.428 -0.137,-0.856 -0.205,-1.283c-0.041,-0.254 -0.426,-0.146 -0.386,0.106zM66.106,62.38c0.211,1.144 0.422,2.288 0.632,3.431c0.047,0.253 0.432,0.146 0.386,-0.106c-0.211,-1.144 -0.422,-2.288 -0.632,-3.431c-0.047,-0.254 -0.433,-0.146 -0.386,0.106zM68.31,63.108c0.269,1.53 0.537,3.059 0.806,4.589c0.044,0.253 0.43,0.146 0.386,-0.106c-0.269,-1.53 -0.537,-3.059 -0.806,-4.589c-0.045,-0.254 -0.43,-0.147 -0.386,0.106zM73.924,71.462c-0.114,0 -0.229,-0.039 -0.323,-0.118l-0.325,-0.275c-0.211,-0.179 -0.236,-0.494 -0.059,-0.705c0.18,-0.209 0.496,-0.234 0.705,-0.059l0.325,0.275c0.211,0.179 0.236,0.494 0.059,0.705c-0.1,0.116 -0.24,0.177 -0.382,0.177z" fill="#0a192f"></path></g><g><path d="M38.017,72.867c1.883,0 3.517,0 3.54,0c2.11,0 3.821,-1.674 3.821,-3.739c0,-1.802 -1.302,-3.305 -3.035,-3.66c0.02,-0.158 0.034,-0.317 0.034,-0.48c0,-2.139 -1.772,-3.873 -3.957,-3.873c-1.29,0 -2.433,0.607 -3.155,1.543c-0.185,-2.381 -2.358,-4.218 -4.9,-3.913c-1.859,0.223 -3.397,1.629 -3.739,3.431c-0.11,0.578 -0.098,1.139 0.011,1.665c-0.498,-0.525 -1.208,-0.856 -1.998,-0.856c-1.446,0 -2.627,1.102 -2.72,2.494c-0.657,-0.142 -1.371,-0.133 -2.123,0.143c-1.438,0.528 -2.462,1.853 -2.522,3.356c-0.085,2.133 1.657,3.889 3.818,3.889c0.164,0 0.741,0 0.874,0h7.934M31.54,72.867h0.36" fill="#fdfcef"></path><path d="M41.558,73.367h-3.541c-0.276,0 -0.5,-0.224 -0.5,-0.5c0,-0.276 0.224,-0.5 0.5,-0.5h3.541c1.831,0 3.32,-1.453 3.32,-3.239c0,-1.524 -1.108,-2.858 -2.636,-3.17c-0.255,-0.053 -0.428,-0.293 -0.396,-0.552c0.017,-0.137 0.029,-0.276 0.029,-0.419c0,-1.859 -1.551,-3.372 -3.457,-3.372c-1.092,0 -2.098,0.491 -2.76,1.348c-0.126,0.164 -0.343,0.231 -0.538,0.174c-0.198,-0.06 -0.34,-0.234 -0.355,-0.44c-0.079,-1.02 -0.565,-1.944 -1.369,-2.604c-0.83,-0.681 -1.888,-0.982 -2.974,-0.853c-1.646,0.197 -3.006,1.442 -3.307,3.027c-0.094,0.496 -0.091,0.991 0.009,1.472c0.046,0.219 -0.06,0.441 -0.258,0.545c-0.197,0.103 -0.439,0.063 -0.595,-0.1c-0.428,-0.451 -1.009,-0.7 -1.635,-0.7c-1.17,0 -2.146,0.891 -2.221,2.027c-0.01,0.146 -0.082,0.278 -0.198,0.366c-0.115,0.087 -0.264,0.121 -0.406,0.089c-0.64,-0.139 -1.243,-0.098 -1.845,0.125c-1.263,0.463 -2.146,1.631 -2.195,2.905c-0.035,0.876 0.282,1.709 0.895,2.346c0.635,0.66 1.495,1.024 2.423,1.024h8.808c0.276,0 0.5,0.224 0.5,0.5c0,0.276 -0.224,0.5 -0.5,0.5h-8.807c-1.185,0 -2.33,-0.485 -3.144,-1.331c-0.803,-0.836 -1.219,-1.929 -1.174,-3.078c0.066,-1.675 1.212,-3.204 2.85,-3.806c0.609,-0.224 1.241,-0.305 1.88,-0.244c0.345,-1.396 1.629,-2.424 3.136,-2.424c0.493,0 0.977,0.113 1.414,0.323c0.009,-0.241 0.036,-0.483 0.082,-0.726c0.381,-2.009 2.096,-3.586 4.17,-3.834c1.363,-0.167 2.686,0.218 3.727,1.071c0.748,0.613 1.278,1.409 1.546,2.302c0.791,-0.647 1.786,-1.006 2.843,-1.006c2.458,0 4.457,1.961 4.457,4.372c0,0.034 -0.001,0.068 -0.002,0.103c1.765,0.555 3.004,2.188 3.004,4.038c-0.001,2.339 -1.939,4.241 -4.321,4.241zM31.9,73.367h-0.36c-0.276,0 -0.5,-0.224 -0.5,-0.5c0,-0.276 0.224,-0.5 0.5,-0.5h0.36c0.276,0 0.5,0.224 0.5,0.5c0,0.276 -0.224,0.5 -0.5,0.5z" fill="#0a192f"></path><path d="M39.85,67.564c-0.018,0 -0.036,-0.002 -0.055,-0.006c-0.135,-0.03 -0.22,-0.164 -0.189,-0.299c0.036,-0.163 0.094,-0.324 0.169,-0.479c0.605,-1.226 2.273,-1.677 3.723,-1.006c0.125,0.058 0.18,0.206 0.121,0.332c-0.058,0.125 -0.206,0.178 -0.332,0.121c-1.2,-0.556 -2.577,-0.211 -3.062,0.773c-0.059,0.119 -0.103,0.242 -0.13,0.368c-0.027,0.117 -0.13,0.196 -0.245,0.196z" fill="#0a192f"></path><g fill="#0a192f"><path d="M34.691,73.367h-1.106c-0.276,0 -0.5,-0.224 -0.5,-0.5c0,-0.276 0.224,-0.5 0.5,-0.5h1.106c0.276,0 0.5,0.224 0.5,0.5c0,0.276 -0.224,0.5 -0.5,0.5z"></path></g></g></g></g></svg>