<svg xmlns="http://www.w3.org/2000/svg" xmlns:xlink="http://www.w3.org/1999/xlink" viewBox="0,0,256,256" width="100px" height="100px" fill-rule="nonzero"><g fill="none" fill-rule="nonzero" stroke="none" stroke-width="1" stroke-linecap="butt" stroke-linejoin="miter" stroke-miterlimit="10" stroke-dasharray="" stroke-dashoffset="0" font-family="none" font-weight="none" font-size="none" text-anchor="none" style="mix-blend-mode: normal"><g transform="scale(2.56,2.56)"><path d="M87.215,56.71c1.135,-2.155 1.785,-4.605 1.785,-7.21c0,-6.621 -4.159,-12.257 -10.001,-14.478c0,-0.007 0.001,-0.014 0.001,-0.022c0,-11.598 -9.402,-21 -21,-21c-9.784,0 -17.981,6.701 -20.313,15.757c-1.476,-0.485 -3.049,-0.757 -4.687,-0.757c-7.692,0 -14.023,5.793 -14.89,13.252c-5.204,1.101 -9.11,5.717 -9.11,11.248c0,6.351 5.149,11.5 11.5,11.5c0.177,0 0.352,-0.012 0.526,-0.022c-0.004,0.175 -0.026,0.346 -0.026,0.522c0,11.322 9.178,20.5 20.5,20.5c6.437,0 12.175,-2.972 15.934,-7.614c2.178,2.225 5.206,3.614 8.566,3.614c4.65,0 8.674,-2.65 10.666,-6.518c1.052,0.335 2.171,0.518 3.334,0.518c6.075,0 11,-4.925 11,-11c0,-3.311 -1.47,-6.273 -3.785,-8.29z" fill="#c7ede6"></path><path d="M67.5,35.5v0.5h-3v-0.5c0,0 -4.242,0 -5.5,0c-2.485,0 -4.5,-2.015 -4.5,-4.5c0,-2.333 1.782,-4.229 4.055,-4.455c-0.022,-0.181 -0.055,-0.358 -0.055,-0.545c0,-2.485 2.015,-4.5 4.5,-4.5c1.438,0 2.703,0.686 3.527,1.736c0.14,-2.636 2.302,-4.736 4.973,-4.736c2.761,0 5,2.239 5,5c0,0.446 -0.077,0.87 -0.187,1.282c0.642,-0.777 1.6,-1.282 2.687,-1.282c1.781,0 3.234,1.335 3.455,3.055c0.181,-0.022 0.358,-0.055 0.545,-0.055c2.485,0 4.5,2.015 4.5,4.5c0,2.485 -2.015,4.5 -4.5,4.5c-2.485,0 -9.5,0 -9.5,0z" fill="#fdfcef"></path><path d="M71.5,18c3.033,0 5.5,2.467 5.5,5.5c0,0.016 0,0.031 0,0.047c0.602,-0.355 1.29,-0.547 2,-0.547c1.831,0 3.411,1.261 3.858,3.005c0.047,-0.003 0.094,-0.005 0.142,-0.005c2.757,0 5,2.243 5,5c0,2.757 -2.243,5 -5,5h-15.5c-0.276,0 -0.5,-0.224 -0.5,-0.5c0,-0.276 0.224,-0.5 0.5,-0.5h15.5c2.206,0 4,-1.794 4,-4c0,-2.206 -1.794,-4 -4,-4c-0.117,0 -0.23,0.017 -0.343,0.032l-0.141,0.019c-0.021,0.003 -0.041,0.004 -0.062,0.004c-0.246,0 -0.462,-0.185 -0.495,-0.437c-0.191,-1.493 -1.463,-2.618 -2.959,-2.618c-0.885,0 -1.723,0.401 -2.301,1.1c-0.098,0.118 -0.241,0.182 -0.386,0.182c-0.078,0 -0.156,-0.018 -0.228,-0.056c-0.209,-0.107 -0.314,-0.346 -0.254,-0.573c0.115,-0.435 0.169,-0.801 0.169,-1.153c0,-2.481 -2.019,-4.5 -4.5,-4.5c-2.381,0 -4.347,1.872 -4.474,4.263c-0.011,0.208 -0.15,0.387 -0.349,0.45c-0.05,0.016 -0.101,0.024 -0.152,0.024c-0.15,0 -0.296,-0.069 -0.392,-0.192c-0.771,-0.982 -1.912,-1.545 -3.133,-1.545c-2.206,0 -4,1.794 -4,4c0,0.117 0.017,0.23 0.032,0.343l0.019,0.141c0.016,0.134 -0.022,0.268 -0.106,0.373c-0.084,0.105 -0.207,0.172 -0.34,0.185c-2.056,0.205 -3.605,1.907 -3.605,3.958c0,2.206 1.794,4 4,4h5.5c0.276,0 0.5,0.224 0.5,0.5c0,0.276 -0.224,0.5 -0.5,0.5h-5.5c-2.757,0 -5,-2.243 -5,-5c0,-2.397 1.689,-4.413 4.003,-4.877c-0.002,-0.041 -0.003,-0.082 -0.003,-0.123c0,-2.757 2.243,-5 5,-5c1.176,0 2.293,0.416 3.183,1.164c0.598,-2.404 2.762,-4.164 5.317,-4.164z" fill="#0a192f"></path><path d="M73,25c1.403,0 2.609,0.999 2.913,2.341c0.367,-0.222 0.786,-0.341 1.212,-0.341c1.202,0 2.198,0.897 2.353,2.068c0.203,-0.046 0.396,-0.068 0.585,-0.068c1.529,0 2.811,1.2 2.918,2.732c0.009,0.138 -0.095,0.258 -0.232,0.268c-0.006,0 -0.012,0 -0.018,0c-0.13,0 -0.24,-0.101 -0.249,-0.232c-0.089,-1.271 -1.151,-2.268 -2.419,-2.268c-0.229,0 -0.47,0.042 -0.738,0.127c-0.022,0.007 -0.045,0.01 -0.067,0.01c-0.055,0 -0.11,-0.02 -0.156,-0.054c-0.064,-0.046 -0.102,-0.128 -0.102,-0.208c0,-1.034 -0.841,-1.875 -1.875,-1.875c-0.447,0 -0.885,0.168 -1.231,0.473c-0.047,0.041 -0.106,0.063 -0.165,0.063c-0.032,0 -0.063,-0.006 -0.093,-0.019c-0.088,-0.035 -0.148,-0.117 -0.155,-0.212c-0.104,-1.293 -1.193,-2.305 -2.481,-2.305c-0.208,0 -0.425,0.034 -0.682,0.107c-0.023,0.007 -0.047,0.01 -0.07,0.01c-0.109,0 -0.207,-0.073 -0.239,-0.182c-0.038,-0.133 0.039,-0.271 0.172,-0.309c0.302,-0.086 0.563,-0.126 0.819,-0.126zM59.117,26.5c1.326,0 2.508,0.897 2.874,2.182c0.038,0.133 -0.039,0.271 -0.172,0.309c-0.024,0.006 -0.047,0.009 -0.069,0.009c-0.109,0 -0.209,-0.072 -0.24,-0.182c-0.305,-1.07 -1.289,-1.818 -2.393,-1.818c-0.117,0 -0.23,0.014 -0.342,0.029c-0.012,0.002 -0.023,0.003 -0.035,0.003c-0.121,0 -0.229,-0.092 -0.246,-0.217c-0.019,-0.137 0.077,-0.263 0.214,-0.281c0.134,-0.018 0.27,-0.034 0.409,-0.034z" fill="#0a192f"></path><path d="M16.5,48h-10c-0.276,0 -0.5,-0.224 -0.5,-0.5c0,-0.276 0.224,-0.5 0.5,-0.5h10c0.276,0 0.5,0.224 0.5,0.5c0,0.276 -0.223,0.5 -0.5,0.5zM19.5,48h-1c-0.276,0 -0.5,-0.224 -0.5,-0.5c0,-0.276 0.224,-0.5 0.5,-0.5h1c0.276,0 0.5,0.224 0.5,0.5c0,0.276 -0.223,0.5 -0.5,0.5zM24.491,50h-8.991c-0.276,0 -0.5,-0.224 -0.5,-0.5c0,-0.276 0.224,-0.5 0.5,-0.5h8.991c0.276,0 0.5,0.224 0.5,0.5c0,0.276 -0.224,0.5 -0.5,0.5zM13.5,50h-1c-0.276,0 -0.5,-0.224 -0.5,-0.5c0,-0.276 0.224,-0.5 0.5,-0.5h1c0.276,0 0.5,0.224 0.5,0.5c0,0.276 -0.223,0.5 -0.5,0.5zM10.5,50h-2c-0.276,0 -0.5,-0.224 -0.5,-0.5c0,-0.276 0.224,-0.5 0.5,-0.5h2c0.276,0 0.5,0.224 0.5,0.5c0,0.276 -0.223,0.5 -0.5,0.5zM16.5,52h-2c-0.276,0 -0.5,-0.224 -0.5,-0.5c0,-0.276 0.224,-0.5 0.5,-0.5h2c0.276,0 0.5,0.224 0.5,0.5c0,0.276 -0.224,0.5 -0.5,0.5zM19.5,43c-0.177,0 -0.823,0 -1,0c-0.276,0 -0.5,0.224 -0.5,0.5c0,0.276 0.224,0.5 0.5,0.5c0.177,0 0.823,0 1,0c0.276,0 0.5,-0.224 0.5,-0.5c0,-0.276 -0.224,-0.5 -0.5,-0.5zM19.5,45c-0.177,0 -4.823,0 -5,0c-0.276,0 -0.5,0.224 -0.5,0.5c0,0.276 0.224,0.5 0.5,0.5c0.177,0 4.823,0 5,0c0.276,0 0.5,-0.224 0.5,-0.5c0,-0.276 -0.224,-0.5 -0.5,-0.5zM24.5,47c-0.177,0 -2.823,0 -3,0c-0.276,0 -0.5,0.224 -0.5,0.5c0,0.276 0.224,0.5 0.5,0.5c0.177,0 2.823,0 3,0c0.276,0 0.5,-0.224 0.5,-0.5c0,-0.276 -0.224,-0.5 -0.5,-0.5zM86.5,70h-10c-0.276,0 -0.5,-0.224 -0.5,-0.5c0,-0.276 0.224,-0.5 0.5,-0.5h10c0.276,0 0.5,0.224 0.5,0.5c0,0.276 -0.224,0.5 -0.5,0.5zM90.5,70h-2c-0.276,0 -0.5,-0.224 -0.5,-0.5c0,-0.276 0.224,-0.5 0.5,-0.5h2c0.276,0 0.5,0.224 0.5,0.5c0,0.276 -0.224,0.5 -0.5,0.5zM95.5,72h-10c-0.276,0 -0.5,-0.224 -0.5,-0.5c0,-0.276 0.224,-0.5 0.5,-0.5h10c0.276,0 0.5,0.224 0.5,0.5c0,0.276 -0.223,0.5 -0.5,0.5zM83.5,72h-1c-0.276,0 -0.5,-0.224 -0.5,-0.5c0,-0.276 0.224,-0.5 0.5,-0.5h1c0.276,0 0.5,0.224 0.5,0.5c0,0.276 -0.224,0.5 -0.5,0.5zM80.47,72h-1.97c-0.276,0 -0.5,-0.224 -0.5,-0.5c0,-0.276 0.224,-0.5 0.5,-0.5h1.97c0.276,0 0.5,0.224 0.5,0.5c0,0.276 -0.224,0.5 -0.5,0.5zM89.5,68h-5c-0.276,0 -0.5,-0.224 -0.5,-0.5c0,-0.276 0.224,-0.5 0.5,-0.5h5c0.276,0 0.5,0.224 0.5,0.5c0,0.276 -0.223,0.5 -0.5,0.5zM86.5,74h-2c-0.276,0 -0.5,-0.224 -0.5,-0.5c0,-0.276 0.224,-0.5 0.5,-0.5h2c0.276,0 0.5,0.224 0.5,0.5c0,0.276 -0.224,0.5 -0.5,0.5z" fill="#0a192f"></path><g><path d="M40.443,73.821v-6.415c0,-2.177 -0.658,-6.541 -3.666,-10.081c-2.967,-3.492 -5.499,-9.164 -4.582,-13.747c0.917,-4.583 3.666,-16.496 15.58,-17.413c11.914,-0.916 20.162,1.833 23.828,11.914c0.881,2.637 -0.038,3.704 -0.535,4.62l4.85,7.637c0.611,0.802 0.993,3.093 -0.535,3.513c-1.841,0.506 -3.78,0.726 -3.78,0.726l0.764,8.363c0.191,2.711 -0.573,5.231 -3.513,5.384c-2.746,0.143 -7.332,0 -7.332,0v9.164" fill="#fed5b3"></path><path d="M61.521,78.187c-0.387,0 -0.7,-0.313 -0.7,-0.7v-9.164c0,-0.189 0.077,-0.371 0.213,-0.503c0.136,-0.131 0.318,-0.213 0.509,-0.196c0.046,0.002 4.586,0.14 7.273,0c0.875,-0.046 1.528,-0.325 1.998,-0.856c0.856,-0.969 0.938,-2.59 0.854,-3.78l-0.763,-8.348c-0.034,-0.379 0.24,-0.716 0.618,-0.759c0.02,-0.002 1.91,-0.221 3.674,-0.705c0.242,-0.066 0.39,-0.213 0.478,-0.474c0.215,-0.637 -0.047,-1.589 -0.314,-1.939l-4.884,-7.688c-0.137,-0.214 -0.146,-0.485 -0.024,-0.709c0.058,-0.106 0.121,-0.215 0.187,-0.327c0.461,-0.792 0.984,-1.689 0.3,-3.737c-3.231,-8.885 -10.354,-12.422 -23.11,-11.438c-7.913,0.608 -12.802,6.121 -14.947,16.852c-0.884,4.419 1.676,9.917 4.429,13.156c2.826,3.325 3.833,7.622 3.833,10.534v6.415c0,0.387 -0.313,0.7 -0.7,0.7c-0.387,0 -0.7,-0.313 -0.7,-0.7v-6.415c0,-0.92 -0.168,-5.708 -3.499,-9.628c-3.063,-3.604 -5.716,-9.435 -4.735,-14.337c2.253,-11.271 7.708,-17.318 16.212,-17.974c13.483,-1.037 21.05,2.78 24.54,12.373c0.87,2.604 0.142,3.949 -0.376,4.841l4.623,7.281c0.506,0.659 0.861,2.098 0.493,3.187c-0.235,0.698 -0.744,1.187 -1.433,1.376c-1.22,0.335 -2.465,0.547 -3.208,0.655l0.703,7.694c0.147,2.104 -0.268,3.766 -1.201,4.82c-0.721,0.815 -1.722,1.262 -2.974,1.327c-2.117,0.111 -5.261,0.054 -6.667,0.02v8.445c-0.001,0.387 -0.315,0.701 -0.702,0.701z" fill="#0a192f"></path></g><g><path d="M54.878,66.058c1.126,0.604 2.609,1.197 4.429,1.5" fill="#fed5b3"></path><path d="M59.308,68.059c-0.027,0 -0.056,-0.002 -0.083,-0.007c-1.625,-0.271 -3.167,-0.793 -4.583,-1.553c-0.243,-0.13 -0.335,-0.434 -0.204,-0.677c0.13,-0.244 0.435,-0.336 0.677,-0.204c1.319,0.707 2.758,1.194 4.274,1.447c0.272,0.046 0.457,0.303 0.411,0.575c-0.041,0.246 -0.253,0.419 -0.492,0.419z" fill="#0a192f"></path></g><g><path d="M52.281,64.198c0,0 0.344,0.365 1.015,0.862" fill="#fed5b3"></path><path d="M53.296,65.56c-0.104,0 -0.208,-0.032 -0.298,-0.098c-0.699,-0.518 -1.066,-0.904 -1.081,-0.921c-0.189,-0.2 -0.181,-0.516 0.02,-0.705c0.2,-0.191 0.517,-0.181 0.707,0.019c0.003,0.003 0.328,0.344 0.95,0.803c0.222,0.165 0.269,0.478 0.104,0.7c-0.098,0.131 -0.25,0.202 -0.402,0.202z" fill="#0a192f"></path></g><g><path d="M29.5,77.5c0,0 -1.567,0 -3.5,0c-1.933,0 -3.5,-1.567 -3.5,-3.5c0,-1.781 1.335,-3.234 3.055,-3.455c-0.028,-0.179 -0.055,-0.358 -0.055,-0.545c0,-1.933 1.567,-3.5 3.5,-3.5c1.032,0 1.95,0.455 2.59,1.165c0.384,-1.808 1.987,-3.165 3.91,-3.165c2.209,0 4,1.791 4,4c0,0.191 -0.03,0.374 -0.056,0.558c0.428,-0.344 0.964,-0.558 1.556,-0.558c1.228,0 2.245,0.887 2.455,2.055c0.179,-0.028 0.358,-0.055 0.545,-0.055c1.933,0 3.5,1.567 3.5,3.5c0,1.933 -1.567,3.5 -3.5,3.5c-1.933,0 -7.5,0 -7.5,0v0.5h-7z" fill="#fdfcef"></path><path d="M27.75,73c0.138,0 0.25,-0.112 0.25,-0.25c0,-1.223 -0.995,-2.218 -2.218,-2.218c-0.034,0.009 -0.737,-0.001 -1.244,0.136c-0.133,0.036 -0.212,0.173 -0.176,0.306c0.036,0.134 0.173,0.213 0.306,0.176c0.444,-0.12 1.1,-0.12 1.113,-0.118c0.948,0 1.719,0.771 1.719,1.718c0,0.138 0.112,0.25 0.25,0.25zM34.5,77c-0.27614,0 -0.5,0.22386 -0.5,0.5c0,0.27614 0.22386,0.5 0.5,0.5c0.27614,0 0.5,-0.22386 0.5,-0.5c0,-0.27614 -0.22386,-0.5 -0.5,-0.5z" fill="#0a192f"></path><path d="M26,78h3.5c0.276,0 0.5,-0.224 0.5,-0.5c0,-0.276 -0.224,-0.5 -0.5,-0.5h-3.5c-1.654,0 -3,-1.346 -3,-3c0,-1.496 1.125,-2.768 2.618,-2.959c0.134,-0.018 0.255,-0.088 0.336,-0.196c0.081,-0.108 0.115,-0.244 0.094,-0.377c-0.023,-0.154 -0.048,-0.308 -0.048,-0.468c0,-1.654 1.346,-3 3,-3c0.85,0 1.638,0.355 2.219,1c0.125,0.139 0.321,0.198 0.5,0.148c0.182,-0.049 0.321,-0.195 0.36,-0.379c0.341,-1.604 1.78,-2.769 3.421,-2.769c1.93,0 3.5,1.57 3.5,3.5c0,0.143 -0.021,0.28 -0.041,0.418c-0.029,0.203 0.063,0.438 0.242,0.54c0.179,0.102 0.396,0.118 0.556,-0.01c0.365,-0.293 0.794,-0.448 1.243,-0.448c0.966,0 1.792,0.691 1.963,1.644c0.048,0.267 0.296,0.446 0.569,0.405c0.154,-0.024 0.308,-0.049 0.468,-0.049c1.654,0 3,1.346 3,3c0,1.654 -1.346,3 -3,3h-7.5c-0.276,0 -0.5,0.224 -0.5,0.5c0,0.276 0.224,0.5 0.5,0.5h7.5c2.206,0 4,-1.794 4,-4c0,-2.206 -1.794,-4 -4,-4c-0.059,0 -0.116,0.002 -0.174,0.006c-0.414,-1.186 -1.537,-2.006 -2.826,-2.006c-0.349,0 -0.689,0.061 -1.011,0.18c-0.165,-2.333 -2.115,-4.18 -4.489,-4.18c-1.831,0 -3.466,1.127 -4.153,2.774c-0.68,-0.498 -1.502,-0.774 -2.347,-0.774c-2.206,0 -4,1.794 -4,4c0,0.048 0.001,0.095 0.004,0.142c-1.743,0.448 -3.004,2.027 -3.004,3.858c0,2.206 1.794,4 4,4z" fill="#0a192f"></path><path d="M31.5,77c0.159,0 0.841,0 1,0c0.276,0 0.5,0.224 0.5,0.5c0,0.276 -0.224,0.5 -0.5,0.5c-0.159,0 -0.841,0 -1,0c-0.276,0 -0.5,-0.224 -0.5,-0.5c0,-0.276 0.224,-0.5 0.5,-0.5z" fill="#0a192f"></path></g><g><path d="M52.5,33c-4.412,0 -7.5,3.683 -7.5,7.378c0,4.618 4.5,6.042 4.5,11.122l2.772,-0.5h0.455l2.772,0.5c0,-5.08 4.5,-6.504 4.5,-11.122c0.001,-3.695 -3.087,-7.378 -7.499,-7.378z" fill="#64ffda"></path><path d="M55.5,52c-0.029,0 -0.06,-0.003 -0.089,-0.008l-2.772,-0.5l-0.367,0.008l-2.684,0.492c-0.148,0.023 -0.296,-0.015 -0.41,-0.108c-0.112,-0.095 -0.178,-0.236 -0.178,-0.384c0,-2.439 -1.086,-3.953 -2.236,-5.555c-1.113,-1.55 -2.264,-3.152 -2.264,-5.567c0,-3.805 3.215,-7.878 8,-7.878c4.785,0 8,4.073 8,7.878c0,2.415 -1.15,4.018 -2.264,5.567c-1.15,1.602 -2.236,3.116 -2.236,5.555c0,0.148 -0.065,0.289 -0.18,0.384c-0.09,0.075 -0.204,0.116 -0.32,0.116zM52.728,50.5l2.292,0.407c0.162,-2.421 1.301,-4.008 2.404,-5.545c1.068,-1.487 2.076,-2.892 2.076,-4.984c0,-3.321 -2.813,-6.878 -7,-6.878c-4.187,0 -7,3.557 -7,6.878c0,2.093 1.008,3.497 2.076,4.984c1.104,1.537 2.243,3.123 2.405,5.543l2.203,-0.397z" fill="#0a192f"></path></g><g fill="#28262d"><path d="M52.621,57h-0.243c-0.758,0 -1.378,-0.62 -1.378,-1.379v-2.684c0,-0.758 0.62,-1.379 1.379,-1.379h0.243c0.758,0 1.379,0.62 1.379,1.379v2.684c-0.001,0.759 -0.621,1.379 -1.38,1.379z"></path></g><g><path d="M53.547,55.5h-2.095c-1.078,0 -1.953,-0.874 -1.953,-1.953v-3.047h6v3.047c0.001,1.079 -0.873,1.953 -1.952,1.953z" fill="#d6d3c5"></path><path d="M53.548,56h-2.096c-1.352,0 -2.452,-1.1 -2.452,-2.452v-3.048c0,-0.276 0.224,-0.5 0.5,-0.5h6c0.276,0 0.5,0.224 0.5,0.5v3.048c0,1.352 -1.1,2.452 -2.452,2.452zM50,51v2.548c0,0.801 0.651,1.452 1.452,1.452h2.096c0.801,0 1.452,-0.651 1.452,-1.452v-2.548z" fill="#0a192f"></path></g><g fill="#0a192f"><path d="M66.5,41h-2.972c-0.276,0 -0.515,-0.224 -0.515,-0.5c0,-0.276 0.211,-0.5 0.487,-0.5h3c0.276,0 0.5,0.224 0.5,0.5c0,0.276 -0.224,0.5 -0.5,0.5z"></path></g><g fill="#0a192f"><path d="M64.234,47.852c-0.099,0 -0.197,-0.028 -0.284,-0.088l-2.446,-1.687l0.55,-0.837l2.465,1.699c0.227,0.157 0.284,0.469 0.128,0.696c-0.098,0.141 -0.254,0.217 -0.413,0.217z"></path></g><g fill="#0a192f"><path d="M61.776,35.838c-0.158,0 -0.314,-0.071 -0.41,-0.208c-0.157,-0.226 -0.115,-0.527 0.109,-0.687l2.475,-1.707c0.226,-0.155 0.538,-0.1 0.696,0.128c0.156,0.228 0.099,0.539 -0.128,0.696l-2.446,1.687c-0.089,0.061 -0.193,0.091 -0.296,0.091z"></path></g><g fill="#0a192f"><path d="M41.5,41h-3c-0.276,0 -0.5,-0.224 -0.5,-0.5c0,-0.276 0.224,-0.5 0.5,-0.5h2.971c0.276,0 0.515,0.224 0.515,0.5c0,0.276 -0.21,0.5 -0.486,0.5z"></path></g><g fill="#0a192f"><path d="M40.766,47.852c-0.159,0 -0.315,-0.075 -0.412,-0.216c-0.157,-0.228 -0.1,-0.539 0.128,-0.696l2.446,-1.687c0.227,-0.155 0.55,-0.108 0.707,0.119c0.157,0.228 0.112,0.53 -0.114,0.688l-2.471,1.704c-0.088,0.059 -0.187,0.088 -0.284,0.088z"></path></g><g fill="#0a192f"><path d="M42.95,35.763l-2.468,-1.702c-0.228,-0.157 -0.285,-0.469 -0.128,-0.696c0.157,-0.229 0.468,-0.286 0.695,-0.128l2.446,1.688z"></path></g><g fill="#0a192f"><path d="M52.5,51c-0.276,0 -0.5,-0.224 -0.5,-0.5v-6.793l-2.854,-2.854c-0.195,-0.195 -0.195,-0.512 0,-0.707c0.195,-0.195 0.512,-0.195 0.707,0l3.147,3.147v7.207c0,0.276 -0.224,0.5 -0.5,0.5z"></path></g><g fill="#0a192f"><path d="M52.5,44c-0.128,0 -0.256,-0.049 -0.354,-0.146c-0.195,-0.195 -0.195,-0.512 0,-0.707l3,-3c0.195,-0.195 0.512,-0.195 0.707,0c0.195,0.195 0.195,0.512 0,0.707l-3,3c-0.097,0.097 -0.225,0.146 -0.353,0.146z"></path></g><g fill="#0a192f"><path d="M52.5,53h-2.965c-0.276,0 -0.518,-0.224 -0.518,-0.5c0,-0.276 0.207,-0.5 0.483,-0.5h3c0.276,0 0.5,0.224 0.5,0.5c0,0.276 -0.224,0.5 -0.5,0.5z"></path></g></g></g></svg>