<svg xmlns="http://www.w3.org/2000/svg" xmlns:xlink="http://www.w3.org/1999/xlink" viewBox="0,0,256,256" width="100px" height="100px" fill-rule="nonzero"><g fill="none" fill-rule="nonzero" stroke="none" stroke-width="1" stroke-linecap="butt" stroke-linejoin="miter" stroke-miterlimit="10" stroke-dasharray="" stroke-dashoffset="0" font-family="none" font-weight="none" font-size="none" text-anchor="none" style="mix-blend-mode: normal"><g transform="scale(2.56,2.56)"><path d="M87.215,56.71c1.135,-2.155 1.785,-4.605 1.785,-7.21c0,-6.621 -4.159,-12.257 -10.001,-14.478c0,-0.007 0.001,-0.014 0.001,-0.022c0,-11.598 -9.402,-21 -21,-21c-9.784,0 -17.981,6.701 -20.313,15.757c-1.476,-0.485 -3.049,-0.757 -4.687,-0.757c-7.692,0 -14.023,5.793 -14.89,13.252c-5.204,1.101 -9.11,5.717 -9.11,11.248c0,6.351 5.149,11.5 11.5,11.5c0.177,0 0.352,-0.012 0.526,-0.022c-0.004,0.175 -0.026,0.346 -0.026,0.522c0,11.322 9.178,20.5 20.5,20.5c6.437,0 12.175,-2.972 15.934,-7.614c2.178,2.225 5.206,3.614 8.566,3.614c4.65,0 8.674,-2.65 10.666,-6.518c1.052,0.335 2.171,0.518 3.334,0.518c6.075,0 11,-4.925 11,-11c0,-3.311 -1.47,-6.273 -3.785,-8.29z" fill="#c7ede6"></path><path d="M67.5,35.5v0.5h-3v-0.5c0,0 -4.242,0 -5.5,0c-2.485,0 -4.5,-2.015 -4.5,-4.5c0,-2.333 1.782,-4.229 4.055,-4.455c-0.022,-0.181 -0.055,-0.358 -0.055,-0.545c0,-2.485 2.015,-4.5 4.5,-4.5c1.438,0 2.703,0.686 3.527,1.736c0.14,-2.636 2.302,-4.736 4.973,-4.736c2.761,0 5,2.239 5,5c0,0.446 -0.077,0.87 -0.187,1.282c0.642,-0.777 1.6,-1.282 2.687,-1.282c1.781,0 3.234,1.335 3.455,3.055c0.181,-0.022 0.358,-0.055 0.545,-0.055c2.485,0 4.5,2.015 4.5,4.5c0,2.485 -2.015,4.5 -4.5,4.5c-2.485,0 -9.5,0 -9.5,0z" fill="#fdfcef"></path><path d="M71.5,18c3.033,0 5.5,2.467 5.5,5.5c0,0.016 0,0.031 0,0.047c0.602,-0.355 1.29,-0.547 2,-0.547c1.831,0 3.411,1.261 3.858,3.005c0.047,-0.003 0.094,-0.005 0.142,-0.005c2.757,0 5,2.243 5,5c0,2.757 -2.243,5 -5,5h-15.5c-0.276,0 -0.5,-0.224 -0.5,-0.5c0,-0.276 0.224,-0.5 0.5,-0.5h15.5c2.206,0 4,-1.794 4,-4c0,-2.206 -1.794,-4 -4,-4c-0.117,0 -0.23,0.017 -0.343,0.032l-0.141,0.019c-0.021,0.003 -0.041,0.004 -0.062,0.004c-0.246,0 -0.462,-0.185 -0.495,-0.437c-0.191,-1.493 -1.463,-2.618 -2.959,-2.618c-0.885,0 -1.723,0.401 -2.301,1.1c-0.098,0.118 -0.241,0.182 -0.386,0.182c-0.078,0 -0.156,-0.018 -0.228,-0.056c-0.209,-0.107 -0.314,-0.346 -0.254,-0.573c0.115,-0.435 0.169,-0.801 0.169,-1.153c0,-2.481 -2.019,-4.5 -4.5,-4.5c-2.381,0 -4.347,1.872 -4.474,4.263c-0.011,0.208 -0.15,0.387 -0.349,0.45c-0.05,0.016 -0.101,0.024 -0.152,0.024c-0.15,0 -0.296,-0.069 -0.392,-0.192c-0.771,-0.982 -1.912,-1.545 -3.133,-1.545c-2.206,0 -4,1.794 -4,4c0,0.117 0.017,0.23 0.032,0.343l0.019,0.141c0.016,0.134 -0.022,0.268 -0.106,0.373c-0.084,0.105 -0.207,0.172 -0.34,0.185c-2.056,0.205 -3.605,1.907 -3.605,3.958c0,2.206 1.794,4 4,4h5.5c0.276,0 0.5,0.224 0.5,0.5c0,0.276 -0.224,0.5 -0.5,0.5h-5.5c-2.757,0 -5,-2.243 -5,-5c0,-2.397 1.689,-4.413 4.003,-4.877c-0.002,-0.041 -0.003,-0.082 -0.003,-0.123c0,-2.757 2.243,-5 5,-5c1.176,0 2.293,0.416 3.183,1.164c0.598,-2.404 2.762,-4.164 5.317,-4.164z" fill="#0a192f"></path><path d="M73,25c1.403,0 2.609,0.999 2.913,2.341c0.367,-0.222 0.786,-0.341 1.212,-0.341c1.202,0 2.198,0.897 2.353,2.068c0.203,-0.046 0.396,-0.068 0.585,-0.068c1.529,0 2.811,1.2 2.918,2.732c0.009,0.138 -0.095,0.258 -0.232,0.268c-0.006,0 -0.012,0 -0.018,0c-0.13,0 -0.24,-0.101 -0.249,-0.232c-0.089,-1.271 -1.151,-2.268 -2.419,-2.268c-0.229,0 -0.47,0.042 -0.738,0.127c-0.022,0.007 -0.045,0.01 -0.067,0.01c-0.055,0 -0.11,-0.02 -0.156,-0.054c-0.064,-0.046 -0.102,-0.128 -0.102,-0.208c0,-1.034 -0.841,-1.875 -1.875,-1.875c-0.447,0 -0.885,0.168 -1.231,0.473c-0.047,0.041 -0.106,0.063 -0.165,0.063c-0.032,0 -0.063,-0.006 -0.093,-0.019c-0.088,-0.035 -0.148,-0.117 -0.155,-0.212c-0.104,-1.293 -1.193,-2.305 -2.481,-2.305c-0.208,0 -0.425,0.034 -0.682,0.107c-0.023,0.007 -0.047,0.01 -0.07,0.01c-0.109,0 -0.207,-0.073 -0.239,-0.182c-0.038,-0.133 0.039,-0.271 0.172,-0.309c0.302,-0.086 0.563,-0.126 0.819,-0.126z" fill="#0a192f"></path><path d="M59.117,26.5c1.326,0 2.508,0.897 2.874,2.182c0.038,0.133 -0.039,0.271 -0.172,0.309c-0.024,0.006 -0.047,0.009 -0.069,0.009c-0.109,0 -0.209,-0.072 -0.24,-0.182c-0.305,-1.07 -1.289,-1.818 -2.393,-1.818c-0.117,0 -0.23,0.014 -0.342,0.029c-0.012,0.002 -0.023,0.003 -0.035,0.003c-0.121,0 -0.229,-0.092 -0.246,-0.217c-0.019,-0.137 0.077,-0.263 0.214,-0.281c0.134,-0.018 0.27,-0.034 0.409,-0.034z" fill="#0a192f"></path><path d="M16.5,48h-10c-0.276,0 -0.5,-0.224 -0.5,-0.5c0,-0.276 0.224,-0.5 0.5,-0.5h10c0.276,0 0.5,0.224 0.5,0.5c0,0.276 -0.223,0.5 -0.5,0.5z" fill="#0a192f"></path><path d="M19.5,48h-1c-0.276,0 -0.5,-0.224 -0.5,-0.5c0,-0.276 0.224,-0.5 0.5,-0.5h1c0.276,0 0.5,0.224 0.5,0.5c0,0.276 -0.223,0.5 -0.5,0.5z" fill="#0a192f"></path><path d="M24.491,50h-8.991c-0.276,0 -0.5,-0.224 -0.5,-0.5c0,-0.276 0.224,-0.5 0.5,-0.5h8.991c0.276,0 0.5,0.224 0.5,0.5c0,0.276 -0.224,0.5 -0.5,0.5z" fill="#0a192f"></path><path d="M13.5,50h-1c-0.276,0 -0.5,-0.224 -0.5,-0.5c0,-0.276 0.224,-0.5 0.5,-0.5h1c0.276,0 0.5,0.224 0.5,0.5c0,0.276 -0.223,0.5 -0.5,0.5z" fill="#0a192f"></path><path d="M10.5,50h-2c-0.276,0 -0.5,-0.224 -0.5,-0.5c0,-0.276 0.224,-0.5 0.5,-0.5h2c0.276,0 0.5,0.224 0.5,0.5c0,0.276 -0.223,0.5 -0.5,0.5z" fill="#0a192f"></path><path d="M16.5,52h-2c-0.276,0 -0.5,-0.224 -0.5,-0.5c0,-0.276 0.224,-0.5 0.5,-0.5h2c0.276,0 0.5,0.224 0.5,0.5c0,0.276 -0.224,0.5 -0.5,0.5z" fill="#0a192f"></path><path d="M19.5,43c-0.177,0 -0.823,0 -1,0c-0.276,0 -0.5,0.224 -0.5,0.5c0,0.276 0.224,0.5 0.5,0.5c0.177,0 0.823,0 1,0c0.276,0 0.5,-0.224 0.5,-0.5c0,-0.276 -0.224,-0.5 -0.5,-0.5z" fill="#0a192f"></path><path d="M19.5,45c-0.177,0 -4.823,0 -5,0c-0.276,0 -0.5,0.224 -0.5,0.5c0,0.276 0.224,0.5 0.5,0.5c0.177,0 4.823,0 5,0c0.276,0 0.5,-0.224 0.5,-0.5c0,-0.276 -0.224,-0.5 -0.5,-0.5z" fill="#0a192f"></path><path d="M24.5,47c-0.177,0 -2.823,0 -3,0c-0.276,0 -0.5,0.224 -0.5,0.5c0,0.276 0.224,0.5 0.5,0.5c0.177,0 2.823,0 3,0c0.276,0 0.5,-0.224 0.5,-0.5c0,-0.276 -0.224,-0.5 -0.5,-0.5z" fill="#0a192f"></path><g fill="#0a192f"><path d="M86.5,70h-10c-0.276,0 -0.5,-0.224 -0.5,-0.5c0,-0.276 0.224,-0.5 0.5,-0.5h10c0.276,0 0.5,0.224 0.5,0.5c0,0.276 -0.224,0.5 -0.5,0.5z"></path><path d="M90.5,70h-2c-0.276,0 -0.5,-0.224 -0.5,-0.5c0,-0.276 0.224,-0.5 0.5,-0.5h2c0.276,0 0.5,0.224 0.5,0.5c0,0.276 -0.224,0.5 -0.5,0.5z"></path><path d="M95.5,72h-10c-0.276,0 -0.5,-0.224 -0.5,-0.5c0,-0.276 0.224,-0.5 0.5,-0.5h10c0.276,0 0.5,0.224 0.5,0.5c0,0.276 -0.223,0.5 -0.5,0.5z"></path><path d="M83.5,72h-1c-0.276,0 -0.5,-0.224 -0.5,-0.5c0,-0.276 0.224,-0.5 0.5,-0.5h1c0.276,0 0.5,0.224 0.5,0.5c0,0.276 -0.224,0.5 -0.5,0.5z"></path><path d="M80.47,72h-1.97c-0.276,0 -0.5,-0.224 -0.5,-0.5c0,-0.276 0.224,-0.5 0.5,-0.5h1.97c0.276,0 0.5,0.224 0.5,0.5c0,0.276 -0.224,0.5 -0.5,0.5z"></path><path d="M89.5,68h-5c-0.276,0 -0.5,-0.224 -0.5,-0.5c0,-0.276 0.224,-0.5 0.5,-0.5h5c0.276,0 0.5,0.224 0.5,0.5c0,0.276 -0.223,0.5 -0.5,0.5z"></path><path d="M86.5,74h-2c-0.276,0 -0.5,-0.224 -0.5,-0.5c0,-0.276 0.224,-0.5 0.5,-0.5h2c0.276,0 0.5,0.224 0.5,0.5c0,0.276 -0.224,0.5 -0.5,0.5z"></path></g><g><path d="M40.443,73.821v-6.415c0,-2.177 -0.658,-6.541 -3.666,-10.081c-2.967,-3.492 -5.499,-9.164 -4.582,-13.747c0.917,-4.583 3.666,-16.496 15.58,-17.413c11.914,-0.916 20.162,1.833 23.828,11.914c0.881,2.637 -0.038,3.704 -0.535,4.62l4.85,7.637c0.611,0.802 0.993,3.093 -0.535,3.513c-1.841,0.506 -3.78,0.726 -3.78,0.726l0.764,8.363c0.191,2.711 -0.573,5.231 -3.513,5.384c-2.746,0.143 -7.332,0 -7.332,0v9.164" fill="#fed5b3"></path><path d="M61.521,78.186c-0.387,0 -0.7,-0.313 -0.7,-0.7v-9.164c0,-0.189 0.077,-0.371 0.213,-0.503c0.136,-0.132 0.316,-0.205 0.509,-0.197c0.045,0.002 4.586,0.14 7.273,0.001c0.875,-0.045 1.528,-0.325 1.998,-0.856c0.856,-0.969 0.938,-2.59 0.854,-3.78l-0.763,-8.348c-0.034,-0.379 0.24,-0.716 0.618,-0.759c0.02,-0.002 1.91,-0.22 3.674,-0.705c0.242,-0.067 0.39,-0.213 0.478,-0.474c0.215,-0.637 -0.047,-1.589 -0.314,-1.94l-4.884,-7.686c-0.137,-0.214 -0.146,-0.486 -0.024,-0.709c0.058,-0.107 0.121,-0.215 0.187,-0.327c0.461,-0.792 0.983,-1.69 0.3,-3.737c-3.231,-8.886 -10.364,-12.419 -23.11,-11.438c-7.912,0.609 -12.801,6.121 -14.946,16.852c-0.885,4.419 1.676,9.917 4.429,13.156c2.826,3.326 3.833,7.622 3.833,10.534v6.415c0,0.387 -0.313,0.7 -0.7,0.7c-0.387,0 -0.7,-0.313 -0.7,-0.7v-6.415c0,-0.92 -0.169,-5.708 -3.499,-9.628c-3.063,-3.604 -5.716,-9.436 -4.735,-14.337c2.254,-11.272 7.708,-17.319 16.212,-17.973c13.477,-1.036 21.051,2.779 24.54,12.373c0.87,2.604 0.142,3.949 -0.376,4.841l4.623,7.281c0.506,0.659 0.861,2.098 0.493,3.188c-0.235,0.698 -0.744,1.186 -1.433,1.375c-1.22,0.335 -2.465,0.547 -3.208,0.656l0.703,7.694c0.147,2.104 -0.268,3.766 -1.201,4.821c-0.721,0.815 -1.722,1.261 -2.974,1.326c-2.117,0.11 -5.26,0.054 -6.667,0.02v8.445c-0.002,0.385 -0.316,0.698 -0.703,0.698z" fill="#0a192f"></path></g><g><path d="M54.878,66.058c1.126,0.604 2.609,1.197 4.429,1.5" fill="#fed5b3"></path><path d="M59.308,68.058c-0.027,0 -0.056,-0.002 -0.083,-0.007c-1.626,-0.271 -3.168,-0.793 -4.583,-1.552c-0.243,-0.13 -0.335,-0.434 -0.204,-0.677c0.13,-0.244 0.435,-0.334 0.677,-0.204c1.318,0.707 2.757,1.194 4.274,1.447c0.272,0.045 0.457,0.303 0.411,0.575c-0.041,0.245 -0.253,0.418 -0.492,0.418z" fill="#0a192f"></path></g><g><path d="M52.281,64.198c0,0 0.344,0.365 1.015,0.862" fill="#fed5b3"></path><path d="M53.296,65.56c-0.104,0 -0.208,-0.032 -0.297,-0.098c-0.7,-0.517 -1.067,-0.905 -1.083,-0.921c-0.188,-0.201 -0.18,-0.516 0.021,-0.706c0.201,-0.19 0.517,-0.18 0.706,0.02c0.003,0.003 0.329,0.344 0.949,0.803c0.223,0.164 0.27,0.477 0.105,0.699c-0.097,0.133 -0.249,0.203 -0.401,0.203z" fill="#0a192f"></path></g><g><path d="M29.5,77.5c0,0 -1.567,0 -3.5,0c-1.933,0 -3.5,-1.567 -3.5,-3.5c0,-1.781 1.335,-3.234 3.055,-3.455c-0.028,-0.179 -0.055,-0.358 -0.055,-0.545c0,-1.933 1.567,-3.5 3.5,-3.5c1.032,0 1.95,0.455 2.59,1.165c0.384,-1.808 1.987,-3.165 3.91,-3.165c2.209,0 4,1.791 4,4c0,0.191 -0.03,0.374 -0.056,0.558c0.428,-0.344 0.964,-0.558 1.556,-0.558c1.228,0 2.245,0.887 2.455,2.055c0.179,-0.028 0.358,-0.055 0.545,-0.055c1.933,0 3.5,1.567 3.5,3.5c0,1.933 -1.567,3.5 -3.5,3.5c-1.933,0 -7.5,0 -7.5,0v0.5h-7z" fill="#fdfcef"></path><path d="M27.75,73c0.138,0 0.25,-0.112 0.25,-0.25c0,-1.223 -0.995,-2.218 -2.218,-2.218c-0.034,0.009 -0.737,-0.001 -1.244,0.136c-0.133,0.036 -0.212,0.173 -0.176,0.306c0.036,0.134 0.173,0.213 0.306,0.176c0.444,-0.12 1.1,-0.12 1.113,-0.118c0.948,0 1.719,0.771 1.719,1.718c0,0.138 0.112,0.25 0.25,0.25z" fill="#0a192f"></path><circle cx="34.5" cy="77.5" r="0.5" fill="#0a192f"></circle><path d="M26,78h3.5c0.276,0 0.5,-0.224 0.5,-0.5c0,-0.276 -0.224,-0.5 -0.5,-0.5h-3.5c-1.654,0 -3,-1.346 -3,-3c0,-1.496 1.125,-2.768 2.618,-2.959c0.134,-0.018 0.255,-0.088 0.336,-0.196c0.081,-0.108 0.115,-0.244 0.094,-0.377c-0.023,-0.154 -0.048,-0.308 -0.048,-0.468c0,-1.654 1.346,-3 3,-3c0.85,0 1.638,0.355 2.219,1c0.125,0.139 0.321,0.198 0.5,0.148c0.182,-0.049 0.321,-0.195 0.36,-0.379c0.341,-1.604 1.78,-2.769 3.421,-2.769c1.93,0 3.5,1.57 3.5,3.5c0,0.143 -0.021,0.28 -0.041,0.418c-0.029,0.203 0.063,0.438 0.242,0.54c0.179,0.102 0.396,0.118 0.556,-0.01c0.365,-0.293 0.794,-0.448 1.243,-0.448c0.966,0 1.792,0.691 1.963,1.644c0.048,0.267 0.296,0.446 0.569,0.405c0.154,-0.024 0.308,-0.049 0.468,-0.049c1.654,0 3,1.346 3,3c0,1.654 -1.346,3 -3,3h-7.5c-0.276,0 -0.5,0.224 -0.5,0.5c0,0.276 0.224,0.5 0.5,0.5h7.5c2.206,0 4,-1.794 4,-4c0,-2.206 -1.794,-4 -4,-4c-0.059,0 -0.116,0.002 -0.174,0.006c-0.414,-1.186 -1.537,-2.006 -2.826,-2.006c-0.349,0 -0.689,0.061 -1.011,0.18c-0.165,-2.333 -2.115,-4.18 -4.489,-4.18c-1.831,0 -3.466,1.127 -4.153,2.774c-0.68,-0.498 -1.502,-0.774 -2.347,-0.774c-2.206,0 -4,1.794 -4,4c0,0.048 0.001,0.095 0.004,0.142c-1.743,0.448 -3.004,2.027 -3.004,3.858c0,2.206 1.794,4 4,4z" fill="#0a192f"></path><path d="M31.5,77c0.159,0 0.841,0 1,0c0.276,0 0.5,0.224 0.5,0.5c0,0.276 -0.224,0.5 -0.5,0.5c-0.159,0 -0.841,0 -1,0c-0.276,0 -0.5,-0.224 -0.5,-0.5c0,-0.276 0.224,-0.5 0.5,-0.5z" fill="#0a192f"></path></g><g><path d="M43.026,56.677c-0.512,-0.154 -1.008,-0.356 -1.484,-0.605c0.267,-1.056 -0.008,-2.034 -0.798,-2.802c-0.571,-0.556 -1.235,-0.838 -1.973,-0.838c-0.262,0 -0.53,0.037 -0.805,0.11c-0.254,-0.471 -0.461,-0.96 -0.62,-1.464c0.962,-0.565 1.47,-1.466 1.444,-2.589c-0.026,-1.075 -0.546,-1.929 -1.479,-2.458c0.151,-0.506 0.351,-0.997 0.596,-1.468c0.284,0.079 0.564,0.119 0.836,0.119c0.758,0 1.437,-0.299 2.017,-0.889c0.776,-0.79 1.023,-1.78 0.722,-2.838c0.462,-0.247 0.951,-0.451 1.463,-0.611c0.546,0.966 1.422,1.49 2.518,1.49c0.087,0 0.178,-0.003 0.27,-0.01c1.014,-0.075 1.814,-0.598 2.306,-1.491c0.504,0.154 0.993,0.357 1.464,0.605c-0.298,1.074 -0.039,2.071 0.756,2.856c0.576,0.569 1.246,0.858 1.99,0.858c0.277,0 0.563,-0.042 0.853,-0.125c0.205,0.404 0.457,1.008 0.601,1.461c-0.986,0.562 -1.492,1.451 -1.469,2.6c0.017,0.78 0.298,1.789 1.452,2.453c-0.157,0.506 -0.362,0.997 -0.613,1.468c-0.272,-0.07 -0.539,-0.105 -0.797,-0.105c-0.827,0 -1.577,0.365 -2.17,1.055c-0.643,0.75 -0.843,1.638 -0.591,2.597c-0.473,0.25 -0.967,0.454 -1.478,0.612c-0.535,-0.902 -1.45,-1.427 -2.529,-1.427c-1.038,0.009 -1.953,0.559 -2.482,1.436z" fill="#64ffda"></path><path d="M48.329,41.171c0.129,0.049 0.256,0.102 0.382,0.158c-0.136,1.103 0.223,2.14 1.055,2.96c0.702,0.693 1.56,1.06 2.481,1.06c0.15,0 0.3,-0.01 0.452,-0.029c0.055,0.127 0.109,0.259 0.159,0.388c-0.888,0.694 -1.351,1.688 -1.326,2.892c0.024,1.124 0.482,2.056 1.316,2.715c-0.053,0.138 -0.11,0.274 -0.171,0.409c-0.136,-0.015 -0.27,-0.022 -0.403,-0.022c-1.038,0 -1.972,0.449 -2.701,1.298c-0.663,0.772 -0.948,1.688 -0.842,2.656c-0.142,0.063 -0.285,0.123 -0.43,0.178c-0.684,-0.819 -1.691,-1.296 -2.842,-1.296h-0.001c-1.059,0.013 -2.032,0.503 -2.701,1.312c-0.147,-0.055 -0.292,-0.114 -0.436,-0.177c0.109,-1.084 -0.263,-2.101 -1.089,-2.905c-0.697,-0.677 -1.548,-1.036 -2.461,-1.036c-0.137,0 -0.276,0.008 -0.415,0.024c-0.062,-0.135 -0.119,-0.271 -0.173,-0.408c0.87,-0.7 1.335,-1.701 1.307,-2.877c-0.027,-1.119 -0.504,-2.065 -1.345,-2.723c0.05,-0.133 0.103,-0.265 0.16,-0.395c0.148,0.018 0.294,0.027 0.439,0.027c0.94,0 1.81,-0.379 2.516,-1.097c0.81,-0.824 1.156,-1.853 1.015,-2.94c0.128,-0.058 0.257,-0.112 0.389,-0.163c0.678,0.872 1.651,1.352 2.798,1.352c0.104,0 0.211,-0.004 0.321,-0.012c1.064,-0.078 1.936,-0.547 2.546,-1.349M47.641,39.5c-0.328,0.954 -0.964,1.551 -1.96,1.625c-0.074,0.005 -0.147,0.008 -0.218,0.008c-1.058,0 -1.754,-0.601 -2.134,-1.624c-0.969,0.237 -1.872,0.612 -2.71,1.137c0.461,0.974 0.402,1.884 -0.357,2.655c-0.458,0.466 -0.97,0.679 -1.518,0.679c-0.37,0 -0.756,-0.097 -1.154,-0.28c-0.514,0.845 -0.883,1.75 -1.104,2.718c0.985,0.361 1.58,1.038 1.605,2.086c0.026,1.091 -0.562,1.804 -1.575,2.198c0.233,0.961 0.613,1.855 1.138,2.692c0.384,-0.171 0.758,-0.262 1.117,-0.262c0.534,0 1.035,0.202 1.485,0.64c0.768,0.747 0.861,1.649 0.436,2.625c0.846,0.514 1.745,0.882 2.708,1.104c0.014,-0.029 0.025,-0.046 0.032,-0.064c0.348,-0.907 1.138,-1.487 2.042,-1.498c0.011,0 0.021,0 0.032,0c0.952,0 1.74,0.537 2.106,1.448c0.027,0.067 0.057,0.088 0.099,0.088c0.021,0 0.045,-0.005 0.073,-0.012c0.871,-0.22 1.692,-0.56 2.464,-1.019c0.042,-0.025 0.082,-0.054 0.115,-0.076c-0.392,-0.885 -0.357,-1.724 0.271,-2.454c0.476,-0.555 1.03,-0.811 1.639,-0.811c0.355,0 0.728,0.087 1.116,0.252c0.52,-0.841 0.895,-1.737 1.123,-2.696c-0.971,-0.372 -1.559,-1.038 -1.581,-2.086c-0.023,-1.106 0.576,-1.807 1.578,-2.195c-0.061,-0.604 -0.765,-2.302 -1.12,-2.707c-0.391,0.183 -0.775,0.28 -1.143,0.28c-0.537,0 -1.043,-0.207 -1.498,-0.656c-0.779,-0.77 -0.841,-1.69 -0.388,-2.673c-0.844,-0.521 -1.75,-0.897 -2.719,-1.122z" fill="#0a192f"></path><g fill="#0a192f"><circle cx="45.5" cy="48.5" r="2.5"></circle></g></g><g><path d="M57.673,42.003c-0.246,-0.081 -0.484,-0.178 -0.717,-0.292c0.142,-0.753 -0.082,-1.45 -0.654,-2.007c-0.436,-0.424 -0.966,-0.648 -1.532,-0.648c-0.149,0 -0.302,0.015 -0.456,0.046c-0.115,-0.227 -0.214,-0.46 -0.297,-0.7c0.652,-0.439 0.994,-1.101 0.975,-1.916c-0.019,-0.777 -0.368,-1.404 -1,-1.816c0.079,-0.239 0.174,-0.472 0.283,-0.698c0.161,0.034 0.32,0.05 0.477,0.05c0.583,0 1.124,-0.238 1.565,-0.687c0.563,-0.571 0.767,-1.276 0.602,-2.031c0.223,-0.111 0.454,-0.207 0.693,-0.289c0.424,0.654 1.068,1.006 1.862,1.006c0.066,0 0.135,-0.003 0.205,-0.008c0.729,-0.054 1.316,-0.405 1.7,-1.007c0.236,0.08 0.468,0.176 0.692,0.286c-0.162,0.766 0.051,1.477 0.627,2.046c0.439,0.434 0.974,0.663 1.545,0.663c0.16,0 0.323,-0.018 0.488,-0.053c0.099,0.213 0.205,0.472 0.284,0.695c-0.66,0.437 -1.008,1.102 -0.99,1.922c0.016,0.767 0.358,1.392 0.98,1.809c-0.082,0.241 -0.181,0.476 -0.295,0.705c-0.152,-0.029 -0.302,-0.044 -0.448,-0.044c-0.644,0 -1.226,0.281 -1.684,0.814c-0.454,0.53 -0.622,1.17 -0.495,1.846c-0.237,0.119 -0.475,0.217 -0.715,0.299c-0.425,-0.606 -1.101,-0.965 -1.864,-0.965c-0.748,0.009 -1.414,0.377 -1.831,0.974z" fill="#64ffda"></path><path d="M61.335,32.095c0.071,0.643 0.364,1.241 0.872,1.742c0.496,0.489 1.089,0.779 1.732,0.848c-0.414,0.518 -0.629,1.164 -0.613,1.894c0.014,0.681 0.233,1.285 0.627,1.772c-0.729,0.078 -1.383,0.434 -1.904,1.042c-0.399,0.465 -0.63,1.004 -0.689,1.576c-0.517,-0.41 -1.17,-0.64 -1.893,-0.64c0,0 0,0 -0.001,0c-0.662,0.008 -1.283,0.243 -1.784,0.647c-0.07,-0.657 -0.37,-1.267 -0.892,-1.773c-0.491,-0.478 -1.078,-0.761 -1.713,-0.83c0.416,-0.52 0.632,-1.169 0.614,-1.903c-0.016,-0.68 -0.234,-1.28 -0.624,-1.764c0.652,-0.073 1.252,-0.373 1.749,-0.879c0.492,-0.5 0.775,-1.09 0.842,-1.722c0.498,0.401 1.117,0.616 1.815,0.616c0.084,0 0.17,-0.003 0.257,-0.01c0.616,-0.045 1.161,-0.259 1.605,-0.616M61.005,30.173c-0.23,0.67 -0.677,1.09 -1.378,1.142c-0.053,0.004 -0.104,0.006 -0.154,0.006c-0.743,0 -1.232,-0.422 -1.499,-1.141c-0.682,0.167 -1.316,0.43 -1.905,0.799c0.324,0.685 0.282,1.325 -0.251,1.867c-0.322,0.328 -0.682,0.478 -1.067,0.478c-0.26,0 -0.532,-0.068 -0.811,-0.197c-0.361,0.594 -0.621,1.23 -0.776,1.911c0.693,0.254 1.11,0.729 1.128,1.466c0.018,0.767 -0.395,1.269 -1.107,1.545c0.164,0.675 0.431,1.304 0.8,1.892c0.27,-0.12 0.533,-0.184 0.785,-0.184c0.376,0 0.727,0.142 1.044,0.45c0.54,0.525 0.605,1.159 0.307,1.845c0.594,0.361 1.227,0.62 1.904,0.776c0.01,-0.02 0.018,-0.032 0.023,-0.045c0.245,-0.638 0.8,-1.045 1.436,-1.053c0.008,0 0.015,0 0.023,0c0.669,0 1.222,0.377 1.48,1.018c0.019,0.047 0.04,0.062 0.07,0.062c0.015,0 0.032,-0.003 0.052,-0.008c0.612,-0.155 1.19,-0.394 1.732,-0.716c0.03,-0.018 0.058,-0.038 0.081,-0.054c-0.276,-0.622 -0.251,-1.211 0.19,-1.725c0.335,-0.39 0.724,-0.57 1.152,-0.57c0.249,0 0.512,0.061 0.785,0.177c0.366,-0.591 0.629,-1.221 0.789,-1.895c-0.683,-0.262 -1.096,-0.729 -1.111,-1.467c-0.016,-0.777 0.405,-1.27 1.109,-1.543c-0.043,-0.425 -0.537,-1.618 -0.788,-1.903c-0.275,0.129 -0.545,0.197 -0.804,0.197c-0.378,0 -0.733,-0.146 -1.053,-0.461c-0.548,-0.541 -0.591,-1.188 -0.273,-1.879c-0.595,-0.367 -1.232,-0.632 -1.913,-0.79z" fill="#0a192f"></path><g fill="#0a192f"><circle cx="59.5" cy="36.5" r="1.5"></circle></g></g></g></g></svg>