<svg xmlns="http://www.w3.org/2000/svg" xmlns:xlink="http://www.w3.org/1999/xlink" viewBox="0,0,256,256" width="100px" height="100px" fill-rule="nonzero"><g fill="none" fill-rule="nonzero" stroke="none" stroke-width="1" stroke-linecap="butt" stroke-linejoin="miter" stroke-miterlimit="10" stroke-dasharray="" stroke-dashoffset="0" font-family="none" font-weight="none" font-size="none" text-anchor="none" style="mix-blend-mode: normal"><g transform="scale(2.56,2.56)"><path d="M87.234,55.551c0.3,-0.616 0.566,-1.264 0.796,-1.943c2.633,-7.77 -1.349,-17.078 -9.733,-19.325c-0.906,-11.383 -8.906,-19.193 -17.941,-20.525c-10.341,-1.525 -19.814,5.044 -22.966,15.485c-3.799,-1.346 -7.501,-1.182 -10.99,0.857c-1.583,0.732 -3.031,1.812 -4.33,3.233c-1.907,2.086 -3.147,4.719 -3.652,7.495c-0.748,0.118 -1.483,0.236 -2.176,0.484c-4.04,1.449 -6.589,4.431 -7.288,8.923c-0.435,2.797 0.443,5.587 0.933,6.714c1.935,4.455 6.422,6.98 10.981,6.312c0.227,-0.033 0.557,0.069 0.752,0.233c0.241,7.12 3.698,13.417 8.884,17.014c8.321,5.772 19.027,3.994 25.781,-3.921c2.894,2.96 6.338,4.398 10.384,3.876c4.023,-0.519 7.147,-2.739 9.426,-6.349c1.053,0.283 2.051,0.691 3.083,0.804c4.042,0.442 7.297,-1.184 9.732,-4.8c0.083,-0.124 0.203,-0.219 0.306,-0.328c0.348,-0.798 0.696,-1.596 1.044,-2.394c0.155,-1.211 0.429,-2.423 0.443,-3.632c0.039,-3.256 -1.292,-6.224 -3.469,-8.213z" fill="#c8ede6"></path><path d="M69.507,34.423c0,0 -11.691,0 -11.762,0c-2.7,0 -4.888,-2.189 -4.888,-4.889c0,-2.355 1.666,-4.321 3.884,-4.784c-0.026,-0.206 -0.043,-0.415 -0.043,-0.628c0,-2.796 2.267,-5.063 5.063,-5.063c1.651,0 3.113,0.794 4.037,2.017c0.236,-3.113 3.017,-5.514 6.27,-5.116c2.379,0.291 4.346,2.13 4.784,4.486c0.14,0.756 0.126,1.489 -0.014,2.177c0.638,-0.687 1.546,-1.119 2.557,-1.119c1.85,0 3.361,1.441 3.48,3.261c0.84,-0.186 1.754,-0.174 2.717,0.188c1.84,0.691 3.15,2.423 3.227,4.387c0.109,2.789 -2.12,5.085 -4.885,5.085c-0.21,0 -0.948,0 -1.118,0h-10.151" fill="#fdfcef"></path><path d="M57.745,34.923h11.762c0.276,0 0.5,-0.224 0.5,-0.5c0,-0.276 -0.224,-0.5 -0.5,-0.5h-11.762c-2.42,0 -4.389,-1.969 -4.389,-4.389c0,-2.066 1.466,-3.873 3.486,-4.295c0.255,-0.053 0.426,-0.293 0.394,-0.552c-0.023,-0.186 -0.039,-0.374 -0.039,-0.565c0,-2.517 2.047,-4.563 4.562,-4.563c1.438,0 2.765,0.663 3.638,1.818c0.125,0.166 0.338,0.237 0.54,0.178c0.199,-0.059 0.342,-0.234 0.357,-0.441c0.104,-1.377 0.779,-2.671 1.85,-3.549c1.083,-0.888 2.456,-1.282 3.86,-1.109c2.166,0.266 3.956,1.943 4.353,4.081c0.124,0.667 0.12,1.335 -0.013,1.986c-0.044,0.22 0.062,0.442 0.262,0.544c0.2,0.104 0.443,0.06 0.595,-0.104c0.575,-0.618 1.353,-0.959 2.19,-0.959c1.569,0 2.878,1.228 2.981,2.794c0.01,0.146 0.082,0.279 0.199,0.366c0.117,0.089 0.268,0.12 0.408,0.089c0.841,-0.185 1.637,-0.132 2.433,0.167c1.669,0.627 2.835,2.209 2.903,3.938c0.047,1.207 -0.387,2.35 -1.221,3.218c-0.835,0.869 -1.959,1.348 -3.164,1.348h-11.269c-0.276,0 -0.5,0.224 -0.5,0.5c0,0.276 0.224,0.5 0.5,0.5h11.271c1.479,0 2.858,-0.588 3.884,-1.654c1.025,-1.066 1.558,-2.469 1.5,-3.95c-0.083,-2.126 -1.51,-4.069 -3.55,-4.835c-0.8,-0.301 -1.626,-0.398 -2.468,-0.299c-0.377,-1.822 -1.998,-3.182 -3.905,-3.182c-0.684,0 -1.354,0.18 -1.944,0.51c0,-0.386 -0.035,-0.772 -0.106,-1.159c-0.477,-2.562 -2.621,-4.573 -5.215,-4.891c-1.679,-0.205 -3.32,0.266 -4.616,1.328c-1.003,0.823 -1.716,1.951 -2.038,3.193c-1.012,-0.916 -2.319,-1.426 -3.714,-1.426c-3.067,0 -5.562,2.496 -5.562,5.563c0,0.083 0.002,0.166 0.007,0.248c-2.254,0.673 -3.848,2.776 -3.848,5.164c-0.001,2.973 2.416,5.389 5.388,5.389z" fill="#0a192f"></path><path d="M72.34,23.655c1.808,-0.119 3.365,1.13 3.476,2.789c0.014,0.206 0.005,0.409 -0.025,0.606c0.349,-0.394 0.865,-0.661 1.458,-0.7c1.085,-0.071 2.022,0.645 2.158,1.62c0.197,-0.054 0.403,-0.09 0.616,-0.104c1.582,-0.104 2.944,0.989 3.042,2.441" fill="#fdfcef"></path><path d="M83.064,30.556c0.006,0 0.012,0 0.017,-0.001c0.138,-0.009 0.242,-0.128 0.233,-0.266c-0.107,-1.587 -1.588,-2.789 -3.308,-2.674c-0.137,0.009 -0.273,0.026 -0.409,0.053c-0.274,-0.968 -1.256,-1.645 -2.366,-1.567c-0.425,0.027 -0.823,0.159 -1.164,0.382c0,-0.019 -0.002,-0.037 -0.003,-0.056c-0.12,-1.795 -1.787,-3.16 -3.742,-3.021c-0.138,0.009 -0.242,0.128 -0.233,0.266c0.009,0.138 0.124,0.255 0.266,0.232c1.651,-0.105 3.108,1.037 3.21,2.557c0.012,0.184 0.004,0.37 -0.023,0.553c-0.017,0.109 0.041,0.217 0.141,0.264c0.1,0.047 0.219,0.022 0.293,-0.061c0.323,-0.365 0.78,-0.584 1.287,-0.617c0.951,-0.034 1.775,0.556 1.894,1.404c0.01,0.071 0.05,0.135 0.11,0.175c0.06,0.039 0.133,0.051 0.204,0.032c0.187,-0.051 0.377,-0.083 0.567,-0.097c1.44,-0.092 2.687,0.896 2.775,2.209c0.011,0.132 0.121,0.233 0.251,0.233z" fill="#0a192f"></path><path d="M55.765,25.323c1.699,-0.801 3.664,-0.234 4.389,1.267c0.09,0.186 0.157,0.379 0.201,0.574" fill="#fdfcef"></path><path d="M60.355,27.414c0.018,0 0.037,-0.002 0.056,-0.006c0.134,-0.031 0.219,-0.165 0.188,-0.3c-0.049,-0.217 -0.123,-0.428 -0.219,-0.627c-0.783,-1.621 -2.902,-2.239 -4.721,-1.385c-0.125,0.06 -0.179,0.208 -0.12,0.333c0.059,0.126 0.209,0.176 0.333,0.12c1.574,-0.744 3.394,-0.227 4.058,1.149c0.08,0.165 0.141,0.34 0.182,0.521c0.026,0.117 0.129,0.195 0.243,0.195z" fill="#0a192f"></path><path d="M77.53,58.68c-0.491,-0.343 -6.792,-2.526 -6.792,-2.526c-0.401,-0.106 -0.623,-0.431 -0.695,-0.792c-0.202,-1.025 -0.178,-3.489 -0.173,-3.929c0.001,-0.035 -0.031,-0.061 -0.071,-0.061h-0.238h-5.842h-0.238c-0.04,0 -0.071,0.027 -0.071,0.061c0.004,0.436 0.025,2.85 -0.173,3.929c-0.067,0.363 -0.294,0.686 -0.695,0.792l-5.15,1.77c-0.515,0.141 -1.011,0.343 -1.446,0.624c-2.273,1.469 -2.339,3.875 -2.433,4.322c-0.008,0.038 0.026,0.073 0.07,0.073h13.057h13.057c0.045,0 0.078,-0.035 0.07,-0.073c-0.09,-0.434 -0.124,-2.713 -2.237,-4.19z" fill="#fabf82"></path><path d="M69.8,51.372c0.04,0 0.071,0.026 0.071,0.061c-0.005,0.44 -0.029,2.904 0.173,3.929c0.072,0.362 0.294,0.686 0.695,0.792c0,0 6.301,2.182 6.792,2.526c2.113,1.477 2.147,3.757 2.238,4.191c0.008,0.038 -0.026,0.073 -0.07,0.073h-13.058h-13.057c-0.045,0 -0.078,-0.035 -0.07,-0.073c0.094,-0.448 0.16,-2.853 2.433,-4.322c0.435,-0.281 0.931,-0.483 1.446,-0.624l5.15,-1.77c0.401,-0.106 0.628,-0.429 0.695,-0.792c0.198,-1.079 0.177,-3.493 0.173,-3.929c-0.001,-0.035 0.031,-0.061 0.07,-0.061h0.238h5.842l0.239,-0.001M69.8,50.648h-0.238h-5.842h-0.238c-0.215,0 -0.425,0.086 -0.575,0.236c-0.149,0.15 -0.231,0.347 -0.228,0.557c0.015,1.329 -0.021,3.024 -0.161,3.791c-0.034,0.188 -0.133,0.214 -0.165,0.223l-0.026,0.007l-0.025,0.009l-5.129,1.763c-0.617,0.171 -1.164,0.41 -1.628,0.709c-2.298,1.485 -2.619,3.838 -2.725,4.61c-0.01,0.074 -0.017,0.132 -0.025,0.17c-0.048,0.231 0.01,0.468 0.161,0.651c0.153,0.186 0.381,0.292 0.625,0.292h13.059h13.057c0.245,0 0.472,-0.106 0.625,-0.292c0.151,-0.183 0.209,-0.42 0.161,-0.651c-0.008,-0.04 -0.015,-0.099 -0.025,-0.174c-0.105,-0.814 -0.384,-2.975 -2.508,-4.46c-0.5,-0.349 -4.583,-1.79 -6.972,-2.618l-0.026,-0.009l-0.026,-0.007c-0.031,-0.009 -0.127,-0.034 -0.166,-0.232c-0.143,-0.724 -0.176,-2.428 -0.159,-3.782c0.002,-0.21 -0.078,-0.408 -0.228,-0.557c-0.148,-0.15 -0.358,-0.236 -0.573,-0.236z" fill="#0a192f"></path><path d="M76.626,43.715c0.112,-0.38 0.206,-0.753 0.34,-1.124c0.174,-0.485 0.051,-0.796 -0.493,-1.096c-0.025,-0.014 -0.045,-0.03 -0.067,-0.046c-0.087,-0.014 -0.171,-0.025 -0.241,-0.033c-0.489,-0.057 -1.358,-0.082 -1.611,-0.586c-0.286,-0.571 -0.144,-1.177 -0.07,-1.78c0.081,-0.663 -0.171,-1.302 -0.173,-1.964c-0.045,-0.065 -0.078,-0.142 -0.087,-0.234c-0.1,-0.976 -0.388,-1.909 -0.772,-2.812c-1.352,-1.772 -3.878,-2.967 -6.768,-2.967c-4.31,0 -7.818,2.657 -7.818,5.922c0,0.155 0.01,0.307 0.026,0.459c-0.042,0.59 -0.099,1.116 -0.072,1.763c0.024,0.572 -0.06,0.996 -0.004,1.751c0.031,0.425 -0.165,0.151 -0.852,0.185c-0.088,0 -0.173,0.001 -0.256,0.007c-0.754,0.05 -1.364,0.53 -1.494,1.124c0.092,0.056 0.166,0.146 0.2,0.279c0.275,1.103 0.237,2.378 0.792,3.403c0.31,0.572 0.795,0.652 1.293,1.021c0.276,0.205 0.329,0.436 0.404,0.742c0.28,1.132 1.055,2.095 1.906,2.917c0.431,0.416 0.893,0.79 1.359,1.169c0.387,0.314 0.793,0.677 1.273,0.864c0.16,0.062 0.26,0.174 0.308,0.3c0.318,0.169 0.767,0.406 0.767,0.402c1.535,0.61 3.008,0.662 4.562,-0.03c0,0.006 0,0.012 0,0.017c0.008,-0.005 0.756,-0.362 1.062,-0.53c0.024,-0.033 0.052,-0.065 0.089,-0.096c0.471,-0.394 0.992,-0.722 1.477,-1.098c0.398,-0.31 0.725,-0.652 1.033,-1.024c-0.071,-0.161 0.086,-0.022 0.233,-0.191c0.689,-0.791 1.336,-2.037 1.448,-3.051c0.006,-0.052 0.044,-0.09 0.072,-0.127c-0.089,-0.281 0.132,-0.435 0.539,-0.446c0.368,-0.009 0.586,-0.421 0.868,-0.619c0.21,-0.799 0.494,-1.684 0.727,-2.471z" fill="#fddbbc"></path><path d="M74.762,43.049c0.009,-0.129 0.011,-0.258 -0.004,-0.386l0.975,0.187l-0.354,1.75l-0.393,-0.071l0.279,-1.383z" fill="#8e7469" opacity="0.8"></path><path d="M76.079,41.176c-0.335,-0.084 -0.691,-0.092 -1.068,-0.138c0,-0.04 -0.096,0.043 -0.096,0.003c-0.238,-0.023 -0.364,-0.301 -0.368,-0.591c-0.007,-0.585 -0.081,-1.227 -0.028,-1.841c0.015,-0.554 -0.085,-0.907 -0.193,-1.299c0.017,-0.161 0.027,-0.323 0.027,-0.487c0,-3.356 -3.507,-6.087 -7.818,-6.087c-4.31,0 -7.818,2.731 -7.818,6.087c0,0.159 0.01,0.316 0.026,0.472c-0.042,0.607 -0.099,1.148 -0.072,1.811c0.024,0.588 -0.06,1.024 -0.004,1.799c0.031,0.437 -0.165,0.156 -0.852,0.19c-0.088,0 -0.173,0.001 -0.256,0.007c-0.935,0.064 -1.65,0.806 -1.501,1.609c0.172,0.93 0.378,1.856 0.611,2.775c0.231,0.909 0.685,1.653 1.788,1.759c0.142,1.182 0.395,1.783 1.15,2.715c1.024,1.266 2.239,2.346 3.707,3.133c0.152,0.082 1.054,0.575 1.054,0.569c1.535,0.627 3.008,0.68 4.562,-0.03c0,0.006 0,0.012 0,0.018c0.01,-0.006 0.978,-0.482 1.161,-0.603c0.737,-0.489 1.488,-0.978 2.136,-1.563c1.285,-1.159 2.498,-2.388 2.624,-4.241c1.09,-0.097 1.541,-0.831 1.774,-1.718c0.228,-0.87 0.393,-1.755 0.577,-2.634c0.177,-0.847 -0.237,-1.494 -1.123,-1.715zM58.455,46.606c-0.546,0.014 -0.908,-0.199 -1.099,-0.802c-0.262,-0.827 -0.653,-2.553 -0.658,-2.568c-0.413,-1.258 0.367,-1.817 1.757,-1.553v0.731c-0.007,0 -0.014,0.607 0.001,0.61l-0.001,3.582zM74.248,47.469c-0.003,0.326 -0.058,0.695 -0.223,0.972c-1.524,2.549 -3.668,4.403 -6.741,5.139c-1.066,0.255 -2.065,-0.111 -2.992,-0.551c-1.943,-0.92 -3.497,-2.271 -4.685,-3.991c-0.389,-0.564 -0.597,-1.169 -0.567,-1.861c0.04,-0.915 0.01,-1.832 0.01,-2.749c0,-0.113 0.009,-0.226 -0.001,-0.337c-0.228,-2.516 0.301,-7.176 0.301,-7.268c0,-3.029 3.225,-5.494 7.189,-5.494c3.964,0 7.318,2.464 7.318,5.494c0,0.062 0.025,0.135 0.023,0.197c0.272,0.257 0.071,2.705 0.353,3.94c0.031,0.14 0.026,0.288 0.026,0.432c0,2.026 0.009,4.052 -0.011,6.077zM76.691,42.678c-0.202,1.055 -0.448,2.105 -0.748,3.139c-0.169,0.584 -0.488,0.76 -1.092,0.816v-3.601c0.001,-0.001 0.003,-0.001 0.004,-0.001c-0.001,-0.012 -0.003,-0.022 -0.003,-0.034v-0.76c-0.004,-0.002 -0.009,-0.004 -0.013,-0.007v-0.607c0.325,0 0.627,-0.02 0.927,0.004c0.604,0.049 1.033,0.483 0.925,1.051z" fill="#0a192f"></path><path d="M58.597,43.363c-0.01,-0.135 -0.011,-0.271 0.004,-0.406l-1.024,0.196l0.371,1.839l0.414,-0.075l-0.294,-1.454z" fill="#8e7469" opacity="0.8"></path><path d="M66.605,46.591c0.518,0 1.02,-0.224 1.344,-0.598c0.032,-0.038 0.028,-0.094 -0.01,-0.127v0c-0.038,-0.032 -0.095,-0.028 -0.128,0.009c-0.264,0.297 -0.703,0.468 -1.205,0.468c-0.503,0 -0.942,-0.171 -1.206,-0.468c-0.018,-0.02 -0.043,-0.03 -0.069,-0.03c-0.021,0 -0.042,0.007 -0.059,0.022c-0.038,0.033 -0.042,0.089 -0.01,0.127c0.323,0.373 0.825,0.597 1.343,0.597zM64.952,39.674l0.329,-0.624c-1.39,-0.322 -2.99,-0.271 -4.31,0.135l0.414,0.608c1.085,-0.355 2.42,-0.399 3.567,-0.119zM71.911,39.674l0.329,-0.624c-1.39,-0.322 -2.99,-0.271 -4.31,0.135l0.414,0.608c1.085,-0.355 2.42,-0.399 3.567,-0.119zM62.952,40.554c-0.334,0 -0.627,0.219 -0.796,0.548c0.042,-0.013 0.086,-0.022 0.132,-0.022c0.274,0 0.496,0.245 0.496,0.547c0,0.302 -0.222,0.547 -0.496,0.547c-0.089,0 -0.173,-0.028 -0.245,-0.075c0.117,0.496 0.48,0.857 0.909,0.857c0.524,0 0.95,-0.538 0.95,-1.201c-0.001,-0.663 -0.425,-1.201 -0.95,-1.201zM70.217,40.554c-0.285,0 -0.54,0.159 -0.714,0.411c0.054,-0.022 0.113,-0.037 0.174,-0.037c0.274,0 0.496,0.245 0.496,0.547c0,0.302 -0.222,0.547 -0.496,0.547c-0.17,0 -0.319,-0.095 -0.409,-0.238c0.012,0.65 0.432,1.172 0.948,1.172c0.524,0 0.95,-0.538 0.95,-1.201c0.001,-0.663 -0.424,-1.201 -0.949,-1.201zM70.62,47.982c0.039,-0.031 0.045,-0.088 0.013,-0.126v0c-0.031,-0.038 -0.089,-0.045 -0.128,-0.014c-0.856,0.674 -2.278,1.061 -3.9,1.061c-1.622,0 -3.044,-0.387 -3.901,-1.061c-0.017,-0.013 -0.037,-0.02 -0.057,-0.02c-0.026,0 -0.053,0.012 -0.071,0.033c-0.031,0.038 -0.026,0.095 0.013,0.127c0.967,0.781 2.468,1.247 4.015,1.247c1.548,0 3.05,-0.466 4.016,-1.247z" fill="#0a192f"></path><path d="M77.618,58.611c-0.493,-0.349 -1.061,-0.605 -1.663,-0.772l-0.633,-0.169c0.004,-0.001 0.009,-0.002 0.012,-0.004l-3.301,-1.073c-1.675,0.451 -3.471,0.698 -5.344,0.698c-1.873,0 -3.67,-0.248 -5.344,-0.698l-3.301,1.073c0.004,0.001 0.009,0.002 0.013,0.004l-0.649,0.173c-0.518,0.143 -1.015,0.348 -1.451,0.634c-2.282,1.493 -2.347,3.937 -2.442,4.391c-0.008,0.039 0.026,0.074 0.07,0.074h13.105h13.105c0.045,0 0.078,-0.035 0.07,-0.074c-0.093,-0.44 -0.126,-2.755 -2.247,-4.257z" fill="#0a192f"></path><path d="M66.626,57.474c-1.764,0 -3.83,-0.284 -5.669,-0.778c-0.097,-0.026 -0.155,-0.126 -0.129,-0.222c0.026,-0.096 0.126,-0.152 0.225,-0.127c1.809,0.486 3.841,0.765 5.573,0.765c0.68,0 1.367,-0.034 2.043,-0.101c0.105,-0.011 0.19,0.064 0.2,0.163c0.01,0.099 -0.063,0.188 -0.164,0.198c-0.687,0.067 -1.386,0.102 -2.079,0.102zM70.016,57.198c-0.088,0 -0.165,-0.063 -0.18,-0.152c-0.016,-0.098 0.051,-0.192 0.151,-0.208c0.138,-0.022 0.276,-0.046 0.412,-0.072c0.125,-0.023 0.25,-0.048 0.376,-0.074c0.097,-0.015 0.195,0.043 0.216,0.141c0.02,0.098 -0.044,0.193 -0.143,0.213c-0.126,0.025 -0.253,0.05 -0.381,0.075c-0.14,0.026 -0.28,0.051 -0.421,0.075c-0.01,0.001 -0.021,0.002 -0.03,0.002zM53.584,63.052c-0.021,0 -0.042,-0.006 -0.06,-0.017c-0.051,-0.033 -0.065,-0.101 -0.031,-0.15l3.533,-5.342c0.033,-0.05 0.102,-0.065 0.152,-0.032c0.05,0.033 0.065,0.101 0.031,0.15l-3.533,5.342c-0.021,0.031 -0.056,0.049 -0.092,0.049zM54.672,63.232c-0.021,0 -0.042,-0.006 -0.06,-0.017c-0.051,-0.033 -0.065,-0.101 -0.031,-0.15l3.945,-5.965c0.033,-0.051 0.102,-0.065 0.152,-0.032c0.05,0.033 0.065,0.101 0.031,0.15l-3.945,5.965c-0.021,0.031 -0.056,0.049 -0.092,0.049zM56.018,63.052c-0.021,0 -0.042,-0.006 -0.06,-0.017c-0.051,-0.033 -0.065,-0.101 -0.031,-0.15l3.945,-5.965c0.033,-0.05 0.102,-0.064 0.152,-0.032c0.051,0.033 0.065,0.101 0.031,0.15l-3.945,5.965c-0.021,0.031 -0.056,0.049 -0.092,0.049zM57.118,63.232c-0.021,0 -0.042,-0.006 -0.06,-0.017c-0.051,-0.033 -0.065,-0.101 -0.031,-0.15l3.945,-5.965c0.034,-0.051 0.102,-0.065 0.152,-0.032c0.05,0.033 0.065,0.101 0.031,0.15l-3.945,5.965c-0.022,0.031 -0.057,0.049 -0.092,0.049zM58.256,63.364c-0.021,0 -0.042,-0.006 -0.06,-0.017c-0.051,-0.033 -0.065,-0.101 -0.031,-0.15l2.803,-4.238c0.033,-0.05 0.102,-0.064 0.152,-0.032c0.051,0.033 0.065,0.101 0.031,0.15l-2.803,4.238c-0.022,0.031 -0.056,0.049 -0.092,0.049zM59.436,63.497c-0.021,0 -0.042,-0.006 -0.06,-0.017c-0.051,-0.033 -0.065,-0.101 -0.031,-0.15l1.401,-2.119c0.033,-0.05 0.101,-0.064 0.152,-0.032c0.051,0.033 0.065,0.101 0.031,0.15l-1.401,2.119c-0.021,0.031 -0.056,0.049 -0.092,0.049z" fill="#0a192f"></path><path d="M67.463,51.388c0.045,0 0.084,-0.052 0.084,-0.114c0,-0.062 -0.038,-0.114 -0.084,-0.114h-1.882c-0.045,0 -0.084,0.052 -0.084,0.114c0,0.062 0.038,0.114 0.084,0.114zM57.357,33.285c0.27,-0.717 1.215,-0.772 1.215,-0.772c0,0 -0.807,-1.016 -0.538,-1.48c0.269,-0.464 3.158,-3.755 10.178,-3.026c7.02,0.729 7.891,5.236 7.891,5.236l-1.428,8.234c0,0 -2.801,-8.168 -14.118,-6.625c0,0 0.493,1.038 -1.898,5.164l-1.302,-6.731z" fill="#512c2b"></path><path d="M31.909,42.567c-0.116,-0.252 -2.821,-6.205 -0.779,-10.296c0.859,-1.723 2.425,-2.851 4.654,-3.354c1.275,-0.86 2.803,-1.333 4.312,-1.333c1.273,0 2.51,0.324 3.675,0.965c0.606,0.334 1.099,0.616 1.511,0.853c1.317,0.756 1.716,0.983 2.458,0.983c0.084,0 0.171,-0.003 0.264,-0.008c0.208,-0.014 0.319,-0.02 0.424,-0.02c0.814,0 1.001,0.483 1.039,0.772c0.107,0.792 -0.169,1.461 -0.412,2.051c-0.203,0.491 -0.378,0.915 -0.269,1.27c1.365,4.418 -0.752,8.013 -0.843,8.164l-0.939,1.562l0.011,-1.822c0,-0.035 0.011,-3.239 -0.739,-5.373c-1.033,0.536 -2.268,0.817 -3.608,0.817c-2.378,0 -5.002,-0.845 -7.607,-2.447c-2.197,1.807 -2.195,6.949 -2.195,7.003l0.013,2.305z" fill="#be7841"></path><path d="M40.095,28.085c1.107,0 2.276,0.267 3.434,0.903c2.588,1.423 3.068,1.898 4.21,1.898c0.093,0 0.19,-0.003 0.293,-0.009c0.135,-0.008 0.27,-0.019 0.394,-0.019c0.281,0 0.507,0.057 0.545,0.34c0.179,1.329 -0.986,2.357 -0.663,3.401c1.314,4.255 -0.794,7.759 -0.794,7.759c0,0 0.025,-3.884 -0.991,-6.098c-1.049,0.683 -2.366,1.04 -3.856,1.04c-2.253,0 -4.904,-0.815 -7.63,-2.551c-2.705,1.774 -2.673,7.61 -2.673,7.61c0,0 -5.122,-11.087 3.623,-12.972c1.112,-0.773 2.549,-1.302 4.108,-1.302M40.095,27.085c-1.577,0 -3.171,0.484 -4.512,1.367c-2.334,0.547 -3.983,1.757 -4.901,3.597c-2.148,4.304 0.653,10.468 0.773,10.729l1.926,4.168l-0.018,-4.592c-0.005,-1.341 0.316,-4.849 1.76,-6.378c2.578,1.523 5.172,2.324 7.542,2.324c1.197,0 2.317,-0.213 3.299,-0.622c0.455,1.665 0.554,3.838 0.548,4.674l-0.024,3.647l1.881,-3.125c0.096,-0.159 2.323,-3.94 0.893,-8.57c-0.056,-0.182 0.101,-0.562 0.253,-0.93c0.254,-0.616 0.571,-1.383 0.446,-2.309c-0.027,-0.201 -0.228,-1.206 -1.536,-1.206c-0.115,0 -0.237,0.007 -0.361,0.015l-0.091,0.006c-0.083,0.005 -0.16,0.007 -0.235,0.007c-0.588,0 -0.888,-0.16 -2.208,-0.917c-0.414,-0.238 -0.909,-0.521 -1.521,-0.858c-1.238,-0.682 -2.555,-1.027 -3.914,-1.027z" fill="#0a192f"></path><path d="M50.832,58.609c-0.491,-0.342 -6.792,-2.52 -6.792,-2.52c-0.401,-0.106 -0.623,-0.429 -0.695,-0.79c-0.202,-1.022 -0.178,-3.48 -0.173,-3.919c0.001,-0.035 -0.031,-0.061 -0.071,-0.061h-0.238h-5.842h-0.238c-0.04,0 -0.071,0.027 -0.071,0.061c0.004,0.435 0.025,2.843 -0.173,3.919c-0.067,0.362 -0.294,0.684 -0.695,0.79l-5.15,1.766c-0.515,0.141 -1.011,0.342 -1.446,0.623c-2.273,1.466 -2.339,3.865 -2.433,4.312c-0.008,0.038 0.026,0.073 0.07,0.073h13.057h13.057c0.045,0 0.078,-0.035 0.07,-0.073c-0.091,-0.434 -0.124,-2.708 -2.237,-4.181z" fill="#fabf82"></path><path d="M43.102,51.318c0.04,0 0.071,0.026 0.071,0.061c-0.005,0.439 -0.029,2.897 0.173,3.919c0.072,0.362 0.294,0.684 0.695,0.79c0,0 6.301,2.177 6.792,2.52c2.113,1.474 2.147,3.748 2.238,4.181c0.008,0.038 -0.026,0.073 -0.07,0.073h-13.058h-13.057c-0.045,0 -0.078,-0.035 -0.07,-0.073c0.094,-0.447 0.16,-2.846 2.433,-4.312c0.435,-0.281 0.931,-0.481 1.446,-0.623l5.15,-1.766c0.401,-0.106 0.628,-0.428 0.695,-0.79c0.198,-1.076 0.177,-3.485 0.173,-3.919c-0.001,-0.035 0.031,-0.061 0.07,-0.061h0.238h5.842l0.239,0M43.102,50.596h-0.238h-5.842h-0.238c-0.215,0 -0.425,0.086 -0.575,0.235c-0.149,0.149 -0.231,0.346 -0.228,0.556c0.015,1.326 -0.021,3.017 -0.161,3.782c-0.034,0.188 -0.133,0.214 -0.165,0.222l-0.026,0.006l-0.025,0.009l-5.129,1.759c-0.617,0.17 -1.164,0.409 -1.628,0.707c-2.298,1.482 -2.619,3.828 -2.725,4.599c-0.01,0.074 -0.017,0.131 -0.025,0.17c-0.048,0.23 0.01,0.467 0.161,0.65c0.153,0.186 0.381,0.292 0.625,0.292h13.057h13.057c0.245,0 0.472,-0.106 0.625,-0.292c0.151,-0.183 0.209,-0.419 0.161,-0.65c-0.008,-0.04 -0.015,-0.099 -0.025,-0.174c-0.105,-0.812 -0.384,-2.968 -2.508,-4.449c-0.5,-0.349 -4.583,-1.786 -6.972,-2.611l-0.026,-0.009l-0.026,-0.007c-0.031,-0.009 -0.127,-0.034 -0.166,-0.232c-0.143,-0.722 -0.176,-2.422 -0.159,-3.773c0.002,-0.209 -0.078,-0.407 -0.228,-0.556c-0.147,-0.148 -0.356,-0.234 -0.571,-0.234z" fill="#0a192f"></path><path d="M49.928,43.679c0.112,-0.379 0.206,-0.751 0.34,-1.121c0.174,-0.484 0.051,-0.794 -0.493,-1.094c-0.025,-0.014 -0.045,-0.03 -0.067,-0.045c-0.087,-0.014 -0.171,-0.025 -0.241,-0.033c-0.489,-0.057 -1.358,-0.082 -1.611,-0.585c-0.286,-0.569 -0.144,-1.174 -0.07,-1.776c0.081,-0.662 -0.171,-1.299 -0.173,-1.959c-0.045,-0.065 -0.078,-0.141 -0.087,-0.233c-0.1,-0.974 -0.388,-1.905 -0.772,-2.805c-1.352,-1.768 -3.878,-2.96 -6.768,-2.96c-4.31,0 -7.818,2.65 -7.818,5.908c0,0.154 0.01,0.307 0.026,0.458c-0.042,0.589 -0.099,1.114 -0.072,1.758c0.024,0.57 -0.06,0.994 -0.004,1.747c0.031,0.424 -0.165,0.151 -0.852,0.184c-0.088,0 -0.173,0.001 -0.256,0.006c-0.754,0.05 -1.364,0.528 -1.494,1.121c0.092,0.056 0.166,0.146 0.2,0.279c0.275,1.1 0.237,2.373 0.792,3.395c0.31,0.571 0.795,0.65 1.293,1.018c0.276,0.204 0.329,0.435 0.404,0.74c0.28,1.13 1.055,2.09 1.906,2.91c0.431,0.415 0.893,0.788 1.359,1.166c0.387,0.313 0.793,0.676 1.273,0.862c0.16,0.062 0.26,0.174 0.308,0.3c0.318,0.168 0.767,0.405 0.767,0.401c1.535,0.608 3.008,0.66 4.562,-0.03c0,0.006 0,0.012 0,0.017c0.008,-0.005 0.756,-0.362 1.062,-0.528c0.024,-0.032 0.052,-0.065 0.089,-0.095c0.471,-0.393 0.992,-0.72 1.477,-1.096c0.398,-0.309 0.725,-0.65 1.033,-1.021c-0.071,-0.161 0.086,-0.022 0.233,-0.191c0.689,-0.789 1.336,-2.032 1.448,-3.044c0.006,-0.052 0.044,-0.09 0.072,-0.127c-0.089,-0.281 0.132,-0.434 0.539,-0.445c0.368,-0.009 0.586,-0.42 0.868,-0.618c0.209,-0.795 0.494,-1.679 0.727,-2.464z" fill="#fddbbc"></path><path d="M48.064,43.015c0.009,-0.128 0.011,-0.258 -0.004,-0.385l0.975,0.186l-0.354,1.745l-0.393,-0.071l0.279,-1.379z" fill="#8e7469" opacity="0.8"></path><path d="M49.381,41.147c-0.335,-0.084 -0.691,-0.092 -1.068,-0.138c0,-0.04 -0.096,0.043 -0.096,0.003c-0.238,-0.023 -0.364,-0.3 -0.368,-0.59c-0.007,-0.584 -0.081,-1.224 -0.028,-1.836c0.015,-0.552 -0.085,-0.905 -0.193,-1.296c0.017,-0.16 0.027,-0.322 0.027,-0.486c0,-3.348 -3.507,-6.072 -7.818,-6.072c-4.311,0 -7.818,2.724 -7.818,6.072c0,0.159 0.01,0.315 0.026,0.471c-0.042,0.606 -0.099,1.145 -0.072,1.807c0.024,0.586 -0.06,1.021 -0.004,1.795c0.031,0.436 -0.165,0.155 -0.852,0.189c-0.088,0 -0.173,0.001 -0.256,0.006c-0.935,0.064 -1.65,0.804 -1.501,1.605c0.172,0.928 0.378,1.851 0.611,2.768c0.231,0.907 0.685,1.649 1.788,1.755c0.142,1.179 0.395,1.779 1.15,2.708c1.024,1.263 2.239,2.34 3.707,3.125c0.152,0.082 1.054,0.574 1.054,0.567c1.535,0.626 3.008,0.678 4.562,-0.03c0,0.006 0,0.012 0,0.018c0.01,-0.006 0.978,-0.481 1.161,-0.602c0.737,-0.488 1.488,-0.976 2.136,-1.559c1.285,-1.156 2.498,-2.382 2.624,-4.231c1.09,-0.097 1.541,-0.829 1.774,-1.714c0.228,-0.868 0.393,-1.75 0.577,-2.628c0.177,-0.842 -0.238,-1.487 -1.123,-1.707zM31.757,46.563c-0.546,0.014 -0.908,-0.198 -1.099,-0.8c-0.262,-0.825 -0.653,-2.546 -0.658,-2.562c-0.413,-1.255 0.367,-1.812 1.757,-1.549v0.729c-0.007,0 -0.014,0.606 0.001,0.608l-0.001,3.574zM47.55,47.425c-0.003,0.326 -0.058,0.693 -0.223,0.969c-1.524,2.543 -3.668,4.392 -6.741,5.126c-1.066,0.255 -2.065,-0.111 -2.992,-0.549c-1.943,-0.918 -3.497,-2.266 -4.685,-3.981c-0.389,-0.562 -0.597,-1.166 -0.567,-1.856c0.04,-0.912 0.01,-1.828 0.01,-2.742c0,-0.113 0.009,-0.225 -0.001,-0.336c-0.228,-2.51 0.301,-7.159 0.301,-7.25c0,-3.022 3.225,-5.481 7.189,-5.481c3.964,0 7.318,2.458 7.318,5.481c0,0.062 0.025,0.135 0.023,0.196c0.272,0.256 0.071,2.699 0.353,3.931c0.031,0.139 0.026,0.287 0.026,0.431c0,2.019 0.009,4.04 -0.011,6.061zM49.993,42.645c-0.202,1.052 -0.448,2.1 -0.748,3.131c-0.169,0.582 -0.488,0.758 -1.092,0.814v-3.592c0.001,-0.001 0.003,-0.001 0.004,-0.001c-0.001,-0.012 -0.003,-0.022 -0.003,-0.034v-0.759c-0.004,-0.002 -0.009,-0.004 -0.013,-0.006v-0.606c0.325,0 0.627,-0.019 0.927,0.004c0.604,0.049 1.033,0.482 0.925,1.049z" fill="#0a192f"></path><path d="M31.898,43.328c-0.01,-0.135 -0.011,-0.271 0.004,-0.405l-1.024,0.196l0.371,1.835l0.414,-0.074l-0.294,-1.45z" fill="#8e7469" opacity="0.8"></path><path d="M39.906,46.548c0.518,0 1.02,-0.223 1.344,-0.596c0.032,-0.038 0.028,-0.094 -0.01,-0.126v0c-0.038,-0.032 -0.095,-0.028 -0.128,0.009c-0.264,0.297 -0.703,0.467 -1.205,0.467c-0.503,0 -0.942,-0.17 -1.206,-0.467c-0.018,-0.02 -0.043,-0.03 -0.069,-0.03c-0.021,0 -0.042,0.007 -0.059,0.022c-0.038,0.032 -0.042,0.089 -0.01,0.126c0.324,0.372 0.826,0.595 1.343,0.595zM38.254,39.649l0.329,-0.622c-1.39,-0.321 -2.99,-0.27 -4.31,0.134l0.414,0.606c1.085,-0.354 2.42,-0.398 3.567,-0.118zM45.213,39.649l0.329,-0.622c-1.39,-0.321 -2.99,-0.27 -4.31,0.134l0.414,0.606c1.085,-0.354 2.419,-0.398 3.567,-0.118zM36.254,40.526c-0.334,0 -0.627,0.218 -0.796,0.546c0.042,-0.013 0.086,-0.022 0.132,-0.022c0.274,0 0.496,0.244 0.496,0.546c0,0.302 -0.222,0.546 -0.496,0.546c-0.089,0 -0.173,-0.028 -0.245,-0.074c0.117,0.494 0.48,0.855 0.909,0.855c0.524,0 0.95,-0.536 0.95,-1.198c-0.001,-0.662 -0.425,-1.199 -0.95,-1.199zM43.519,40.526c-0.285,0 -0.54,0.159 -0.714,0.41c0.054,-0.022 0.113,-0.037 0.174,-0.037c0.274,0 0.496,0.244 0.496,0.546c0,0.301 -0.222,0.546 -0.496,0.546c-0.17,0 -0.319,-0.095 -0.409,-0.237c0.012,0.648 0.432,1.169 0.948,1.169c0.524,0 0.95,-0.536 0.95,-1.198c0,-0.662 -0.424,-1.199 -0.949,-1.199zM43.922,47.936c0.039,-0.031 0.045,-0.088 0.013,-0.126v0c-0.031,-0.038 -0.089,-0.045 -0.128,-0.014c-0.856,0.673 -2.278,1.059 -3.9,1.059c-1.622,0 -3.044,-0.386 -3.901,-1.059c-0.017,-0.013 -0.037,-0.019 -0.057,-0.019c-0.026,0 -0.053,0.012 -0.071,0.033c-0.031,0.038 -0.026,0.095 0.013,0.126c0.966,0.779 2.468,1.244 4.015,1.244c1.548,0 3.049,-0.465 4.016,-1.244z" fill="#0a192f"></path><path d="M50.919,58.54c-0.493,-0.348 -1.061,-0.603 -1.663,-0.77l-0.633,-0.168c0.004,-0.001 0.009,-0.002 0.012,-0.004l-3.301,-1.07c-1.675,0.45 -3.471,0.697 -5.344,0.697c-1.873,0 -3.67,-0.248 -5.344,-0.697l-3.301,1.07c0.004,0.001 0.009,0.002 0.013,0.004l-0.649,0.173c-0.518,0.143 -1.015,0.347 -1.451,0.632c-2.282,1.49 -2.347,3.927 -2.442,4.381c-0.008,0.039 0.026,0.074 0.07,0.074h13.105h13.105c0.045,0 0.078,-0.035 0.07,-0.074c-0.092,-0.44 -0.125,-2.75 -2.247,-4.248z" fill="#64ffda"></path><path d="M39.928,57.405c-1.764,0 -3.83,-0.283 -5.669,-0.776c-0.097,-0.026 -0.155,-0.126 -0.129,-0.222c0.026,-0.096 0.126,-0.152 0.225,-0.127c1.809,0.485 3.841,0.764 5.573,0.764c0.68,0 1.367,-0.034 2.043,-0.1c0.105,-0.011 0.19,0.064 0.2,0.162c0.01,0.099 -0.063,0.188 -0.164,0.197c-0.687,0.068 -1.387,0.102 -2.079,0.102zM43.318,57.13c-0.088,0 -0.165,-0.063 -0.18,-0.152c-0.016,-0.098 0.051,-0.191 0.151,-0.207c0.138,-0.022 0.276,-0.046 0.412,-0.072c0.125,-0.023 0.25,-0.048 0.376,-0.074c0.097,-0.015 0.195,0.043 0.216,0.141c0.02,0.097 -0.044,0.193 -0.143,0.213c-0.126,0.025 -0.253,0.05 -0.381,0.074c-0.14,0.026 -0.28,0.051 -0.421,0.074c-0.01,0.002 -0.021,0.003 -0.03,0.003zM26.886,62.971c-0.021,0 -0.042,-0.006 -0.06,-0.017c-0.051,-0.033 -0.065,-0.1 -0.031,-0.15l3.533,-5.329c0.033,-0.05 0.102,-0.065 0.152,-0.032c0.05,0.033 0.065,0.1 0.031,0.15l-3.533,5.329c-0.021,0.03 -0.056,0.049 -0.092,0.049zM27.974,63.15c-0.021,0 -0.042,-0.006 -0.06,-0.017c-0.051,-0.033 -0.065,-0.1 -0.031,-0.15l3.945,-5.95c0.033,-0.051 0.102,-0.065 0.152,-0.032c0.05,0.033 0.065,0.1 0.031,0.15l-3.945,5.95c-0.021,0.03 -0.056,0.049 -0.092,0.049zM29.32,62.971c-0.021,0 -0.042,-0.006 -0.06,-0.017c-0.051,-0.033 -0.065,-0.1 -0.031,-0.15l3.945,-5.95c0.033,-0.05 0.102,-0.064 0.152,-0.032c0.051,0.033 0.065,0.1 0.031,0.15l-3.945,5.95c-0.021,0.03 -0.057,0.049 -0.092,0.049zM30.419,63.15c-0.021,0 -0.042,-0.006 -0.06,-0.017c-0.051,-0.033 -0.065,-0.1 -0.031,-0.15l3.945,-5.95c0.034,-0.051 0.102,-0.065 0.152,-0.032c0.05,0.033 0.065,0.1 0.031,0.15l-3.945,5.95c-0.021,0.03 -0.056,0.049 -0.092,0.049zM31.558,63.281c-0.021,0 -0.042,-0.006 -0.06,-0.017c-0.051,-0.033 -0.065,-0.1 -0.031,-0.15l2.803,-4.228c0.033,-0.05 0.102,-0.064 0.152,-0.032c0.051,0.033 0.065,0.1 0.031,0.15l-2.803,4.228c-0.022,0.032 -0.056,0.049 -0.092,0.049zM32.738,63.414c-0.021,0 -0.042,-0.006 -0.06,-0.017c-0.051,-0.033 -0.065,-0.1 -0.031,-0.15l1.401,-2.114c0.033,-0.05 0.101,-0.064 0.152,-0.032c0.051,0.033 0.065,0.1 0.031,0.15l-1.401,2.114c-0.021,0.031 -0.057,0.049 -0.092,0.049z" fill="#0a192f"></path><path d="M40.765,51.334c0.045,0 0.084,-0.052 0.084,-0.113c0,-0.061 -0.038,-0.113 -0.084,-0.113h-1.882c-0.045,0 -0.084,0.052 -0.084,0.113c0,0.061 0.038,0.113 0.084,0.113z" fill="#512c2b"></path><path d="M48.971,31.242c-0.055,-0.407 -0.5,-0.346 -0.939,-0.321c-1.37,0.08 -1.705,-0.351 -4.503,-1.889c-2.788,-1.533 -5.641,-0.922 -7.542,0.398c-8.746,1.885 -3.623,12.972 -3.623,12.972c0,0 -0.032,-5.836 2.673,-7.61c4.529,2.884 8.851,3.227 11.486,1.511c1.017,2.214 0.991,6.098 0.991,6.098c0,0 2.109,-3.504 0.794,-7.759c-0.323,-1.042 0.842,-2.07 0.663,-3.4z" fill="#be7841"></path><path d="M47.904,42.373l-0.5,-0.004c0,-0.036 0.013,-3.563 -0.873,-5.734c-2.889,1.657 -7.274,1.065 -11.57,-1.575c-2.478,1.78 -2.476,7.254 -2.476,7.311l-0.5,0.002c-0.001,-0.243 -0.001,-5.994 2.834,-7.82c0.084,-0.051 0.187,-0.053 0.269,-0.002c4.3,2.689 8.678,3.271 11.423,1.512c0.061,-0.038 0.137,-0.05 0.204,-0.029c0.069,0.021 0.127,0.069 0.157,0.135c1.047,2.237 1.033,6.043 1.032,6.204z" fill="#0a192f"></path><path d="M16.405,52h-9.905c-0.276,0 -0.5,-0.224 -0.5,-0.5c0,-0.276 0.224,-0.5 0.5,-0.5h9.905c0.276,0 0.5,0.224 0.5,0.5c0,0.276 -0.223,0.5 -0.5,0.5zM19.5,52h-1c-0.276,0 -0.5,-0.224 -0.5,-0.5c0,-0.276 0.224,-0.5 0.5,-0.5h1c0.276,0 0.5,0.224 0.5,0.5c0,0.276 -0.223,0.5 -0.5,0.5zM24.491,54h-8.991c-0.276,0 -0.5,-0.224 -0.5,-0.5c0,-0.276 0.224,-0.5 0.5,-0.5h8.991c0.276,0 0.5,0.224 0.5,0.5c0,0.276 -0.224,0.5 -0.5,0.5zM13.5,54h-1c-0.276,0 -0.5,-0.224 -0.5,-0.5c0,-0.276 0.224,-0.5 0.5,-0.5h1c0.276,0 0.5,0.224 0.5,0.5c0,0.276 -0.223,0.5 -0.5,0.5zM10.5,54h-2c-0.276,0 -0.5,-0.224 -0.5,-0.5c0,-0.276 0.224,-0.5 0.5,-0.5h2c0.276,0 0.5,0.224 0.5,0.5c0,0.276 -0.223,0.5 -0.5,0.5zM16.5,56h-2c-0.276,0 -0.5,-0.224 -0.5,-0.5c0,-0.276 0.224,-0.5 0.5,-0.5h2c0.276,0 0.5,0.224 0.5,0.5c0,0.276 -0.224,0.5 -0.5,0.5zM19.5,47c-0.177,0 -0.823,0 -1,0c-0.276,0 -0.5,0.224 -0.5,0.5c0,0.276 0.224,0.5 0.5,0.5c0.177,0 0.823,0 1,0c0.276,0 0.5,-0.224 0.5,-0.5c0,-0.276 -0.224,-0.5 -0.5,-0.5zM19.5,49c-0.177,0 -4.823,0 -5,0c-0.276,0 -0.5,0.224 -0.5,0.5c0,0.276 0.224,0.5 0.5,0.5c0.177,0 4.823,0 5,0c0.276,0 0.5,-0.224 0.5,-0.5c0,-0.276 -0.224,-0.5 -0.5,-0.5zM24.5,51c-0.177,0 -2.823,0 -3,0c-0.276,0 -0.5,0.224 -0.5,0.5c0,0.276 0.224,0.5 0.5,0.5c0.177,0 2.823,0 3,0c0.276,0 0.5,-0.224 0.5,-0.5c0,-0.276 -0.224,-0.5 -0.5,-0.5zM45.5,21h-10c-0.276,0 -0.5,-0.224 -0.5,-0.5c0,-0.276 0.224,-0.5 0.5,-0.5h10c0.276,0 0.5,0.224 0.5,0.5c0,0.276 -0.224,0.5 -0.5,0.5zM49.5,21h-2c-0.276,0 -0.5,-0.224 -0.5,-0.5c0,-0.276 0.224,-0.5 0.5,-0.5h2c0.276,0 0.5,0.224 0.5,0.5c0,0.276 -0.224,0.5 -0.5,0.5zM54.5,23h-10c-0.276,0 -0.5,-0.224 -0.5,-0.5c0,-0.276 0.224,-0.5 0.5,-0.5h10c0.276,0 0.5,0.224 0.5,0.5c0,0.276 -0.223,0.5 -0.5,0.5zM42.5,23h-1c-0.276,0 -0.5,-0.224 -0.5,-0.5c0,-0.276 0.224,-0.5 0.5,-0.5h1c0.276,0 0.5,0.224 0.5,0.5c0,0.276 -0.224,0.5 -0.5,0.5zM39.375,23h-1.875c-0.276,0 -0.5,-0.224 -0.5,-0.5c0,-0.276 0.224,-0.5 0.5,-0.5h1.875c0.276,0 0.5,0.224 0.5,0.5c0,0.276 -0.224,0.5 -0.5,0.5zM48.5,19h-5c-0.276,0 -0.5,-0.224 -0.5,-0.5c0,-0.276 0.224,-0.5 0.5,-0.5h5c0.276,0 0.5,0.224 0.5,0.5c0,0.276 -0.223,0.5 -0.5,0.5zM45.5,25h-2c-0.276,0 -0.5,-0.224 -0.5,-0.5c0,-0.276 0.224,-0.5 0.5,-0.5h2c0.276,0 0.5,0.224 0.5,0.5c0,0.276 -0.224,0.5 -0.5,0.5z" fill="#0a192f"></path><path d="M68.218,74c-0.087,-1.736 -0.156,-3.078 -0.156,-3.078c-0.304,-1.612 -0.962,-2.557 -2.511,-3.025c-0.067,-0.02 -0.158,-0.053 -0.26,-0.092c-0.118,-0.051 -0.266,-0.111 -0.44,-0.179c-0.508,-0.215 -5.505,-1.959 -7.111,-2.557c-2.192,1.544 -3.177,2.139 -4.64,2.139c-1.559,0 -3.023,-0.681 -4.627,-2.254l-2.432,0.898c-0.006,-0.003 -0.012,-0.006 -0.018,-0.01l-0.236,0.062l-3.329,1.207c-0.592,0.155 -1.16,0.376 -1.66,0.684c-1.347,0.831 -2.029,2.08 -2.376,3.126c0,0 -0.352,2.491 -0.338,2.581c-0.006,0.064 -0.012,0.245 -0.018,0.497h30.152z" fill="#112240"></path><path d="M49.419,70.073c0.287,0.774 -0.142,1.889 -0.163,2.677c-0.012,0.444 0.021,0.854 0.077,1.25h8.121c0.249,-0.379 0.521,-0.748 0.828,-1.105c-0.551,-0.693 -0.936,-1.496 -1.496,-2.181c-0.135,-0.165 -0.145,-0.368 0,-0.531c0.315,-0.355 0.754,-0.535 1.184,-0.713c0.473,-0.195 0.932,-0.409 1.41,-0.585c-0.302,-1.253 -0.898,-2.388 -1.643,-3.436c-0.099,-0.139 -0.079,-0.273 -0.004,-0.375c-2.186,1.54 -3.172,2.134 -4.633,2.134c-1.49,0 -2.976,-0.599 -4.359,-2.087c-0.184,1.143 -1.221,2.686 -0.453,3.808c0.305,0.444 0.928,0.597 1.131,1.144z" fill="#fdfcef"></path><path d="M51.884,70.701l-1.242,-3.093h4.973l-1.242,3.093c-0.553,1.094 -1.936,1.094 -2.489,0z" fill="#233554"></path><path d="M48.611,64.738l-1.055,0.846l2.764,5.967l2.97,-4.28c0,0 -4.46,-1.334 -4.679,-2.533z" fill="#e1e0d8"></path><path d="M57.448,64.738l1.216,0.732l-2.925,6.081l-2.97,-4.28c0,0 4.459,-1.334 4.679,-2.533z" fill="#e1e0d8"></path><path d="M62.274,50.96c-0.088,-0.006 -0.177,-0.007 -0.27,-0.007c-0.725,-0.035 -0.932,0.254 -0.899,-0.195c0.058,-0.797 -0.053,-4.028 -0.053,-4.191c0,-3.348 -3.496,-6.079 -7.864,-6.231v-0.01c-0.03,0.001 -0.058,0.004 -0.088,0.005c-0.03,-0.001 -0.058,-0.004 -0.088,-0.005v0.01c-4.368,0.151 -7.864,2.882 -7.864,6.231c0,0.163 -0.111,3.394 -0.053,4.191c0.033,0.449 -0.173,0.159 -0.899,0.195c-0.093,0 -0.182,0.001 -0.27,0.007c-0.795,0.053 -1.438,0.559 -1.575,1.185c0.097,0.059 0.459,2.803 1.046,3.885c0.327,0.604 0.838,0.688 1.364,1.077c0.291,0.216 0.347,0.459 0.427,0.782c0.295,1.195 1.113,2.211 2.009,3.077c0.443,0.428 3.38,3.56 5.904,3.401c2.536,-0.095 5.461,-2.973 5.904,-3.401c0.897,-0.867 1.715,-1.883 2.009,-3.077c0.08,-0.323 0.135,-0.566 0.427,-0.782c0.525,-0.39 1.036,-0.474 1.364,-1.077c0.586,-1.081 0.948,-3.825 1.046,-3.885c-0.139,-0.626 -0.782,-1.132 -1.577,-1.185z" fill="#db9e71"></path><path d="M53.146,56.264c0.513,0 1.01,-0.224 1.331,-0.599c0.032,-0.038 0.028,-0.095 -0.01,-0.127v0c-0.038,-0.032 -0.094,-0.029 -0.127,0.009c-0.261,0.298 -0.696,0.469 -1.194,0.469c-0.498,0 -0.933,-0.171 -1.194,-0.469c-0.018,-0.02 -0.043,-0.031 -0.068,-0.031c-0.021,0 -0.042,0.007 -0.059,0.022c-0.037,0.032 -0.042,0.089 -0.01,0.127c0.32,0.375 0.818,0.599 1.331,0.599zM51.509,49.332l0.325,-0.625c-1.377,-0.323 -2.961,-0.271 -4.269,0.135l0.41,0.609c1.076,-0.355 2.398,-0.4 3.534,-0.119z" fill="#512c2b"></path><path d="M58.473,74l0.758,-1.322l-1.979,-2.265l3.068,-1.132c-1.292,-4.151 -3.068,-4.906 -3.068,-4.906c-0.402,3.11 -1.066,6.557 -1.731,9.626h2.952zM46.795,72.678l0.746,1.322h2.931c-0.647,-3.069 -1.296,-6.516 -1.699,-9.626c0,0 -1.776,0.755 -3.069,4.906l3.069,1.132z" fill="#233554"></path><path d="M58.401,49.332l0.325,-0.625c-1.377,-0.323 -2.961,-0.271 -4.269,0.135l0.41,0.609c1.075,-0.355 2.398,-0.4 3.534,-0.119zM49.528,50.214c-0.331,0 -0.621,0.219 -0.788,0.549c0.042,-0.013 0.085,-0.022 0.131,-0.022c0.271,0 0.491,0.245 0.491,0.548c0,0.303 -0.22,0.548 -0.491,0.548c-0.089,0 -0.171,-0.028 -0.243,-0.074c0.116,0.496 0.475,0.858 0.901,0.858c0.519,0 0.94,-0.539 0.94,-1.204c-0.001,-0.664 -0.422,-1.203 -0.941,-1.203zM56.724,50.214c-0.282,0 -0.535,0.16 -0.707,0.412c0.054,-0.023 0.112,-0.037 0.173,-0.037c0.271,0 0.491,0.245 0.491,0.548c0,0.303 -0.22,0.548 -0.491,0.548c-0.168,0 -0.316,-0.095 -0.405,-0.239c0.012,0.651 0.428,1.174 0.939,1.174c0.519,0 0.94,-0.539 0.94,-1.204c0,-0.663 -0.421,-1.202 -0.94,-1.202z" fill="#512c2b"></path><path d="M46.616,75.047c-5.419,0 -8.484,-0.046 -8.53,-0.047c-0.261,-0.004 -0.475,-0.208 -0.491,-0.469c-0.005,-0.083 -0.12,-2.036 0.347,-3.646c0.49,-1.689 1.097,-2.487 2.594,-3.411c0.506,-0.313 1.11,-0.563 1.796,-0.742l5.309,-1.927c0.367,-0.097 0.614,-0.319 0.645,-0.477c0.017,-0.085 0.058,-0.393 0.109,-1.445c-0.751,-0.533 -1.363,-1.013 -1.547,-1.192c-1.189,-1.162 -1.872,-2.228 -2.146,-3.351c-0.077,-0.316 -0.104,-0.407 -0.241,-0.511c-0.15,-0.112 -0.301,-0.196 -0.444,-0.277c-0.36,-0.203 -0.769,-0.434 -1.06,-0.975c-0.649,-1.211 -1.104,-3.426 -1.104,-4.165c0,-0.035 0.004,-0.07 0.012,-0.105c0.187,-0.869 1.021,-1.523 2.029,-1.592c0.102,-0.007 0.205,-0.007 0.31,-0.008c0.14,-0.009 0.269,-0.003 0.382,0.008c-0.02,-0.943 0.031,-2.728 0.055,-3.556l0.01,-0.388c0,-3.624 3.615,-6.595 8.249,-6.797c0.037,-0.009 0.075,-0.014 0.115,-0.014c0.007,0 0.098,0.005 0.104,0.005c0.029,0 0.06,0.003 0.089,0.008v-0.003c4.681,0.165 8.347,3.151 8.347,6.801l0.01,0.386c0.023,0.839 0.074,2.659 0.055,3.559c0.125,-0.012 0.258,-0.017 0.411,-0.008c0.077,-0.003 0.179,0.001 0.279,0.007c1.009,0.068 1.844,0.723 2.03,1.592c0.008,0.035 0.012,0.07 0.012,0.105c0,0.827 -0.475,2.987 -1.105,4.165c-0.29,0.541 -0.698,0.771 -1.059,0.975c-0.144,0.081 -0.294,0.165 -0.445,0.278c-0.136,0.102 -0.163,0.193 -0.236,0.492c-0.277,1.141 -0.959,2.205 -2.149,3.368c-0.185,0.181 -0.82,0.704 -1.647,1.303c0.002,0.871 0.112,1.178 0.148,1.255c0.138,0.293 0.34,0.475 0.603,0.542c0.278,0.1 5.65,2.082 6.589,2.479c0.166,0.063 0.32,0.127 0.442,0.18c0.07,0.026 0.149,0.055 0.208,0.072c1.627,0.491 2.48,1.496 2.846,3.352c0.462,1.075 0.459,3.368 0.457,3.631c-0.006,0.274 -0.23,0.496 -0.504,0.496c-0.001,0 -0.002,0 -0.002,0c-0.079,0.001 -7.92,-0.037 -11.993,0c-3.836,0.035 -7.161,0.047 -9.889,0.047zM38.58,74.006c1.745,0.021 8.183,0.083 17.915,-0.006c3.478,-0.032 9.687,-0.011 11.499,-0.002c-0.022,-0.844 -0.114,-2.185 -0.385,-2.762c-0.018,-0.038 -0.03,-0.078 -0.038,-0.119c-0.29,-1.534 -0.877,-2.25 -2.164,-2.639c-0.077,-0.023 -0.18,-0.06 -0.295,-0.104c-0.132,-0.057 -0.274,-0.114 -0.441,-0.18c-0.932,-0.394 -6.453,-2.432 -6.509,-2.452c-0.502,-0.125 -0.949,-0.511 -1.212,-1.07c-0.065,-0.14 -0.268,-0.568 -0.241,-1.947c0.003,-0.158 0.081,-0.306 0.21,-0.397c0.905,-0.645 1.588,-1.207 1.736,-1.353c1.051,-1.026 1.646,-1.939 1.873,-2.872c0.088,-0.362 0.184,-0.752 0.611,-1.073c0.189,-0.142 0.375,-0.248 0.554,-0.349c0.312,-0.176 0.517,-0.292 0.67,-0.577c0.544,-1.016 0.962,-2.959 0.985,-3.636c-0.116,-0.405 -0.572,-0.72 -1.108,-0.756c-0.073,-0.005 -0.146,-0.006 -0.231,-0.006c-0.245,-0.012 -0.402,0.015 -0.529,0.034c-0.19,0.03 -0.454,0.072 -0.676,-0.132c-0.229,-0.209 -0.207,-0.508 -0.198,-0.635c0.046,-0.627 -0.019,-2.924 -0.042,-3.789c-0.007,-0.229 -0.011,-0.381 -0.011,-0.414c0,-3.107 -3.242,-5.656 -7.382,-5.801c-0.021,-0.001 -0.041,-0.003 -0.061,-0.006c-0.014,0 -0.023,0.001 -0.026,0.001v0v0c-0.018,0.002 -0.035,0.004 -0.054,0.005c-4.14,0.145 -7.382,2.693 -7.382,5.801c0,0.033 -0.004,0.186 -0.011,0.416c-0.024,0.864 -0.089,3.161 -0.043,3.786c0.009,0.127 0.031,0.426 -0.197,0.636c-0.221,0.202 -0.481,0.162 -0.676,0.132c-0.127,-0.021 -0.285,-0.04 -0.5,-0.035c-0.092,-0.002 -0.186,0.001 -0.262,0.007c-0.535,0.036 -0.991,0.351 -1.107,0.756c0.024,0.685 0.461,2.657 0.984,3.636c0.153,0.285 0.359,0.401 0.67,0.576c0.179,0.102 0.365,0.208 0.554,0.349c0.431,0.324 0.525,0.715 0.608,1.06c0.231,0.947 0.826,1.86 1.877,2.887c0.118,0.116 0.742,0.616 1.646,1.246c0.141,0.098 0.221,0.261 0.213,0.433c-0.065,1.483 -0.12,1.769 -0.138,1.862c-0.127,0.656 -0.761,1.097 -1.332,1.242l-5.307,1.926c-0.633,0.169 -1.146,0.379 -1.567,0.64c-1.292,0.798 -1.735,1.382 -2.158,2.84c-0.292,1.003 -0.328,2.199 -0.322,2.841z" fill="#0a192f"></path><path d="M62.395,54.636l-0.596,-0.066l0.136,-1.209l-0.642,0.277l-0.238,-0.551l1.117,-0.483c0.1,-0.042 0.213,-0.029 0.298,0.034c0.086,0.063 0.132,0.169 0.119,0.274zM44.051,54.378l-0.194,-1.724c-0.013,-0.106 0.033,-0.211 0.119,-0.274c0.086,-0.064 0.199,-0.078 0.298,-0.034l1.117,0.484l-0.238,0.551l-0.642,-0.278l0.136,1.209z" fill="#895d3d"></path><g fill="#0a192f"><path d="M45.131,57.758c-0.001,0 -0.003,0 -0.004,0c-0.11,-0.002 -0.198,-0.094 -0.196,-0.204l0.123,-6.498c0.002,-0.11 0.094,-0.191 0.204,-0.196c0.11,0.002 0.198,0.094 0.196,0.204l-0.123,6.498c-0.002,0.109 -0.092,0.196 -0.2,0.196z"></path></g><g fill="#0a192f"><path d="M61.194,57.758c-0.108,0 -0.198,-0.087 -0.2,-0.196l-0.123,-6.498c-0.002,-0.11 0.086,-0.202 0.196,-0.204c0.001,0 0.003,0 0.004,0c0.108,0 0.198,0.087 0.2,0.196l0.123,6.498c0.002,0.11 -0.086,0.202 -0.196,0.204c-0.001,0 -0.003,0 -0.004,0z"></path></g><g fill="#6d1b18"><path d="M50.53,58.678c-0.03,0.116 -0.048,0.236 -0.048,0.359c0,1.049 1.161,1.9 2.593,1.9c1.432,0 2.593,-0.851 2.593,-1.9c0,-0.123 -0.017,-0.242 -0.048,-0.359z"></path></g><g fill="#0a192f"><path d="M54.445,60.644c-0.228,-0.266 -0.755,-0.452 -1.37,-0.452c-0.615,0 -1.142,0.186 -1.37,0.452c0.398,0.183 0.865,0.293 1.37,0.293c0.505,0 0.972,-0.11 1.37,-0.293z"></path></g><g fill="#fdfcef"><path d="M51.273,58.678c-0.001,0.011 -0.005,0.022 -0.005,0.033v0.321c0,0.281 0.37,0.511 0.823,0.511h1.97c0.453,0 0.823,-0.23 0.823,-0.511v-0.321c0,-0.011 -0.004,-0.022 -0.005,-0.033z"></path></g><g fill="#0a192f"><path d="M53.075,61.137c-1.54,0 -2.793,-0.942 -2.793,-2.1c0,-0.136 0.019,-0.273 0.054,-0.409c0.022,-0.088 0.103,-0.149 0.193,-0.149h5.092c0.091,0 0.171,0.062 0.193,0.149c0.037,0.141 0.055,0.274 0.055,0.409c0,1.157 -1.254,2.1 -2.794,2.1zM50.693,58.879c-0.008,0.053 -0.011,0.105 -0.011,0.158c0,0.938 1.073,1.699 2.393,1.699c1.32,0 2.394,-0.762 2.394,-1.699c0,-0.053 -0.004,-0.104 -0.011,-0.158z"></path></g><g fill="#512c2b"><path d="M61.233,55.666c-0.55,1.592 -1.123,3.017 -1.545,3.973c-0.178,0.404 -0.778,0.43 -0.99,0.041c-0.361,-0.662 -0.98,-1.37 -1.817,-1.756c-2.029,-0.936 -3.606,0.216 -3.606,0.216c0.845,0.023 1.941,0.195 2.404,0.959c1.625,2.683 -2.311,3.119 -2.463,2.976c-0.153,0.143 -4.089,-0.293 -2.463,-2.976c0.463,-0.764 1.559,-0.936 2.404,-0.959c0,0 -1.578,-1.151 -3.606,-0.216c-0.836,0.386 -1.456,1.093 -1.817,1.756c-0.212,0.389 -0.812,0.363 -0.99,-0.041c-0.387,-0.875 -0.9,-2.148 -1.405,-3.578c-0.072,0.861 -0.205,1.715 -0.279,2.575c0.024,0.111 0.048,0.222 0.074,0.331c0.432,1.843 0.984,6.262 6.855,8.201c0.668,0.221 1.774,0.222 2.444,0.004c5.555,-1.809 6.346,-5.784 6.779,-7.805c-0.066,-1.23 -0.034,-2.463 0.021,-3.701z"></path></g><g fill="#233554"><path d="M54.392,74l0.083,-1.91c-0.598,-1.239 -2.094,-1.239 -2.693,0l-0.021,1.91z"></path></g><g><path d="M36.178,82.287c1.883,0 3.517,0 3.54,0c2.11,0 3.821,-1.674 3.821,-3.739c0,-1.802 -1.302,-3.305 -3.035,-3.66c0.02,-0.158 0.034,-0.317 0.034,-0.48c0,-2.139 -1.772,-3.873 -3.957,-3.873c-1.29,0 -2.433,0.607 -3.155,1.543c-0.185,-2.381 -2.358,-4.218 -4.9,-3.913c-1.859,0.223 -3.397,1.629 -3.739,3.431c-0.11,0.578 -0.098,1.139 0.011,1.665c-0.498,-0.525 -1.208,-0.856 -1.998,-0.856c-1.446,0 -2.627,1.102 -2.72,2.494c-0.657,-0.142 -1.371,-0.133 -2.123,0.143c-1.438,0.528 -2.462,1.853 -2.522,3.356c-0.085,2.133 1.657,3.889 3.818,3.889c0.164,0 0.741,0 0.874,0h7.934M29.701,82.287h0.36" fill="#fdfcef"></path><path d="M39.718,82.788h-3.54c-0.276,0 -0.5,-0.224 -0.5,-0.5c0,-0.276 0.224,-0.5 0.5,-0.5h3.54c1.831,0 3.321,-1.453 3.321,-3.239c0,-1.524 -1.108,-2.858 -2.636,-3.17c-0.256,-0.053 -0.429,-0.294 -0.396,-0.554c0.018,-0.137 0.03,-0.275 0.03,-0.417c0,-1.86 -1.551,-3.373 -3.457,-3.373c-1.092,0 -2.098,0.491 -2.76,1.349c-0.126,0.164 -0.341,0.231 -0.539,0.174c-0.198,-0.06 -0.339,-0.234 -0.355,-0.44c-0.079,-1.02 -0.565,-1.944 -1.369,-2.604c-0.829,-0.68 -1.885,-0.979 -2.973,-0.853c-1.646,0.197 -3.006,1.442 -3.307,3.027c-0.094,0.495 -0.091,0.99 0.009,1.472c0.045,0.219 -0.06,0.441 -0.258,0.545c-0.197,0.102 -0.44,0.063 -0.594,-0.1c-0.428,-0.451 -1.009,-0.7 -1.635,-0.7c-1.169,0 -2.145,0.891 -2.221,2.027c-0.01,0.146 -0.082,0.278 -0.198,0.366c-0.116,0.087 -0.264,0.12 -0.406,0.089c-0.639,-0.138 -1.243,-0.098 -1.846,0.125c-1.262,0.463 -2.144,1.631 -2.195,2.905c-0.035,0.876 0.283,1.709 0.895,2.346c0.635,0.66 1.496,1.024 2.423,1.024h8.807c0.276,0 0.5,0.224 0.5,0.5c0,0.276 -0.224,0.5 -0.5,0.5h-8.807c-1.185,0 -2.331,-0.485 -3.144,-1.331c-0.803,-0.836 -1.219,-1.929 -1.173,-3.078c0.067,-1.675 1.212,-3.204 2.849,-3.806c0.61,-0.225 1.24,-0.304 1.88,-0.244c0.344,-1.396 1.629,-2.424 3.135,-2.424c0.493,0 0.977,0.113 1.414,0.323c0.009,-0.242 0.037,-0.484 0.083,-0.727c0.381,-2.009 2.096,-3.585 4.17,-3.833c1.365,-0.167 2.685,0.218 3.726,1.071c0.748,0.613 1.278,1.409 1.546,2.302c0.791,-0.648 1.786,-1.007 2.842,-1.007c2.458,0 4.457,1.962 4.457,4.373c0,0.034 0,0.068 -0.001,0.103c1.764,0.555 3.003,2.188 3.003,4.038c0.001,2.339 -1.937,4.241 -4.32,4.241zM30.061,82.788h-0.36c-0.276,0 -0.5,-0.224 -0.5,-0.5c0,-0.276 0.224,-0.5 0.5,-0.5h0.36c0.276,0 0.5,0.224 0.5,0.5c0,0.276 -0.224,0.5 -0.5,0.5z" fill="#0a192f"></path><g fill="#0a192f"><path d="M38.011,76.984c-0.018,0 -0.036,-0.002 -0.055,-0.006c-0.135,-0.03 -0.22,-0.164 -0.189,-0.299c0.037,-0.164 0.094,-0.325 0.17,-0.479c0.604,-1.224 2.272,-1.677 3.722,-1.007c0.125,0.058 0.18,0.206 0.122,0.331c-0.058,0.126 -0.207,0.179 -0.332,0.122c-1.201,-0.556 -2.577,-0.208 -3.063,0.774c-0.058,0.118 -0.102,0.242 -0.13,0.367c-0.027,0.118 -0.13,0.197 -0.245,0.197z"></path></g></g><g fill="#0a192f"><path d="M32.852,82.788h-1.107c-0.276,0 -0.5,-0.224 -0.5,-0.5c0,-0.276 0.224,-0.5 0.5,-0.5h1.107c0.276,0 0.5,0.224 0.5,0.5c0,0.276 -0.223,0.5 -0.5,0.5z"></path></g></g></g></svg>