<svg xmlns="http://www.w3.org/2000/svg" xmlns:xlink="http://www.w3.org/1999/xlink" viewBox="0,0,256,256" width="100px" height="100px" fill-rule="nonzero"><g fill="none" fill-rule="nonzero" stroke="none" stroke-width="1" stroke-linecap="butt" stroke-linejoin="miter" stroke-miterlimit="10" stroke-dasharray="" stroke-dashoffset="0" font-family="none" font-weight="none" font-size="none" text-anchor="none" style="mix-blend-mode: normal"><g transform="scale(2.56,2.56)"><path d="M87.215,56.71c1.135,-2.155 1.785,-4.605 1.785,-7.21c0,-6.621 -4.159,-12.257 -10.001,-14.478c0,-0.007 0.001,-0.014 0.001,-0.022c0,-11.598 -9.402,-21 -21,-21c-9.784,0 -17.981,6.701 -20.313,15.757c-1.476,-0.485 -3.049,-0.757 -4.687,-0.757c-7.692,0 -14.023,5.793 -14.89,13.252c-5.204,1.101 -9.11,5.717 -9.11,11.248c0,6.351 5.149,11.5 11.5,11.5c0.177,0 0.352,-0.012 0.526,-0.022c-0.004,0.175 -0.026,0.346 -0.026,0.522c0,11.322 9.178,20.5 20.5,20.5c6.437,0 12.175,-2.972 15.934,-7.614c2.178,2.225 5.206,3.614 8.566,3.614c4.65,0 8.674,-2.65 10.666,-6.518c1.052,0.335 2.171,0.518 3.334,0.518c6.075,0 11,-4.925 11,-11c0,-3.311 -1.47,-6.273 -3.785,-8.29z" fill="#c7ede6"></path><path d="M17.405,53h-9.905c-0.276,0 -0.5,-0.224 -0.5,-0.5c0,-0.276 0.224,-0.5 0.5,-0.5h9.905c0.276,0 0.5,0.224 0.5,0.5c0,0.276 -0.223,0.5 -0.5,0.5zM20.5,53h-1c-0.276,0 -0.5,-0.224 -0.5,-0.5c0,-0.276 0.224,-0.5 0.5,-0.5h1c0.276,0 0.5,0.224 0.5,0.5c0,0.276 -0.223,0.5 -0.5,0.5zM25.491,55h-8.991c-0.276,0 -0.5,-0.224 -0.5,-0.5c0,-0.276 0.224,-0.5 0.5,-0.5h8.991c0.276,0 0.5,0.224 0.5,0.5c0,0.276 -0.224,0.5 -0.5,0.5zM14.5,55h-1c-0.276,0 -0.5,-0.224 -0.5,-0.5c0,-0.276 0.224,-0.5 0.5,-0.5h1c0.276,0 0.5,0.224 0.5,0.5c0,0.276 -0.223,0.5 -0.5,0.5zM11.5,55h-2c-0.276,0 -0.5,-0.224 -0.5,-0.5c0,-0.276 0.224,-0.5 0.5,-0.5h2c0.276,0 0.5,0.224 0.5,0.5c0,0.276 -0.223,0.5 -0.5,0.5zM17.5,57h-2c-0.276,0 -0.5,-0.224 -0.5,-0.5c0,-0.276 0.224,-0.5 0.5,-0.5h2c0.276,0 0.5,0.224 0.5,0.5c0,0.276 -0.224,0.5 -0.5,0.5zM20.5,48c-0.177,0 -0.823,0 -1,0c-0.276,0 -0.5,0.224 -0.5,0.5c0,0.276 0.224,0.5 0.5,0.5c0.177,0 0.823,0 1,0c0.276,0 0.5,-0.224 0.5,-0.5c0,-0.276 -0.224,-0.5 -0.5,-0.5zM20.5,50c-0.177,0 -4.823,0 -5,0c-0.276,0 -0.5,0.224 -0.5,0.5c0,0.276 0.224,0.5 0.5,0.5c0.177,0 4.823,0 5,0c0.276,0 0.5,-0.224 0.5,-0.5c0,-0.276 -0.224,-0.5 -0.5,-0.5zM25.5,52c-0.177,0 -2.823,0 -3,0c-0.276,0 -0.5,0.224 -0.5,0.5c0,0.276 0.224,0.5 0.5,0.5c0.177,0 2.823,0 3,0c0.276,0 0.5,-0.224 0.5,-0.5c0,-0.276 -0.224,-0.5 -0.5,-0.5zM86,67h-10c-0.276,0 -0.5,-0.224 -0.5,-0.5c0,-0.276 0.224,-0.5 0.5,-0.5h10c0.276,0 0.5,0.224 0.5,0.5c0,0.276 -0.224,0.5 -0.5,0.5zM90,67h-2c-0.276,0 -0.5,-0.224 -0.5,-0.5c0,-0.276 0.224,-0.5 0.5,-0.5h2c0.276,0 0.5,0.224 0.5,0.5c0,0.276 -0.224,0.5 -0.5,0.5zM95,69h-10c-0.276,0 -0.5,-0.224 -0.5,-0.5c0,-0.276 0.224,-0.5 0.5,-0.5h10c0.276,0 0.5,0.224 0.5,0.5c0,0.276 -0.223,0.5 -0.5,0.5zM83,69h-1c-0.276,0 -0.5,-0.224 -0.5,-0.5c0,-0.276 0.224,-0.5 0.5,-0.5h1c0.276,0 0.5,0.224 0.5,0.5c0,0.276 -0.224,0.5 -0.5,0.5zM79.875,69h-1.875c-0.276,0 -0.5,-0.224 -0.5,-0.5c0,-0.276 0.224,-0.5 0.5,-0.5h1.875c0.276,0 0.5,0.224 0.5,0.5c0,0.276 -0.224,0.5 -0.5,0.5zM89,65h-5c-0.276,0 -0.5,-0.224 -0.5,-0.5c0,-0.276 0.224,-0.5 0.5,-0.5h5c0.276,0 0.5,0.224 0.5,0.5c0,0.276 -0.223,0.5 -0.5,0.5zM86,71h-2c-0.276,0 -0.5,-0.224 -0.5,-0.5c0,-0.276 0.224,-0.5 0.5,-0.5h2c0.276,0 0.5,0.224 0.5,0.5c0,0.276 -0.224,0.5 -0.5,0.5z" fill="#0a192f"></path><g><path d="M69,36h-5.75c-2.485,0.75 -4.5,-1.265 -4.5,-3.75c0,-2.333 1.782,-4.229 4.055,-4.455c-0.022,-0.181 -0.055,-0.358 -0.055,-0.545c0,-2.485 2.015,-4.5 4.5,-4.5c1.438,0 2.703,0.686 3.527,1.736c0.14,-2.636 2.302,-4.736 4.973,-4.736c2.761,0 5,2.239 5,5c0,0.446 -0.077,0.87 -0.187,1.282c0.642,-0.777 1.6,-1.282 2.687,-1.282c1.781,0 3.234,1.335 3.455,3.055c0.181,-0.022 0.358,-0.055 0.545,-0.055c2.485,0 4.5,2.015 4.5,4.5c0,2.485 -2.015,4.5 -4.5,3.75h-9.5h-5.75v1h-3z" fill="#fdfcef"></path><path d="M75.5,19c3.033,0 5.5,2.467 5.5,5.5c0,0.016 0,0.031 0,0.047c0.602,-0.355 1.29,-0.547 2,-0.547c1.831,0 3.411,1.261 3.858,3.005c0.047,-0.003 0.094,-0.005 0.142,-0.005c3.099,0 5.549,2.834 4.893,6.047c-0.48,2.351 -2.689,3.953 -5.089,3.953h-14.679c-0.276,0 -0.5,-0.224 -0.5,-0.5c0,-0.276 0.224,-0.5 0.5,-0.5h14.718c1.92,0 3.687,-1.282 4.071,-3.163c0.525,-2.57 -1.435,-4.837 -3.914,-4.837c-0.117,0 -0.23,0.017 -0.343,0.032l-0.141,0.019c-0.021,0.003 -0.041,0.004 -0.062,0.004c-0.246,0 -0.462,-0.185 -0.495,-0.437c-0.191,-1.493 -1.463,-2.618 -2.959,-2.618c-0.885,0 -1.723,0.401 -2.301,1.1c-0.098,0.118 -0.241,0.182 -0.386,0.182c-0.078,0 -0.156,-0.018 -0.228,-0.056c-0.209,-0.107 -0.314,-0.346 -0.254,-0.573c0.16,-0.6 0.202,-1.069 0.147,-1.549c-0.24,-2.127 -1.959,-3.909 -4.092,-4.088c-2.551,-0.215 -4.725,1.728 -4.859,4.246c-0.011,0.208 -0.15,0.387 -0.349,0.45c-0.05,0.016 -0.101,0.024 -0.152,0.024c-0.15,0 -0.296,-0.069 -0.392,-0.192c-0.772,-0.981 -1.913,-1.544 -3.134,-1.544c-2.206,0 -4,1.794 -4,4c0,0.117 0.017,0.23 0.032,0.343l0.019,0.141c0.016,0.134 -0.022,0.268 -0.106,0.373c-0.084,0.105 -0.207,0.172 -0.34,0.185c-2.352,0.234 -4.042,2.429 -3.504,4.865c0.408,1.853 2.174,3.093 4.072,3.093h5.952c0.276,0 0.5,0.224 0.5,0.5c0,0.276 -0.224,0.5 -0.5,0.5h-5.938c-2.467,0 -4.708,-1.704 -5.115,-4.138c-0.462,-2.763 1.344,-5.22 3.931,-5.74c-0.002,-0.04 -0.003,-0.081 -0.003,-0.122c0,-2.757 2.243,-5 5,-5c1.176,0 2.293,0.416 3.183,1.164c0.598,-2.404 2.762,-4.164 5.317,-4.164z" fill="#0a192f"></path><path d="M77.25,26.25c1.403,0 2.609,0.999 2.913,2.341c0.367,-0.222 0.786,-0.341 1.212,-0.341c1.202,0 2.198,0.897 2.353,2.068c0.203,-0.045 0.396,-0.068 0.585,-0.068c1.529,0 2.811,1.2 2.918,2.732c0.009,0.138 -0.094,0.257 -0.232,0.267c-0.006,0 -0.012,0 -0.018,0c-0.13,0 -0.24,-0.101 -0.249,-0.232c-0.089,-1.271 -1.151,-2.268 -2.419,-2.268c-0.229,0 -0.47,0.042 -0.738,0.127c-0.022,0.007 -0.045,0.01 -0.067,0.01c-0.055,0 -0.11,-0.02 -0.156,-0.054c-0.064,-0.047 -0.102,-0.129 -0.102,-0.209c0,-1.034 -0.841,-1.875 -1.875,-1.875c-0.447,0 -0.885,0.168 -1.231,0.473c-0.047,0.041 -0.106,0.063 -0.165,0.063c-0.032,0 -0.063,-0.006 -0.093,-0.019c-0.088,-0.035 -0.148,-0.117 -0.155,-0.212c-0.102,-1.292 -1.191,-2.305 -2.479,-2.305c-0.208,0 -0.425,0.034 -0.682,0.107c-0.023,0.007 -0.047,0.01 -0.07,0.01c-0.109,0 -0.207,-0.073 -0.239,-0.182c-0.038,-0.133 0.039,-0.271 0.172,-0.309c0.3,-0.084 0.561,-0.124 0.817,-0.124zM63.367,27.75c1.326,0 2.508,0.897 2.874,2.182c0.038,0.133 -0.039,0.271 -0.172,0.309c-0.023,0.007 -0.046,0.01 -0.068,0.01c-0.109,0 -0.209,-0.072 -0.24,-0.182c-0.305,-1.071 -1.289,-1.818 -2.393,-1.818c-0.117,0 -0.23,0.014 -0.342,0.029c-0.012,0.002 -0.023,0.003 -0.035,0.003c-0.121,0 -0.229,-0.092 -0.246,-0.217c-0.019,-0.137 0.077,-0.263 0.214,-0.281c0.133,-0.019 0.269,-0.035 0.408,-0.035z" fill="#0a192f"></path></g><g><path d="M25.25,82.5c0,0 -1.567,0 -3.5,0c-1.933,0 -3.5,-1.567 -3.5,-3.5c0,-1.781 1.335,-3.234 3.055,-3.455c-0.028,-0.179 -0.055,-0.358 -0.055,-0.545c0,-1.933 1.567,-3.5 3.5,-3.5c1.032,0 1.95,0.455 2.59,1.165c0.384,-1.808 1.987,-3.165 3.91,-3.165c2.209,0 4,1.791 4,4c0,0.191 -0.03,0.374 -0.056,0.558c0.428,-0.344 0.965,-0.558 1.556,-0.558c1.228,0 2.245,0.887 2.455,2.055c0.179,-0.028 0.358,-0.055 0.545,-0.055c1.933,0 3.5,1.567 3.5,3.5c0,1.933 -1.567,3.5 -3.5,3.5c-1.933,0 -7.5,0 -7.5,0v0.5h-7z" fill="#fdfcef"></path><path d="M23.5,78c0.138,0 0.25,-0.112 0.25,-0.25c0,-1.223 -0.995,-2.218 -2.218,-2.218c-0.034,0.009 -0.737,-0.001 -1.244,0.136c-0.133,0.036 -0.212,0.173 -0.176,0.306c0.036,0.134 0.173,0.213 0.306,0.176c0.444,-0.12 1.1,-0.12 1.113,-0.118c0.948,0 1.719,0.771 1.719,1.718c0,0.138 0.112,0.25 0.25,0.25zM30.25,82c-0.27614,0 -0.5,0.22386 -0.5,0.5c0,0.27614 0.22386,0.5 0.5,0.5c0.27614,0 0.5,-0.22386 0.5,-0.5c0,-0.27614 -0.22386,-0.5 -0.5,-0.5z" fill="#0a192f"></path><path d="M21.75,83h3.5c0.276,0 0.5,-0.224 0.5,-0.5c0,-0.276 -0.224,-0.5 -0.5,-0.5h-3.5c-1.654,0 -3,-1.346 -3,-3c0,-1.496 1.125,-2.768 2.618,-2.959c0.134,-0.018 0.255,-0.088 0.336,-0.196c0.081,-0.108 0.115,-0.244 0.094,-0.377c-0.023,-0.154 -0.048,-0.308 -0.048,-0.468c0,-1.654 1.346,-3 3,-3c0.85,0 1.638,0.355 2.219,1c0.125,0.139 0.321,0.198 0.5,0.148c0.182,-0.049 0.321,-0.195 0.36,-0.379c0.341,-1.604 1.78,-2.769 3.421,-2.769c1.93,0 3.5,1.57 3.5,3.5c0,0.143 -0.021,0.28 -0.041,0.418c-0.029,0.203 0.063,0.438 0.242,0.54c0.179,0.102 0.396,0.118 0.556,-0.01c0.365,-0.293 0.794,-0.448 1.243,-0.448c0.966,0 1.792,0.691 1.963,1.644c0.048,0.267 0.296,0.446 0.569,0.405c0.154,-0.024 0.308,-0.049 0.468,-0.049c1.654,0 3,1.346 3,3c0,1.654 -1.346,3 -3,3h-7.5c-0.276,0 -0.5,0.224 -0.5,0.5c0,0.276 0.224,0.5 0.5,0.5h7.5c2.206,0 4,-1.794 4,-4c0,-2.206 -1.794,-4 -4,-4c-0.059,0 -0.116,0.002 -0.174,0.006c-0.414,-1.186 -1.537,-2.006 -2.826,-2.006c-0.349,0 -0.689,0.061 -1.011,0.18c-0.165,-2.333 -2.115,-4.18 -4.489,-4.18c-1.831,0 -3.466,1.127 -4.153,2.774c-0.68,-0.498 -1.502,-0.774 -2.347,-0.774c-2.206,0 -4,1.794 -4,4c0,0.048 0.001,0.095 0.004,0.142c-1.743,0.448 -3.004,2.027 -3.004,3.858c0,2.206 1.794,4 4,4z" fill="#0a192f"></path><path d="M27.25,82c0.159,0 0.841,0 1,0c0.276,0 0.5,0.224 0.5,0.5c0,0.276 -0.224,0.5 -0.5,0.5c-0.159,0 -0.841,0 -1,0c-0.276,0 -0.5,-0.224 -0.5,-0.5c0,-0.276 0.224,-0.5 0.5,-0.5z" fill="#0a192f"></path></g><g><path d="M77,51h-3.101c-0.949,-9.985 -8.914,-17.95 -18.899,-18.898v-3.602c0,-1.104 -0.896,-2 -2,-2c-1.104,0 -2,0.896 -2,2v3.599c-9.3,0.88 -16.992,7.827 -18.669,17.169c-0.103,0.571 -0.177,1.15 -0.232,1.732h-3.099c-1.316,0 -2.335,1.271 -1.897,2.652c0.264,0.833 1.107,1.348 1.982,1.348h3.02c0.045,0.472 0.095,0.942 0.171,1.406c1.555,9.53 9.274,16.614 18.724,17.497v3.597c0,1.104 0.896,2 2,2c1.104,0 2,-0.896 2,-2v-3.602c9.985,-0.948 17.95,-8.913 18.899,-18.898h3.017c0.874,0 1.717,-0.515 1.981,-1.348c0.438,-1.381 -0.581,-2.652 -1.897,-2.652zM55,69.872v-7.372c0,-1.104 -0.896,-2 -2,-2c-1.104,0 -2,0.896 -2,2v7.371c-7.475,-0.868 -13.54,-6.526 -14.777,-14.109c-0.041,-0.251 -0.063,-0.508 -0.093,-0.762h7.785c0.874,0 1.717,-0.515 1.981,-1.348c0.439,-1.381 -0.58,-2.652 -1.896,-2.652h-7.869c0.04,-0.343 0.076,-0.687 0.137,-1.024c1.334,-7.433 7.376,-12.981 14.732,-13.845v7.369c0,1.104 0.896,2 2,2c1.104,0 2,-0.896 2,-2v-7.372c7.776,0.917 13.955,7.096 14.872,14.872h-7.872c-1.316,0 -2.335,1.271 -1.897,2.652c0.264,0.833 1.107,1.348 1.982,1.348h7.787c-0.917,7.776 -7.096,13.955 -14.872,14.872z" fill="#64ffda"></path><path d="M53,80.2c-1.489,0 -2.7,-1.211 -2.7,-2.7v-2.969c-9.512,-1.171 -17.161,-8.494 -18.715,-18.013c-0.045,-0.271 -0.081,-0.544 -0.112,-0.818h-2.388c-1.218,0 -2.307,-0.755 -2.648,-1.837c-0.272,-0.855 -0.132,-1.751 0.384,-2.456c0.506,-0.693 1.322,-1.107 2.179,-1.107h2.471c0.048,-0.403 0.104,-0.785 0.171,-1.156c1.674,-9.324 9.299,-16.508 18.658,-17.673v-2.971c0,-1.489 1.211,-2.7 2.7,-2.7c1.489,0 2.7,1.211 2.7,2.7v2.975c9.825,1.224 17.602,9 18.825,18.825h2.475c0.857,0 1.673,0.414 2.18,1.107c0.516,0.705 0.656,1.601 0.384,2.457c-0.342,1.081 -1.431,1.836 -2.648,1.836h-2.39c-1.224,9.825 -9,17.602 -18.825,18.825v2.975c-0.001,1.489 -1.212,2.7 -2.701,2.7zM29,51.7c-0.419,0 -0.802,0.194 -1.05,0.533c-0.253,0.346 -0.316,0.774 -0.18,1.207c0.16,0.507 0.701,0.859 1.314,0.859h3.657l0.06,0.636c0.042,0.455 0.091,0.909 0.164,1.357c1.486,9.101 8.929,16.056 18.1,16.913l0.635,0.06v4.235c0,0.717 0.583,1.3 1.3,1.3c0.717,0 1.3,-0.583 1.3,-1.3v-4.238l0.634,-0.061c9.667,-0.918 17.35,-8.601 18.268,-18.268l0.061,-0.634h3.653c0.613,0 1.154,-0.353 1.314,-0.858c0.137,-0.434 0.073,-0.862 -0.18,-1.208c-0.248,-0.338 -0.631,-0.533 -1.05,-0.533h-3.738l-0.061,-0.634c-0.918,-9.667 -8.601,-17.35 -18.268,-18.268l-0.633,-0.06v-4.238c0,-0.717 -0.583,-1.3 -1.3,-1.3c-0.717,0 -1.3,0.583 -1.3,1.3v4.235l-0.634,0.061c-9.025,0.854 -16.445,7.678 -18.046,16.596c-0.094,0.521 -0.167,1.068 -0.224,1.674l-0.06,0.635h-3.736zM54.3,70.658v-8.158c0,-0.717 -0.583,-1.3 -1.3,-1.3c-0.717,0 -1.3,0.583 -1.3,1.3v8.157l-0.781,-0.091c-7.92,-0.92 -14.104,-6.824 -15.387,-14.692c-0.03,-0.185 -0.052,-0.373 -0.071,-0.562l-0.119,-1.012h8.573c0.613,0 1.154,-0.353 1.314,-0.858c0.137,-0.434 0.073,-0.862 -0.18,-1.208c-0.247,-0.339 -0.63,-0.534 -1.049,-0.534h-8.658l0.114,-0.954c0.035,-0.3 0.07,-0.6 0.124,-0.895c1.383,-7.708 7.547,-13.502 15.338,-14.416l0.782,-0.092v8.157c0,0.717 0.583,1.3 1.3,1.3c0.717,0 1.3,-0.583 1.3,-1.3v-8.158l0.782,0.092c8.156,0.961 14.523,7.328 15.484,15.484l0.092,0.782h-8.658c-0.419,0 -0.802,0.194 -1.05,0.533c-0.253,0.346 -0.316,0.774 -0.18,1.207c0.16,0.507 0.701,0.859 1.314,0.859h8.573l-0.092,0.782c-0.961,8.156 -7.328,14.523 -15.484,15.484zM36.922,55.7c1.157,6.957 6.48,12.237 13.378,13.366v-6.566c0,-1.489 1.211,-2.7 2.7,-2.7c1.489,0 2.7,1.211 2.7,2.7v6.564c6.874,-1.143 12.222,-6.49 13.364,-13.364h-6.979c-1.218,0 -2.307,-0.755 -2.648,-1.837c-0.272,-0.855 -0.132,-1.751 0.384,-2.456c0.506,-0.693 1.322,-1.107 2.179,-1.107h7.064c-1.143,-6.874 -6.49,-12.222 -13.364,-13.364v6.564c0,1.489 -1.211,2.7 -2.7,2.7c-1.489,0 -2.7,-1.211 -2.7,-2.7v-6.563c-6.802,1.124 -12.115,6.325 -13.342,13.163c-0.013,0.066 -0.023,0.133 -0.033,0.2h7.075c0.857,0 1.673,0.414 2.18,1.107c0.516,0.705 0.656,1.601 0.384,2.457c-0.342,1.081 -1.431,1.836 -2.648,1.836z" fill="#0a192f"></path></g><g fill="#0a192f"><path d="M41.103,49.034c-0.027,0 -0.056,-0.005 -0.084,-0.015c-0.13,-0.046 -0.198,-0.188 -0.151,-0.319c1.264,-3.563 4.016,-6.381 7.55,-7.728c0.13,-0.055 0.272,0.016 0.322,0.145c0.05,0.129 -0.016,0.273 -0.145,0.322c-3.396,1.295 -6.042,4.002 -7.257,7.429c-0.036,0.103 -0.133,0.166 -0.235,0.166z"></path></g><g fill="#0a192f"><path d="M48.767,65.15c-0.028,0 -0.057,-0.005 -0.084,-0.015c-3.673,-1.309 -6.524,-4.168 -7.822,-7.846c-0.046,-0.13 0.021,-0.272 0.152,-0.318c0.132,-0.049 0.272,0.022 0.318,0.152c1.229,3.482 4.041,6.302 7.52,7.541c0.13,0.046 0.198,0.189 0.151,0.319c-0.036,0.104 -0.133,0.167 -0.235,0.167z"></path></g><g fill="#0a192f"><path d="M57.006,65.231c-0.104,0 -0.202,-0.066 -0.237,-0.171c-0.044,-0.131 0.027,-0.272 0.158,-0.316c3.692,-1.233 6.622,-4.178 7.836,-7.877c0.043,-0.13 0.182,-0.203 0.315,-0.159c0.131,0.043 0.202,0.185 0.159,0.315c-1.263,3.848 -4.311,6.911 -8.152,8.195c-0.026,0.01 -0.053,0.013 -0.079,0.013z"></path></g><g fill="#0a192f"><path d="M64.936,49.122c-0.104,0 -0.2,-0.064 -0.236,-0.168c-0.498,-1.437 -1.25,-2.758 -2.237,-3.927c-0.089,-0.105 -0.075,-0.263 0.03,-0.353c0.105,-0.089 0.263,-0.075 0.353,0.03c1.026,1.216 1.809,2.59 2.327,4.085c0.045,0.131 -0.024,0.273 -0.154,0.318c-0.029,0.011 -0.056,0.015 -0.083,0.015z"></path></g><g fill="#0a192f"><path d="M61.165,43.624c-0.058,0 -0.114,-0.02 -0.162,-0.06c-1.101,-0.934 -2.343,-1.661 -3.691,-2.163c-0.13,-0.048 -0.195,-0.192 -0.147,-0.321c0.048,-0.129 0.193,-0.198 0.321,-0.147c1.403,0.521 2.696,1.279 3.842,2.251c0.104,0.089 0.118,0.247 0.028,0.353c-0.049,0.057 -0.121,0.087 -0.191,0.087z"></path></g></g></g></svg>