<?xml version="1.0" encoding="utf-8"?>
<!-- Generator: Adobe Illustrator 27.0.0, SVG Export Plug-In . SVG Version: 6.00 Build 0)  -->
<svg version="1.1" id="Warstwa_1" xmlns="http://www.w3.org/2000/svg" xmlns:xlink="http://www.w3.org/1999/xlink" x="0px" y="0px"
	 viewBox="0 0 96 96" style="enable-background:new 0 0 96 96;" xml:space="preserve">
<style type="text/css">
	.st0{fill:#FFFFFF;}
	.st1{fill:#4000BF;}
	.st2{fill:url(#SVGID_1_);}
</style>
<g>
	<path class="st0" d="M48,76.5c15.7,0,28.5-12.7,28.5-28.5S63.7,19.5,48,19.5S19.5,32.3,19.5,48C19.5,63.7,32.3,76.5,48,76.5z"/>
	<path class="st1" d="M48,18c-16.5,0-30,13.5-30,30s13.5,30,30,30s30-13.5,30-30S64.5,18,48,18z M48,21.1
		c14.9,0,26.9,12.1,26.9,26.9c0,14.9-12.1,26.9-26.9,26.9c-14.9,0-26.9-12.1-26.9-26.9C21.1,33.1,33.1,21.1,48,21.1z"/>
	
		<linearGradient id="SVGID_1_" gradientUnits="userSpaceOnUse" x1="-867.7665" y1="27.9059" x2="-867.7665" y2="27.6715" gradientTransform="matrix(182.2377 0 0 182.237 158188.1406 -5016.1284)">
		<stop  offset="0" style="stop-color:#7400E1"/>
		<stop  offset="1" style="stop-color:#4000BF"/>
	</linearGradient>
	<path class="st2" d="M48.4,26.6c11.8,0,21.4,9.5,21.4,21.4s-9.5,21.4-21.4,21.4S27,59.8,27,48c0-2.9,0.5-5.6,1.6-8.2
		c1.5,2.1,3.9,3.4,6.7,3.4c4.5,0,8.3-3.7,8.3-8.3c0-2.7-1.4-5.2-3.4-6.7C42.7,27.2,45.5,26.6,48.4,26.6z"/>
</g>
</svg>
