<?xml version="1.0" encoding="utf-8"?>
<!-- Generator: Adobe Illustrator 27.0.0, SVG Export Plug-In . SVG Version: 6.00 Build 0)  -->
<svg version="1.1" id="Warstwa_1" xmlns="http://www.w3.org/2000/svg" xmlns:xlink="http://www.w3.org/1999/xlink" x="0px" y="0px"
	 viewBox="0 0 256 192" style="enable-background:new 0 0 256 192;" xml:space="preserve">
<style type="text/css">
	.st0{fill:#2D4552;}
	.st1{fill:#E2574C;}
	.st2{fill:#2EAD33;}
	.st3{fill:#D65348;}
	.st4{fill:#1D8D22;}
	.st5{fill:#C04B41;}
</style>
<g>
	<path class="st0" d="M106.7,102c-4.7,1.3-7.7,3.6-9.7,6c1.9-1.7,4.5-3.2,8-4.2c3.6-1,6.6-1,9.1-0.5v-2
		C112,101,109.5,101.2,106.7,102z M96.7,85.4L79.4,90c0,0,0.3,0.4,0.9,1L95,87.2c0,0-0.2,2.7-2,5.1C96.4,89.7,96.7,85.4,96.7,85.4z
		 M111.2,126.2c-24.4,6.6-37.3-21.7-41.2-36.4c-1.8-6.8-2.6-11.9-2.8-15.2c0-0.3,0-0.6,0-0.9c-1.3,0.1-1.9,0.7-1.7,2.6
		c0.2,3.3,1,8.4,2.8,15.2c3.9,14.7,16.8,42.9,41.2,36.4c5.3-1.4,9.3-4,12.3-7.4C119,123,115.6,125,111.2,126.2z M115.8,68.1v1.7h9.6
		c-0.2-0.6-0.4-1.2-0.6-1.7H115.8z"/>
	<path class="st0" d="M127.5,82.4c4.3,1.2,6.6,4.2,7.8,6.9l4.8,1.4c0,0-0.7-9.3-9.1-11.7c-7.9-2.2-12.8,4.4-13.4,5.3
		C119.9,82.6,123.3,81.2,127.5,82.4z M165.7,89.4c-7.9-2.3-12.8,4.4-13.4,5.2c2.3-1.6,5.7-3,9.9-1.8c4.3,1.2,6.6,4.2,7.8,6.9
		l4.8,1.4C174.8,101.1,174.2,91.8,165.7,89.4z M161,114l-39.9-11.2c0,0,0.4,2.2,2.1,5l33.6,9.4C159.5,115.7,161,114,161,114z
		 M133.3,138c-31.6-8.5-27.8-48.7-22.7-67.8c2.1-7.9,4.3-13.7,6.1-17.6c-1.1-0.2-2,0.3-2.8,2.1c-1.9,3.9-4.3,10.2-6.7,19
		c-5.1,19.1-8.9,59.3,22.7,67.8c14.9,4,26.5-2.1,35.1-11.6C156.7,137.3,146.3,141.5,133.3,138z"/>
	<path class="st1" d="M115.8,116.7v-8.1L93.3,115c0,0,1.7-9.7,13.4-13c3.6-1,6.6-1,9.1-0.5V68.1h11.3c-1.2-3.8-2.4-6.7-3.4-8.8
		c-1.7-3.4-3.3-1.1-7.2,2.1c-2.7,2.3-9.6,7.1-19.9,9.9c-10.3,2.8-18.6,2-22.1,1.4c-4.9-0.9-7.5-1.9-7.3,1.8c0.2,3.3,1,8.4,2.8,15.2
		c3.9,14.7,16.8,42.9,41.2,36.4c6.4-1.7,10.9-5.1,14-9.4L115.8,116.7L115.8,116.7z M79.4,90l17.3-4.6c0,0-0.5,6.7-7,8.4
		C83.2,95.5,79.4,90,79.4,90z"/>
	<path class="st2" d="M181.1,68.5c-4.5,0.8-15.3,1.8-28.7-1.8c-13.4-3.6-22.2-9.8-25.7-12.8c-5-4.2-7.2-7.1-9.3-2.7
		c-1.9,3.9-4.3,10.2-6.7,19c-5.1,19.1-8.9,59.3,22.7,67.8c31.6,8.5,48.4-28.3,53.5-47.4c2.4-8.8,3.4-15.5,3.7-19.8
		C190.8,66,187.5,67.4,181.1,68.5z M117.6,84.3c0,0,5-7.7,13.4-5.3c8.4,2.4,9.1,11.7,9.1,11.7L117.6,84.3z M138.2,119.1
		c-14.9-4.4-17.1-16.2-17.1-16.2L161,114C161,114,152.9,123.4,138.2,119.1z M152.3,94.7c0,0,5-7.7,13.4-5.3
		c8.4,2.4,9.1,11.7,9.1,11.7L152.3,94.7z"/>
	<path class="st3" d="M107.9,110.9L93.3,115c0,0,1.6-9.1,12.4-12.7l-8.3-31.2l-0.7,0.2c-10.3,2.8-18.6,2-22.1,1.4
		c-4.9-0.9-7.5-1.9-7.3,1.8c0.2,3.3,1,8.4,2.8,15.2c3.9,14.7,16.8,42.9,41.2,36.4l0.7-0.2L107.9,110.9z M79.4,90l17.3-4.6
		c0,0-0.5,6.7-7,8.4C83.2,95.5,79.4,90,79.4,90z"/>
	<path class="st4" d="M138.9,119.2l-0.7-0.2c-14.9-4.4-17.1-16.2-17.1-16.2l20.6,5.8l10.9-41.9l-0.1,0c-13.4-3.6-22.2-9.8-25.7-12.8
		c-5-4.2-7.2-7.1-9.3-2.7c-1.9,3.9-4.3,10.2-6.7,19c-5.1,19.1-8.9,59.3,22.7,67.8l0.6,0.1L138.9,119.2z M117.6,84.3
		c0,0,5-7.7,13.4-5.3c8.4,2.4,9.1,11.7,9.1,11.7L117.6,84.3z"/>
	<path class="st5" d="M108.7,110.6l-3.9,1.1c0.9,5.2,2.6,10.3,5.1,14.7c0.4-0.1,0.9-0.2,1.3-0.3c1.2-0.3,2.3-0.7,3.4-1.2
		C111.7,120.7,109.8,115.8,108.7,110.6z M107.2,73.7c-2,7.6-3.8,18.4-3.3,29.3c0.9-0.4,1.8-0.7,2.9-1l0.7-0.2
		c-0.9-11.6,1-23.5,3.2-31.6c0.5-2,1.1-3.9,1.6-5.7c-0.9,0.6-1.8,1.1-2.9,1.7C108.6,68.5,107.9,71,107.2,73.7z"/>
</g>
</svg>
