<?xml version="1.0" encoding="utf-8"?>
<!-- Generator: Adobe Illustrator 27.0.0, SVG Export Plug-In . SVG Version: 6.00 Build 0)  -->
<svg version="1.1" id="Warstwa_1" xmlns="http://www.w3.org/2000/svg" xmlns:xlink="http://www.w3.org/1999/xlink" x="0px" y="0px"
	 viewBox="0 0 90 90" style="enable-background:new 0 0 90 90;" xml:space="preserve">
<style type="text/css">
	.st0{fill:url(#SVGID_1_);}
	.st1{fill:url(#SVGID_00000178185425862937855850000002888453297676806310_);}
</style>
<linearGradient id="SVGID_1_" gradientUnits="userSpaceOnUse" x1="-908.6245" y1="1.291" x2="-908.6102" y2="1.3083" gradientTransform="matrix(2454.3228 0 0 2187.2434 2230086.5 -2808.5259)">
	<stop  offset="0" style="stop-color:#41D1FF"/>
	<stop  offset="1" style="stop-color:#BD34FE"/>
</linearGradient>
<path class="st0" d="M74.8,23.8L46.6,74.2c-0.6,1.1-2,1.1-2.7,0L15.2,23.8c-0.6-1.1,0.4-2.5,1.6-2.3L45,26.6c0.2,0,0.4,0,0.6,0
	l27.6-5C74.4,21.3,75.4,22.7,74.8,23.8z"/>
<linearGradient id="SVGID_00000174595972093588133750000000809802173673670299_" gradientUnits="userSpaceOnUse" x1="-908.9158" y1="1.4423" x2="-908.9141" y2="1.4635" gradientTransform="matrix(1125.4194 0 0 2051.6592 1022960.125 -2943.1621)">
	<stop  offset="0" style="stop-color:#FFEA83"/>
	<stop  offset="8.299999e-02" style="stop-color:#FFDD35"/>
	<stop  offset="1" style="stop-color:#FFA800"/>
</linearGradient>
<path style="fill:url(#SVGID_00000174595972093588133750000000809802173673670299_);" d="M58.5,15l-20.9,4.1
	c-0.4,0.1-0.6,0.4-0.6,0.7l-1.3,21.7c0,0.4,0.3,0.8,0.7,0.8c0.1,0,0.1,0,0.2,0l5.8-1.3c0.6-0.1,1.1,0.4,0.9,0.9l-1.7,8.5
	c-0.1,0.6,0.4,1.1,1,0.9l3.6-1.1c0.6-0.1,1.1,0.4,1,0.9l-2.8,13.3c-0.1,0.8,0.9,1.3,1.4,0.6l0.3-0.5l17-34c0.3-0.6-0.2-1.2-0.8-1.1
	l-6,1.1c-0.6,0.1-1.1-0.4-0.8-1l3.9-13.6C59.5,15.4,59.1,14.8,58.5,15L58.5,15z"/>
</svg>
